<svg xmlns="http://www.w3.org/2000/svg" width="625" height="198" fill="none"><path fill="#fff" d="M6.4 72V25.088h5.952V72zm18.75 0V25.088h13.376c10.56 0 17.6 3.52 17.6 13.76 0 9.92-7.04 14.528-17.28 14.528h-7.744V72zm5.952-23.424h6.976c8.256 0 12.16-3.008 12.16-9.728 0-6.784-4.16-8.96-12.416-8.96h-6.72zm44.533-30.144 3.904 2.88c-3.328 2.368-7.552 4.608-11.584 6.528v29.504l5.569-2.24c.32-2.752.383-5.568.383-8.32V29.056H77.3v17.728c0 11.072-1.216 22.08-11.136 30.528-.64-.768-1.92-1.92-2.752-2.432 5.632-4.608 8.257-10.048 9.472-15.872-6.783 3.136-8.063 3.968-8.767 4.736-.193-1.088-.833-2.88-1.408-3.968.767-.32 1.791-.896 1.791-3.136V25.536c4.16-1.92 8.64-4.736 11.136-7.104zm-2.303 30.144-2.752.64c-.32-3.328-1.153-8.32-2.112-12.096l2.56-.512c1.023 3.776 1.92 8.704 2.303 11.968zm19.712-24.768V60.16c0 1.984-.32 3.136-1.6 3.776-1.153.768-3.136.832-5.697.832-.192-1.088-.704-2.752-1.216-3.84 1.92.064 3.584.064 4.224.064.577 0 .705-.192.705-.832V27.648h-5.888v8.96l2.623-.64c1.345 3.968 2.689 9.024 3.265 12.416l-2.88.768c-.448-3.264-1.793-8.256-3.008-12.096v39.872h-3.457v-53.12zm25.024-4.864 2.368 3.584c-6.464 2.112-16.704 3.392-24.96 4.032-.192-.96-.704-2.496-1.153-3.52 8.193-.832 18.113-2.24 23.745-4.096m-3.392 20.672-3.392-.896c1.536-3.264 3.264-8.704 4.224-12.224l3.904.832c-1.536 4.16-3.136 9.024-4.736 12.288m-4.992-1.856-3.392.768c-.32-2.752-1.28-6.912-2.176-10.176l3.2-.64c1.024 3.2 2.048 7.36 2.368 10.048m-6.208.64-3.456 1.28c-.769-2.688-2.624-6.912-4.224-10.048l3.263-1.024c1.601 3.136 3.521 7.232 4.417 9.792m5.76 14.144v3.904h10.88v4.096h-10.88v11.072c0 2.432-.448 3.648-2.176 4.352s-4.416.704-8.385.704c-.191-1.216-.831-2.944-1.407-4.16 3.072.064 5.824.064 6.656 0 .768 0 1.024-.192 1.024-.896V60.544h-10.24v-4.096h10.24v-5.184c2.176-1.6 4.48-3.776 6.272-5.888H96.692v-3.84h17.856l.768-.256 2.816 1.984c-2.368 3.264-5.696 6.72-8.896 9.28m34.112-34.048 4.672 1.472c-1.792 4.352-4.032 8.64-6.464 12.608v44.352h-4.928V40c-2.368 3.136-4.8 6.016-7.36 8.384-.576-1.024-2.176-3.52-3.136-4.544 6.784-6.08 13.312-15.552 17.216-25.344M164.98 71.04h10.496c3.392 0 3.84-2.752 4.352-13.632 1.28.96 3.264 1.984 4.672 2.304-.64 11.904-2.048 16-8.768 16h-11.264c-6.4 0-8.192-1.92-8.192-9.024V55.68a91 91 0 0 1-8.896 5.12c-.768-.96-2.304-2.624-3.52-3.584 4.096-1.984 8.32-4.48 12.416-7.296V19.648h4.992v26.496c6.656-5.312 12.736-11.584 17.152-18.432l4.672 3.072c-5.824 8.128-13.632 15.488-21.824 21.44v14.592c0 3.52.64 4.224 3.712 4.224M8.736 104.756V141H4.004v-36.244zm21.949 7.228q5.199 0 8.424 3.172 3.225 3.12 3.224 9.048V141h-4.68v-16.12q0-4.264-2.132-6.5-2.133-2.288-5.824-2.288-3.744 0-5.98 2.34-2.184 2.34-2.184 6.812V141H16.8v-28.496h4.732v4.056q1.404-2.184 3.796-3.38 2.445-1.196 5.356-1.196zm25.15 4.42V133.2q0 2.08.884 2.964.884.832 3.068.832h3.484V141h-4.264q-3.952 0-5.928-1.82-1.977-1.82-1.976-5.98v-16.796H47.41v-3.9h3.692v-7.176h4.732v7.176h7.436v3.9h-7.436zm39.169 9.256q0 1.352-.156 2.86H72.072q.26 4.212 2.86 6.604 2.652 2.34 6.396 2.34 3.068 0 5.096-1.404a7.66 7.66 0 0 0 2.912-3.848h5.096q-1.144 4.109-4.576 6.708-3.431 2.548-8.528 2.548-4.055 0-7.28-1.82-3.172-1.82-4.992-5.148-1.82-3.38-1.82-7.8c0-4.42.59-5.529 1.768-7.748q1.768-3.328 4.94-5.096 3.224-1.82 7.384-1.82 4.056 0 7.176 1.768c3.12 1.768 3.675 2.808 4.784 4.888q1.716 3.068 1.716 6.968m-4.888-.988q0-2.704-1.196-4.628a7.53 7.53 0 0 0-3.276-2.964q-2.028-1.04-4.524-1.04-3.588 0-6.136 2.288-2.496 2.288-2.86 6.344zm15.866-22.152V141h-4.732v-38.48zm12.797 0V141h-4.732v-38.48zm34.065 23.14q0 1.352-.156 2.86h-22.776q.26 4.212 2.86 6.604 2.652 2.34 6.396 2.34 3.068 0 5.096-1.404a7.66 7.66 0 0 0 2.912-3.848h5.096q-1.144 4.109-4.576 6.708-3.432 2.548-8.528 2.548-4.056 0-7.28-1.82-3.173-1.82-4.992-5.148-1.82-3.38-1.82-7.8c0-4.42.589-5.529 1.768-7.748q1.768-3.328 4.94-5.096 3.224-1.82 7.384-1.82 4.056 0 7.176 1.768c3.12 1.768 3.675 2.808 4.784 4.888q1.716 3.068 1.716 6.968m-4.888-.988q0-2.704-1.196-4.628a7.53 7.53 0 0 0-3.276-2.964q-2.028-1.04-4.524-1.04-3.588 0-6.136 2.288-2.496 2.288-2.86 6.344zm9.366 2.028q0-4.42 1.768-7.696 1.768-3.329 4.888-5.148 3.172-1.82 7.228-1.82 5.252 0 8.632 2.548 3.432 2.548 4.524 7.072h-5.096q-.728-2.6-2.86-4.108-2.08-1.508-5.2-1.508-4.056 0-6.552 2.808-2.496 2.756-2.496 7.852 0 5.148 2.496 7.956t6.552 2.808q3.12 0 5.2-1.456c2.08-1.456 2.34-2.357 2.86-4.16h5.096q-1.144 4.368-4.576 7.02-3.432 2.6-8.58 2.6-4.056 0-7.228-1.82-3.12-1.82-4.888-5.148t-1.768-7.8m39.126-10.296V133.2q0 2.08.884 2.964.884.832 3.068.832h3.484V141h-4.264q-3.952 0-5.928-1.82t-1.976-5.98v-16.796h-3.692v-3.9h3.692v-7.176h4.732v7.176h7.436v3.9zm38.441-3.9V141h-4.732v-4.212q-1.351 2.184-3.796 3.432-2.391 1.196-5.304 1.196-3.327 0-5.98-1.352-2.652-1.404-4.212-4.16-1.508-2.756-1.508-6.708v-16.692h4.68v16.068q0 4.212 2.132 6.5 2.133 2.236 5.824 2.236 3.796 0 5.98-2.34t2.184-6.812v-15.652zm6.222 14.144q0-4.368 1.768-7.644 1.768-3.328 4.836-5.148 3.12-1.82 6.916-1.82 3.744 0 6.5 1.612t4.108 4.056v-5.2h4.784V141h-4.784v-5.304q-1.404 2.496-4.212 4.16-2.756 1.612-6.448 1.612-3.796 0-6.864-1.872t-4.836-5.252-1.768-7.696m24.128.052q0-3.223-1.3-5.616t-3.536-3.64q-2.184-1.3-4.836-1.3t-4.836 1.248-3.484 3.64-1.3 5.616q0 3.276 1.3 5.72 1.3 2.392 3.484 3.692 2.184 1.248 4.836 1.248t4.836-1.248q2.236-1.3 3.536-3.692 1.3-2.444 1.3-5.668m17.513-24.18V141h-4.732v-38.48zm46.16 12.844q0 4.524-3.12 7.54-3.069 2.964-9.412 2.964h-6.968V141h-4.732v-36.244h11.7q6.135 0 9.308 2.964 3.224 2.964 3.224 7.644m-12.532 6.604q3.951 0 5.824-1.716t1.872-4.888q0-6.708-7.696-6.708h-6.968v13.312zm23.145-4.836q1.248-2.444 3.536-3.796 2.34-1.352 5.668-1.352v4.888h-1.248q-7.956 0-7.956 8.632V141h-4.732v-28.496h4.732zm27.095 24.336q-4.005 0-7.28-1.82-3.224-1.82-5.096-5.148-1.82-3.38-1.82-7.8 0-4.368 1.872-7.696 1.923-3.38 5.2-5.148 3.276-1.82 7.332-1.82t7.332 1.82q3.276 1.768 5.148 5.096 1.923 3.328 1.924 7.748c.001 4.42-.659 5.547-1.976 7.8q-1.925 3.329-5.252 5.148-3.328 1.82-7.384 1.82m0-4.16a10 10 0 0 0 4.784-1.196q2.235-1.195 3.588-3.588 1.404-2.392 1.404-5.824c0-3.432-.451-4.229-1.352-5.824q-1.352-2.392-3.536-3.536a9.7 9.7 0 0 0-4.732-1.196q-2.6 0-4.784 1.196-2.133 1.144-3.432 3.536-1.3 2.392-1.3 5.824 0 3.484 1.248 5.876 1.299 2.392 3.432 3.588 2.132 1.144 4.68 1.144m25.565-19.552q1.404-2.443 4.16-4.056 2.808-1.664 6.5-1.664 3.797 0 6.864 1.82 3.12 1.82 4.888 5.148 1.768 3.276 1.768 7.644 0 4.316-1.768 7.696-1.767 3.38-4.888 5.252-3.068 1.872-6.864 1.872-3.64 0-6.448-1.612-2.755-1.664-4.212-4.108v18.772h-4.732v-42.016h4.732zm19.344 8.892q0-3.224-1.3-5.616t-3.536-3.64q-2.184-1.248-4.836-1.248a9.46 9.46 0 0 0-4.836 1.3q-2.184 1.248-3.536 3.692-1.3 2.392-1.3 5.564 0 3.224 1.3 5.668 1.352 2.392 3.536 3.692a9.76 9.76 0 0 0 4.836 1.248q2.652 0 4.836-1.248 2.237-1.3 3.536-3.692 1.3-2.444 1.3-5.72m37.065-.988q0 1.352-.156 2.86h-22.776q.26 4.212 2.86 6.604 2.652 2.34 6.396 2.34 3.068 0 5.096-1.404a7.66 7.66 0 0 0 2.912-3.848h5.096q-1.144 4.108-4.576 6.708-3.432 2.548-8.528 2.548-4.056 0-7.28-1.82-3.172-1.82-4.992-5.148-1.82-3.38-1.82-7.8c0-4.42.589-5.529 1.768-7.748q1.768-3.328 4.94-5.096 3.224-1.82 7.384-1.82 4.056 0 7.176 1.768c3.12 1.768 3.675 2.808 4.784 4.888q1.716 3.068 1.716 6.968m-4.888-.988q0-2.704-1.196-4.628a7.53 7.53 0 0 0-3.276-2.964q-2.028-1.04-4.524-1.04-3.588 0-6.136 2.288-2.496 2.288-2.86 6.344zm15.866-7.54q1.248-2.444 3.536-3.796 2.34-1.352 5.668-1.352v4.888h-1.248q-7.956 0-7.956 8.632V141h-4.732v-28.496h4.732zm20.438-.728V133.2q0 2.08.884 2.964.885.832 3.068.832h3.484V141h-4.264q-3.951 0-5.928-1.82t-1.976-5.98v-16.796h-3.692v-3.9h3.692v-7.176h4.732v7.176h7.436v3.9zm37.714-3.9-17.16 41.912h-4.888l5.616-13.728-11.492-28.184h5.252l8.944 23.088 8.84-23.088zM6.448 156.876q-1.352 0-2.288-.936t-.936-2.288.936-2.288 2.288-.936q1.3 0 2.184.936.936.936.936 2.288t-.936 2.288q-.884.936-2.184.936m2.288 4.628V190H4.004v-28.496zm21.949-.52q5.199 0 8.424 3.172 3.224 3.12 3.224 9.048V190h-4.68v-16.12q0-4.264-2.132-6.5-2.133-2.288-5.824-2.288-3.745 0-5.98 2.34-2.184 2.34-2.184 6.812V190H16.8v-28.496h4.732v4.056q1.404-2.184 3.796-3.38 2.445-1.196 5.356-1.196zm17.61 14.716q0-4.42 1.768-7.696 1.767-3.329 4.888-5.148 3.172-1.82 7.228-1.82 5.25 0 8.632 2.548 3.432 2.548 4.524 7.072h-5.096q-.73-2.6-2.86-4.108-2.08-1.508-5.2-1.508-4.056 0-6.552 2.808-2.496 2.756-2.496 7.852 0 5.148 2.496 7.956t6.552 2.808q3.12 0 5.2-1.456t2.86-4.16h5.096q-1.144 4.368-4.576 7.02-3.432 2.6-8.58 2.6-4.056 0-7.228-1.82-3.12-1.82-4.888-5.148-1.769-3.328-1.768-7.8m58.626-14.196V190h-4.732v-4.212q-1.353 2.184-3.796 3.432-2.392 1.196-5.305 1.196-3.328 0-5.98-1.352-2.651-1.404-4.212-4.16-1.508-2.756-1.508-6.708v-16.692h4.68v16.068q0 4.212 2.133 6.5 2.13 2.236 5.824 2.236 3.795 0 5.98-2.34 2.184-2.34 2.184-6.812v-15.652zm12.721 5.304q1.456-2.548 4.264-4.16t6.396-1.612q3.849 0 6.916 1.82 3.069 1.82 4.836 5.148 1.768 3.276 1.768 7.644 0 4.316-1.768 7.696-1.767 3.38-4.888 5.252-3.067 1.872-6.864 1.872-3.692 0-6.5-1.612-2.756-1.612-4.16-4.108V190h-4.732v-38.48h4.732zm19.344 8.84q0-3.224-1.3-5.616t-3.536-3.64q-2.184-1.248-4.836-1.248a9.46 9.46 0 0 0-4.836 1.3q-2.183 1.248-3.536 3.692-1.3 2.392-1.3 5.564 0 3.224 1.3 5.668 1.353 2.392 3.536 3.692a9.76 9.76 0 0 0 4.836 1.248q2.652 0 4.836-1.248 2.237-1.3 3.536-3.692 1.3-2.444 1.3-5.72m9.297 0q0-4.368 1.768-7.644 1.768-3.329 4.836-5.148 3.12-1.82 6.916-1.82 3.744 0 6.5 1.612t4.108 4.056v-5.2h4.784V190h-4.784v-5.304q-1.404 2.496-4.212 4.16-2.756 1.612-6.448 1.612-3.797 0-6.864-1.872t-4.836-5.252q-1.768-3.38-1.768-7.696m24.128.052q0-3.224-1.3-5.616t-3.536-3.64q-2.184-1.3-4.836-1.3t-4.836 1.248-3.484 3.64q-1.3 2.393-1.3 5.616 0 3.276 1.3 5.72 1.3 2.392 3.484 3.692 2.184 1.248 4.836 1.248t4.836-1.248q2.236-1.3 3.536-3.692 1.3-2.444 1.3-5.668m18.553-10.296V182.2q0 2.08.884 2.964.884.832 3.067.832h3.485V190h-4.264q-3.952 0-5.928-1.82t-1.976-5.98v-16.796h-3.692v-3.9h3.692v-7.176h4.732v7.176h7.436v3.9zm15.613-8.528q-1.352 0-2.288-.936t-.936-2.288.936-2.288 2.288-.936q1.3 0 2.184.936.936.936.936 2.288t-.936 2.288q-.883.936-2.184.936m2.288 4.628V190h-4.732v-28.496zm20.493 28.964q-4.004 0-7.28-1.82-3.225-1.82-5.096-5.148-1.82-3.38-1.82-7.8 0-4.368 1.872-7.696 1.924-3.38 5.2-5.148 3.276-1.82 7.332-1.82t7.332 1.82q3.276 1.768 5.148 5.096 1.923 3.328 1.924 7.748c.001 4.42-.659 5.547-1.976 7.8q-1.925 3.328-5.252 5.148t-7.384 1.82m0-4.16a10 10 0 0 0 4.784-1.196q2.235-1.195 3.588-3.588 1.404-2.392 1.404-5.824c0-3.432-.451-4.229-1.352-5.824q-1.353-2.392-3.536-3.536a9.7 9.7 0 0 0-4.732-1.196q-2.6 0-4.784 1.196-2.133 1.144-3.432 3.536-1.3 2.392-1.3 5.824 0 3.484 1.248 5.876 1.299 2.393 3.432 3.588 2.131 1.144 4.68 1.144m34.718-25.324q5.199 0 8.424 3.172 3.224 3.12 3.224 9.048V190h-4.68v-16.12q0-4.264-2.132-6.5-2.133-2.288-5.824-2.288-3.745 0-5.98 2.34-2.184 2.34-2.184 6.812V190h-4.732v-28.496h4.732v4.056q1.404-2.184 3.796-3.38 2.443-1.196 5.356-1.196"/></svg>