<svg xmlns="http://www.w3.org/2000/svg" width="625" height="205" fill="none"><path fill="#fff" d="m25.408 43.776 3.392 1.6c-3.264 3.84-8.32 8.128-12.352 10.88-.32-.768-1.472-2.88-2.176-3.712 3.776-2.368 8.192-5.568 11.136-8.768m14.144 14.016H24.32v7.424h15.232zm3.968 10.944h-19.2v2.944h-4.16V54.208h23.36zm7.552-16.064L48.256 56c-2.752-2.624-8.256-6.848-12.48-9.856l2.688-2.816c4.16 2.816 9.728 6.848 12.608 9.344m5.376-14.016v32.96c0 2.496-.64 3.584-2.496 4.288-1.92.576-5.12.64-10.56.64-.256-1.152-.832-2.624-1.472-3.648 3.968.128 7.68.064 8.704 0s1.408-.32 1.408-1.344V42.624h-39.68V76.8H7.808V38.656h29.504c1.728-2.624 3.648-6.144 4.736-8.704l5.056 1.088c-1.6 2.624-3.264 5.376-4.928 7.616zm-38.784-7.68 4.288-1.408c1.344 2.176 3.2 5.248 4.032 7.104L21.632 38.4c-.832-1.856-2.56-5.056-3.968-7.424m18.24-5.632h24.064v4.096H4.16v-4.096h26.56c-.704-1.92-1.6-4.16-2.496-5.888l4.608-1.216c1.088 2.24 2.368 4.992 3.072 7.104m82.56 7.872 4.288 2.112c-3.072 7.296-7.36 16.128-11.008 22.016l-3.904-2.112c3.52-5.76 8.128-14.976 10.624-22.016M82.88 55.04l-4.736 1.792C76.608 51.2 72.768 41.6 69.44 34.368l4.416-1.344c3.392 7.104 7.296 16.448 9.024 22.016m23.296 13.824h17.856v4.672H68.096v-4.672h17.792v-49.6h4.736v49.6h10.816V19.328h4.736zm51.2-40.64.96-.256 3.264 1.088c-3.392 25.024-13.376 39.936-27.008 47.36-.704-1.216-2.688-3.136-3.84-3.904 7.424-3.776 13.632-9.6 18.176-17.92-2.688-2.496-6.912-5.76-10.368-8.064l2.88-3.136c3.072 1.92 6.848 4.608 9.536 6.912 2.176-5.056 3.904-10.88 4.992-17.6h-12.16c-2.432 6.656-5.504 12.544-9.088 17.024-.768-.832-2.88-2.368-3.904-3.008 5.824-6.592 9.856-17.152 12.16-28.288l4.672.896c-.704 3.072-1.408 6.016-2.304 8.896zm14.592 10.88 1.728-1.408c5.504 4.352 12.416 10.432 15.808 14.464l-3.776 3.264c-2.88-3.648-8.704-9.024-13.76-13.312v34.752h-4.864V18.496h4.864zm70.848-7.552h-33.344c-3.392 4.8-7.168 8.96-11.072 12.16-.896-.896-2.752-2.688-3.968-3.456 7.04-5.184 13.312-13.44 17.024-22.144l4.8 1.408c-1.152 2.624-2.496 5.12-3.904 7.488h35.328v2.24c-.704 21.248-1.344 28.672-3.136 30.976-1.088 1.472-2.304 1.984-4.032 2.176-1.664.192-4.416.192-7.424 0-.064-1.344-.576-3.264-1.216-4.544 2.752.256 5.312.32 6.4.256.96.064 1.536-.064 2.112-.832 1.216-1.536 1.92-8 2.432-25.728m-16.832 10.88h-16.64v10.304h16.64zm-8.64 28.608h24.32c5.44 0 6.336-1.408 7.04-8 1.152.768 3.2 1.472 4.544 1.728-.96 8.384-2.88 10.752-11.52 10.752H217.6c-9.984 0-12.928-1.728-12.928-8.832V38.144h25.984v18.88h-21.312v9.664c0 3.456 1.216 4.352 8 4.352M15.496 141.364q-3.588 0-6.448-1.248-2.808-1.3-4.42-3.536-1.613-2.288-1.664-5.252h5.044q.26 2.548 2.08 4.316 1.871 1.716 5.408 1.716 3.38 0 5.304-1.664 1.976-1.716 1.976-4.368 0-2.08-1.144-3.38t-2.86-1.976-4.628-1.456q-3.588-.936-5.772-1.872-2.132-.936-3.692-2.912-1.508-2.028-1.508-5.408 0-2.964 1.508-5.252c1.508-2.288 2.41-2.704 4.212-3.536q2.756-1.248 6.292-1.248 5.095 0 8.32 2.548 3.276 2.548 3.692 6.76h-5.2q-.26-2.08-2.184-3.64-1.924-1.612-5.096-1.612-2.964 0-4.836 1.56-1.872 1.508-1.872 4.264 0 1.976 1.092 3.224a7.8 7.8 0 0 0 2.756 1.924q1.665.624 4.628 1.456 3.588.988 5.772 1.976 2.184.936 3.744 2.964 1.56 1.976 1.56 5.408 0 2.652-1.404 4.992t-4.16 3.796-6.5 1.456m24.8-24.96V133.2q0 2.08.883 2.964.884.832 3.069.832h3.483V141h-4.264q-3.951 0-5.928-1.82t-1.976-5.98v-16.796h-3.692v-3.9h3.692v-7.176h4.732v7.176h7.436v3.9zm17.9.728q1.25-2.444 3.537-3.796 2.34-1.352 5.668-1.352v4.888h-1.248q-7.956 0-7.956 8.632V141h-4.732v-28.496h4.732v4.628zm12.9 9.516q0-4.368 1.767-7.644 1.768-3.328 4.836-5.148 3.12-1.82 6.916-1.82 3.744 0 6.5 1.612 2.757 1.613 4.108 4.056v-5.2h4.784V141h-4.784v-5.304q-1.404 2.496-4.212 4.16-2.755 1.612-6.448 1.612-3.795 0-6.864-1.872-3.067-1.872-4.836-5.252-1.767-3.38-1.768-7.696zm24.127.052q0-3.223-1.3-5.616t-3.536-3.64q-2.184-1.3-4.836-1.3t-4.836 1.248-3.484 3.64-1.3 5.616q0 3.276 1.3 5.72 1.3 2.392 3.484 3.692 2.184 1.248 4.836 1.248t4.836-1.248q2.237-1.3 3.536-3.692 1.3-2.444 1.3-5.668m18.553-10.296V133.2q0 2.08.884 2.964.884.832 3.068.832h3.484V141h-4.264q-3.953 0-5.928-1.82t-1.976-5.98v-16.796h-3.692v-3.9h3.692v-7.176h4.732v7.176h7.436v3.9zm39.169 9.256q0 1.352-.156 2.86h-22.776q.26 4.212 2.86 6.604 2.652 2.34 6.396 2.34 3.069 0 5.096-1.404a7.65 7.65 0 0 0 2.912-3.848h5.096q-1.144 4.109-4.576 6.708-3.432 2.548-8.528 2.548-4.055 0-7.28-1.82-3.171-1.82-4.992-5.148-1.82-3.38-1.82-7.8c0-4.42.59-5.529 1.768-7.748q1.769-3.328 4.94-5.096 3.225-1.82 7.384-1.82 4.056 0 7.176 1.768c3.12 1.768 3.675 2.808 4.784 4.888q1.716 3.068 1.716 6.968m-4.888-.988q0-2.704-1.196-4.628a7.53 7.53 0 0 0-3.276-2.964q-2.028-1.04-4.524-1.04-3.588 0-6.136 2.288-2.496 2.288-2.86 6.344zm22.887-12.636q3.691 0 6.448 1.612 2.808 1.613 4.16 4.056v-5.2h4.784v29.12q0 3.9-1.664 6.916-1.665 3.068-4.784 4.784-3.069 1.716-7.176 1.716-5.616 0-9.36-2.652-3.745-2.652-4.42-7.228h4.68q.78 2.6 3.224 4.16 2.444 1.612 5.876 1.612 3.9 0 6.344-2.444 2.496-2.444 2.496-6.864v-5.98q-1.404 2.496-4.16 4.16t-6.448 1.664q-3.796 0-6.916-1.872-3.069-1.872-4.836-5.252t-1.768-7.696q0-4.368 1.768-7.644 1.767-3.328 4.836-5.148 3.12-1.82 6.916-1.82m10.608 14.664q0-3.223-1.3-5.616t-3.536-3.64q-2.184-1.3-4.836-1.3t-4.836 1.248-3.484 3.64-1.3 5.616q0 3.276 1.3 5.72 1.3 2.392 3.484 3.692 2.184 1.248 4.836 1.248t4.836-1.248q2.235-1.3 3.536-3.692 1.3-2.444 1.3-5.668m15.224-18.824q-1.352 0-2.288-.936t-.936-2.288.936-2.288 2.288-.936q1.3 0 2.184.936.936.936.936 2.288t-.936 2.288q-.884.936-2.184.936m2.288 4.628V141h-4.732v-28.496zm6.297 14.196q0-4.42 1.768-7.696 1.768-3.329 4.888-5.148 3.172-1.82 7.228-1.82 5.252 0 8.632 2.548 3.432 2.548 4.524 7.072h-5.096q-.728-2.6-2.86-4.108-2.08-1.508-5.2-1.508-4.056 0-6.552 2.808-2.496 2.756-2.496 7.852 0 5.148 2.496 7.956t6.552 2.808q3.12 0 5.2-1.456c2.08-1.456 2.34-2.357 2.86-4.16h5.096q-1.144 4.368-4.576 7.02-3.432 2.6-8.58 2.6-4.056 0-7.228-1.82-3.12-1.82-4.888-5.148t-1.768-7.8M20.436 190.364q-5.044 0-9.204-2.34-4.16-2.392-6.604-6.604-2.392-4.264-2.392-9.568t2.392-9.516q2.444-4.264 6.604-6.604 4.16-2.392 9.204-2.392 5.096 0 9.256 2.392 4.16 2.34 6.552 6.552t2.392 9.568-2.392 9.568-6.552 6.604q-4.16 2.34-9.256 2.34m0-4.108q3.795 0 6.812-1.768 3.068-1.768 4.784-5.044 1.768-3.276 1.768-7.592 0-4.368-1.768-7.592-1.716-3.276-4.732-5.044t-6.864-1.768q-3.847 0-6.864 1.768-3.015 1.768-4.784 5.044-1.716 3.224-1.716 7.592 0 4.316 1.716 7.592 1.768 3.276 4.784 5.044 3.067 1.768 6.864 1.768m49.719-24.752V190h-4.732v-4.212q-1.352 2.184-3.796 3.432-2.393 1.196-5.304 1.196-3.328 0-5.98-1.352-2.652-1.404-4.212-4.16-1.508-2.756-1.508-6.708v-16.692h4.68v16.068q0 4.212 2.132 6.5 2.132 2.236 5.824 2.236 3.796 0 5.98-2.34t2.184-6.812v-15.652zm13.762 3.9V182.2q0 2.08.884 2.964.884.832 3.068.832h3.484V190h-4.264q-3.953 0-5.928-1.82-1.977-1.82-1.976-5.98v-16.796h-3.692v-3.9h3.692v-7.176h4.732v7.176h7.436v3.9zm23.257 25.064q-3.276 0-5.876-1.092-2.6-1.144-4.108-3.12-1.508-2.028-1.664-4.628h4.888q.208 2.132 1.976 3.484 1.82 1.352 4.732 1.352 2.704 0 4.264-1.196t1.56-3.016q0-1.872-1.664-2.756-1.663-.936-5.148-1.82-3.172-.832-5.2-1.664a9.9 9.9 0 0 1-3.432-2.548q-1.404-1.716-1.404-4.472 0-2.184 1.3-4.004t3.692-2.86q2.393-1.092 5.46-1.092 4.733 0 7.644 2.392t3.12 6.552h-4.732q-.156-2.237-1.82-3.588-1.612-1.352-4.368-1.352-2.549 0-4.056 1.092t-1.508 2.86q0 1.404.884 2.34.936.884 2.288 1.456 1.404.52 3.848 1.196 3.067.832 4.992 1.664a8.3 8.3 0 0 1 3.276 2.392q1.404 1.613 1.456 4.212 0 2.34-1.3 4.212t-3.692 2.964q-2.34 1.04-5.408 1.04m29.508 0q-4.004 0-7.28-1.82-3.224-1.82-5.096-5.148-1.82-3.38-1.82-7.8 0-4.368 1.872-7.696 1.924-3.38 5.2-5.148 3.276-1.82 7.332-1.82t7.332 1.82q3.276 1.768 5.148 5.096 1.924 3.328 1.924 7.748c0 4.42-.659 5.547-1.976 7.8q-1.924 3.328-5.252 5.148t-7.384 1.82m0-4.16a10 10 0 0 0 4.784-1.196q2.237-1.196 3.588-3.588 1.404-2.392 1.404-5.824c0-3.432-.451-4.229-1.352-5.824q-1.352-2.392-3.536-3.536a9.7 9.7 0 0 0-4.732-1.196q-2.6 0-4.784 1.196-2.131 1.144-3.432 3.536c-1.301 2.392-1.3 3.536-1.3 5.824q0 3.484 1.248 5.876 1.3 2.392 3.432 3.588 2.131 1.144 4.68 1.144m46.106-24.804V190h-4.732v-4.212q-1.353 2.184-3.796 3.432-2.392 1.196-5.304 1.196-3.328 0-5.98-1.352-2.652-1.404-4.212-4.16-1.508-2.756-1.508-6.708v-16.692h4.68v16.068q0 4.212 2.132 6.5 2.131 2.236 5.824 2.236 3.796 0 5.98-2.34t2.184-6.812v-15.652zm12.721 4.628q1.248-2.444 3.536-3.796 2.34-1.352 5.668-1.352v4.888h-1.248q-7.956 0-7.956 8.632V190h-4.732v-28.496h4.732zm12.899 9.568q0-4.42 1.768-7.696 1.768-3.329 4.888-5.148 3.172-1.82 7.228-1.82 5.252 0 8.632 2.548 3.432 2.548 4.524 7.072h-5.096q-.728-2.6-2.86-4.108-2.08-1.508-5.2-1.508-4.056 0-6.552 2.808-2.496 2.756-2.496 7.852 0 5.148 2.496 7.956t6.552 2.808q3.12 0 5.2-1.456c2.08-1.456 2.34-2.357 2.86-4.16h5.096q-1.144 4.368-4.576 7.02-3.432 2.6-8.58 2.6-4.056 0-7.228-1.82-3.12-1.82-4.888-5.148t-1.768-7.8m35.798-18.824q-1.352 0-2.288-.936t-.936-2.288.936-2.288q.935-.936 2.288-.936 1.299 0 2.184.936.936.936.936 2.288t-.936 2.288q-.885.936-2.184.936m2.288 4.628V190h-4.732v-28.496zm21.949-.52q5.199 0 8.424 3.172 3.224 3.12 3.224 9.048V190h-4.68v-16.12q0-4.264-2.132-6.5-2.133-2.288-5.824-2.288-3.744 0-5.98 2.34-2.184 2.34-2.184 6.812V190h-4.732v-28.496h4.732v4.056q1.404-2.184 3.796-3.38 2.443-1.196 5.356-1.196m31.129.052q3.693 0 6.448 1.612 2.808 1.612 4.16 4.056v-5.2h4.784v29.12q0 3.9-1.664 6.916-1.664 3.068-4.784 4.784-3.067 1.716-7.176 1.716-5.616 0-9.36-2.652t-4.42-7.228h4.68q.78 2.6 3.224 4.16 2.445 1.612 5.876 1.612 3.9 0 6.344-2.444 2.496-2.443 2.496-6.864v-5.98q-1.403 2.496-4.16 4.16-2.755 1.664-6.448 1.664-3.796 0-6.916-1.872-3.067-1.872-4.836-5.252-1.767-3.38-1.768-7.696 0-4.368 1.768-7.644 1.768-3.328 4.836-5.148 3.12-1.82 6.916-1.82M310.18 175.7q0-3.223-1.3-5.616t-3.536-3.64q-2.184-1.3-4.836-1.3t-4.836 1.248-3.484 3.64q-1.3 2.393-1.3 5.616 0 3.276 1.3 5.72 1.3 2.392 3.484 3.692 2.184 1.248 4.836 1.248t4.836-1.248q2.237-1.3 3.536-3.692 1.3-2.444 1.3-5.668"/></svg>