<svg xmlns="http://www.w3.org/2000/svg" width="242" height="36" fill="none"><path fill="#fff" d="M4.227 13.084q-.924 0-1.656-.3t-1.176-.888q-.432-.588-.456-1.416h2.184q.048.468.324.72.276.24.72.24.456 0 .72-.204a.72.72 0 0 0 .264-.588.68.68 0 0 0-.216-.516 1.6 1.6 0 0 0-.516-.336 8 8 0 0 0-.864-.3 9.5 9.5 0 0 1-1.332-.504 2.46 2.46 0 0 1-.888-.744Q.963 7.756.963 6.964q0-1.176.852-1.836.852-.672 2.22-.672 1.392 0 2.244.672.852.66.912 1.848H4.97q-.024-.408-.3-.636-.276-.24-.708-.24-.372 0-.6.204-.228.192-.228.564 0 .408.384.636t1.2.492q.816.276 1.32.528.516.252.888.732c.372.48.372.732.372 1.236q0 .72-.372 1.308-.36.588-1.056.936t-1.644.348zm8.067-1.824V13H11.25q-1.116 0-1.74-.54-.624-.552-.624-1.788V8.008H8.07V6.304h.816V4.672h2.052v1.632h1.344v1.704h-1.344v2.688q0 .3.144.432t.48.132zm3.195-3.84q.36-.552.9-.864.54-.324 1.2-.324v2.172h-.564q-.768 0-1.152.336-.384.324-.384 1.152V13h-2.052V6.304h2.052zm2.672 2.22q0-1.032.384-1.812.396-.78 1.068-1.2t1.5-.42q.708 0 1.236.288.54.288.828.756v-.948h2.052V13h-2.052v-.948q-.3.468-.84.756-.528.288-1.236.288-.816 0-1.488-.42a3.04 3.04 0 0 1-1.068-1.212q-.384-.792-.384-1.824m5.016.012q0-.768-.432-1.212a1.37 1.37 0 0 0-1.032-.444q-.612 0-1.044.444-.42.432-.42 1.2c0 .768.14.92.42 1.224q.432.444 1.044.444t1.032-.444q.432-.444.432-1.212m7.269 1.608V13h-1.044q-1.116 0-1.74-.54-.624-.552-.624-1.788V8.008h-.816V6.304h.816V4.672h2.052v1.632h1.344v1.704H29.09v2.688q0 .3.144.432t.48.132zm7.455-1.716q0 .288-.036.6h-4.644q.048.624.396.96.36.324.876.324.768 0 1.068-.648h2.184q-.168.66-.612 1.188a3 3 0 0 1-1.092.828q-.66.3-1.476.3-.984 0-1.752-.42a3 3 0 0 1-1.2-1.2q-.432-.78-.432-1.824t.42-1.824q.432-.78 1.2-1.2t1.764-.42q.972 0 1.728.408t1.176 1.164q.432.756.432 1.764m-2.1-.54q0-.528-.36-.84t-.9-.312q-.516 0-.876.3-.348.3-.432.852zm5.727-2.796q.706 0 1.236.288.54.288.828.756v-.948h2.052v6.684q0 .924-.372 1.668-.36.756-1.116 1.2-.745.444-1.86.444-1.489 0-2.413-.708-.924-.696-1.056-1.896h2.029a.95.95 0 0 0 .456.6q.36.228.888.228.635 0 1.008-.372.384-.36.384-1.164v-.948q-.3.468-.828.768-.53.288-1.236.288-.83 0-1.5-.42a3.04 3.04 0 0 1-1.069-1.212q-.384-.792-.384-1.824t.384-1.812q.396-.78 1.069-1.2.67-.42 1.5-.42m2.064 3.444q0-.768-.432-1.212a1.37 1.37 0 0 0-1.032-.444 1.4 1.4 0 0 0-1.044.444q-.42.432-.42 1.2c0 .768.14.92.42 1.224a1.4 1.4 0 0 0 1.043.444q.612 0 1.032-.444.432-.444.433-1.212m4.568-4.044q-.54 0-.888-.312a1.06 1.06 0 0 1-.336-.792q0-.48.336-.792.348-.324.888-.324.528 0 .864.324.348.312.348.792 0 .468-.348.792-.336.312-.864.312m1.02.696V13h-2.052V6.304zm1.08 3.348q0-1.044.42-1.824a3 3 0 0 1 1.187-1.2q.768-.42 1.752-.42 1.26 0 2.1.66.852.66 1.116 1.86h-2.184q-.276-.768-1.068-.768-.564 0-.9.444-.336.432-.336 1.248c0 .816.112.964.336 1.26q.336.432.9.432.792 0 1.068-.768h2.184q-.264 1.176-1.116 1.848t-2.1.672q-.984 0-1.752-.42-.756-.42-1.188-1.2-.42-.78-.42-1.824zm14.2 3.432a4.43 4.43 0 0 1-2.184-.552 4.2 4.2 0 0 1-1.572-1.536q-.576-.996-.576-2.232t.576-2.22a4.2 4.2 0 0 1 1.572-1.536 4.43 4.43 0 0 1 2.184-.552q1.188 0 2.172.552.996.552 1.56 1.536.576.984.576 2.22t-.576 2.232a4.1 4.1 0 0 1-1.56 1.536 4.36 4.36 0 0 1-2.172.552m0-1.872q1.008 0 1.608-.672.612-.672.612-1.776 0-1.116-.612-1.776-.6-.672-1.608-.672-1.02 0-1.632.66-.6.66-.6 1.788 0 1.116.6 1.788.612.66 1.632.66m12.06-4.908V13h-2.05v-.912a2.3 2.3 0 0 1-.852.72 2.6 2.6 0 0 1-1.176.264q-.768 0-1.356-.336a2.34 2.34 0 0 1-.912-.996q-.324-.648-.324-1.524V6.304h2.04V9.94q0 .672.348 1.044t.936.372q.6 0 .948-.372t.348-1.044V6.304h2.052zm5.206 4.956V13h-1.044q-1.116 0-1.74-.54-.624-.552-.624-1.788V8.008h-.816V6.304h.816V4.672h2.052v1.632h1.344v1.704H80.37v2.688q0 .3.144.432t.48.132zm3.867 1.836q-.876 0-1.56-.3t-1.08-.816a2.2 2.2 0 0 1-.444-1.176h2.028a.78.78 0 0 0 .324.564q.288.216.708.216.384 0 .588-.144a.47.47 0 0 0 .216-.396q0-.288-.3-.42-.3-.144-.972-.312a10 10 0 0 1-1.2-.348 2.15 2.15 0 0 1-.828-.588q-.348-.408-.348-1.092 0-.576.312-1.044.324-.48.936-.756.624-.276 1.476-.276 1.26 0 1.98.624.732.624.84 1.656h-1.896a.8.8 0 0 0-.312-.552q-.252-.204-.672-.204-.36 0-.552.144a.43.43 0 0 0-.192.372q0 .288.3.432.312.144.96.288.744.192 1.212.384.468.18.816.6.36.408.372 1.104 0 .588-.336 1.056-.324.456-.948.72-.612.264-1.428.264m7.016 0q-.984 0-1.776-.42-.78-.42-1.236-1.2-.444-.78-.444-1.824 0-1.032.456-1.812.456-.792 1.248-1.212t1.776-.42 1.776.42 1.248 1.212q.456.78.456 1.812c0 1.032-.156 1.296-.468 1.824q-.456.78-1.26 1.2-.792.42-1.776.42m0-1.776q.588 0 .996-.432.42-.432.42-1.236c0-.804-.136-.948-.408-1.236a1.28 1.28 0 0 0-.984-.432q-.6 0-.996.432-.396.42-.396 1.236 0 .804.384 1.236.396.432.984.432m11.204-5.016V13h-2.052v-.912a2.3 2.3 0 0 1-.852.72 2.6 2.6 0 0 1-1.176.264q-.768 0-1.356-.336a2.34 2.34 0 0 1-.912-.996q-.324-.648-.324-1.524V6.304h2.04V9.94q0 .672.348 1.044t.936.372q.6 0 .948-.372t.348-1.044V6.304zm3.526 1.116q.36-.552.9-.864.54-.324 1.2-.324v2.172h-.564q-.768 0-1.152.336-.384.324-.384 1.152V13h-2.052V6.304h2.052zm2.673 2.232q0-1.044.42-1.824.432-.78 1.188-1.2.768-.42 1.752-.42 1.26 0 2.1.66.852.66 1.116 1.86h-2.184q-.276-.768-1.068-.768-.564 0-.9.444-.336.432-.336 1.248c0 .816.112.964.336 1.26q.336.432.9.432.792 0 1.068-.768h2.184q-.264 1.176-1.116 1.848t-2.1.672q-.984 0-1.752-.42-.756-.42-1.188-1.2-.42-.78-.42-1.824m8.706-4.044q-.54 0-.888-.312a1.06 1.06 0 0 1-.336-.792q0-.48.336-.792.348-.324.888-.324.528 0 .864.324.348.312.348.792 0 .468-.348.792-.336.312-.864.312m1.02.696V13h-2.052V6.304zm5.567-.072q1.176 0 1.872.768.708.756.708 2.088V13h-2.04V9.364q0-.672-.348-1.044t-.936-.372c-.588 0-.704.124-.936.372q-.348.372-.348 1.044V13h-2.052V6.304h2.052v.888q.312-.444.84-.696a2.6 2.6 0 0 1 1.188-.264m6.55-.024q.708 0 1.236.288.54.288.828.756v-.948h2.052v6.684q0 .924-.372 1.668-.36.756-1.116 1.2-.744.444-1.86.444-1.488 0-2.412-.708-.924-.696-1.056-1.896h2.028a.95.95 0 0 0 .456.6q.36.228.888.228.636 0 1.008-.372.384-.36.384-1.164v-.948q-.3.468-.828.768-.528.288-1.236.288-.828 0-1.5-.42a3.04 3.04 0 0 1-1.068-1.212q-.384-.792-.384-1.824t.384-1.812q.396-.78 1.068-1.2t1.5-.42m2.064 3.444q0-.768-.432-1.212a1.37 1.37 0 0 0-1.032-.444q-.612 0-1.044.444-.42.432-.42 1.2c0 .768.14.92.42 1.224q.432.444 1.044.444t1.032-.444q.432-.444.432-1.212M5.715 23.576l.276-.048 1.02.3c-.564 4.824-2.364 7.716-5.052 9.084-.24-.348-.84-.948-1.188-1.2 1.332-.612 2.4-1.524 3.18-2.808a30 30 0 0 0-1.548-1.296l.864-.972c.372.276.876.648 1.308.996.324-.792.564-1.692.732-2.7H3.495c-.42 1.188-.96 2.256-1.56 3.048-.252-.24-.876-.696-1.2-.912 1.044-1.2 1.752-3.18 2.124-5.244l1.44.252a27 27 0 0 1-.36 1.5zm6.432 4.584-1.212.972c-.396-.588-1.2-1.464-1.932-2.244v6.156H7.49V21.836h1.512v3.984l.528-.384c.828.816 2.04 1.992 2.616 2.724zm6.264-1.296h-2.28v1.32h2.28zm-.84 4.608h3.816c.984 0 1.164-.204 1.296-1.344.348.216.972.432 1.368.492-.24 1.692-.72 2.184-2.568 2.184H17.57c-2.208 0-2.856-.432-2.856-2.112V26.18c-.264.252-.528.504-.78.72-.252-.288-.84-.828-1.164-1.08 1.284-.936 2.484-2.46 3.132-4.056l1.476.444c-.18.408-.384.792-.612 1.188h6.336s-.012.42-.024.6c-.108 3.768-.216 5.172-.552 5.64-.24.36-.516.48-.876.54-.324.06-.828.072-1.38.048-.012-.408-.156-.996-.372-1.356.408.036.768.048.972.036.168.012.276-.036.372-.168.192-.252.288-1.272.372-3.996h-5.712c-.228.312-.456.6-.684.876h4.584v3.84H16.13v1.212c0 .696.192.804 1.44.804zM29.367 24.5h1.728c.108-.3.216-.612.312-.936h-2.364v-1.272h6.924v1.272h-2.88a32 32 0 0 1-.492.936h2.772v5.592h-1.464v-4.344H30.77v4.392h-1.404V24.5zm-.444 3.888.18 1.2c-1.416.492-2.904 1.02-4.068 1.416l-.348-1.512c.444-.108.984-.24 1.584-.396v-4.62h-1.38V23.12h3.984v1.356h-1.188v4.236zm4.14-2.172v2.448c0 1.656-.756 3.384-4.128 4.416-.168-.312-.588-.828-.9-1.092 3.192-.804 3.6-2.16 3.6-3.336v-2.436zm-.408 4.896.876-.852c.852.504 2.016 1.248 2.58 1.776l-.948.972c-.528-.54-1.656-1.344-2.508-1.896m6.936-.336h5.556V29.36H39.59zm5.556-4.176H39.59v1.416h5.556zm0-2.724H39.59v1.38h5.556zm-6.996-1.392h8.508v10.428h-1.512v-.744H39.59v.744h-1.44z"/><path fill="#7896FF" d="M196.975 10.384v1.008h4.86v-1.008zm0-1.608v.984h4.86v-.984zm-.888-.648h6.684v3.912h-6.684zm-1.968-3.684h10.644v.792h-10.644zm4.836-1.524h.888v4.836h-.888zm-.516 1.764.744.3q-.396.576-.936 1.128-.54.54-1.176 1.02-.624.468-1.296.852-.66.384-1.32.648-.06-.12-.168-.24l-.216-.264a2 2 0 0 0-.204-.216q.636-.228 1.296-.564.66-.348 1.272-.768a11 11 0 0 0 1.128-.912 6.6 6.6 0 0 0 .876-.984m1.908 0q.36.492.876.96.528.468 1.152.876t1.296.744q.672.324 1.332.528a3 3 0 0 0-.216.216q-.108.132-.216.276-.096.132-.168.252a10 10 0 0 1-1.344-.624 13 13 0 0 1-1.308-.828q-.636-.468-1.188-.996a9 9 0 0 1-.948-1.104zm-6.024 8.076h10.272v.816h-10.272zm14.232-4.5h6.996v5.724h-.9V8.98h-5.232v5.004h-.864zm-2.412-1.584h10.584v.744h-10.584zm.876-1.62h9.012v.72h-9.012zm2.112 4.74h5.892v.636h-5.892zm0 1.476h5.892v.624h-5.892zm-.084 1.512h5.976v.72h-5.976zm6.3-9.768.576.648q-.84.168-1.908.288a44 44 0 0 1-2.256.192q-1.188.072-2.4.12-1.212.036-2.328.036a2 2 0 0 0-.072-.348 2 2 0 0 0-.108-.348q1.092-.012 2.28-.048 1.2-.036 2.352-.108a48 48 0 0 0 2.148-.18 20 20 0 0 0 1.716-.252m-4.92.816.936.204q-.408 1.44-1.056 2.808a11.3 11.3 0 0 1-1.596 2.496 9 9 0 0 1-2.304 1.944 2 2 0 0 0-.168-.228 2 2 0 0 0-.204-.264 6 6 0 0 0-.204-.216 8 8 0 0 0 2.184-1.8 10 10 0 0 0 1.5-2.34q.588-1.272.912-2.604m12.96-.036q-.36.54-.9 1.14-.528.588-1.176 1.176t-1.38 1.128q-.72.54-1.476.984a3 3 0 0 0-.264-.36 2 2 0 0 0-.312-.348 13.6 13.6 0 0 0 2.004-1.356 15.6 15.6 0 0 0 1.752-1.632q.78-.852 1.248-1.632h.912q.468.672 1.08 1.32t1.308 1.236 1.416 1.08q.732.492 1.428.84-.168.168-.324.384a4 4 0 0 0-.276.408q-.684-.408-1.416-.924-.72-.516-1.392-1.092a20 20 0 0 1-1.248-1.188q-.576-.6-.984-1.164m-4.056 6.228h8.184v.804h-8.184zm.54-2.676h7.188v.804h-7.188zm-1.524 5.46h10.236v.816h-10.236zm4.584-5.124h.936v5.58h-.936zm13.704-4.056h3.6v.852h-2.724v9.48h-.876zm-6.396.624h5.736v.804h-5.736zm-.3 3.324h6.204v.816h-6.204zm2.712-4.608h.876v1.764h-.876zm-1.656 2.496.756-.156q.192.444.348.996.156.54.204.924l-.804.204a5.7 5.7 0 0 0-.18-.948 10 10 0 0 0-.324-1.02m3.432-.24.864.204q-.192.528-.408 1.092-.204.552-.396.948l-.732-.204q.12-.276.24-.636.132-.36.24-.732.12-.372.192-.672m-3.372 7.236h3.948v.804h-3.948zm-.312-3.012h4.728v4.464h-.876V10.24h-3.012v3.732h-.84zm9.264-5.82h.168l.156-.036.648.42q-.36.852-.804 1.824a49 49 0 0 1-.864 1.8q.612.564.936 1.08.324.504.456.96t.132.888q0 .564-.144.972a1.23 1.23 0 0 1-.456.612 1.8 1.8 0 0 1-.78.264 5 5 0 0 1-.516.024q-.264 0-.54-.012a3 3 0 0 0-.072-.444q-.06-.252-.18-.444.276.024.516.036.24 0 .42-.012.156-.012.288-.036.132-.036.24-.096a.62.62 0 0 0 .264-.372q.084-.252.084-.588-.012-.564-.336-1.236-.324-.684-1.248-1.476.24-.456.468-.972.228-.528.444-1.044.216-.528.396-.996t.324-.828z"/></svg>