<svg xmlns="http://www.w3.org/2000/svg" width="237" height="85" fill="none"><path fill="#fff" d="M6.524 14.445h16.912v1.876H6.524zm0 5.6H23.1v1.82H6.524zm-.504 5.712h17.164v1.848H6.02zm-.672-11.312H7.42v7.028q0 1.485-.196 3.136a16.6 16.6 0 0 1-.7 3.332 13.2 13.2 0 0 1-1.54 3.192q-.98 1.54-2.576 2.8a8 8 0 0 0-.448-.532 15 15 0 0 0-.532-.56 3 3 0 0 0-.504-.42q1.512-1.148 2.38-2.492a10.6 10.6 0 0 0 1.316-2.8q.449-1.456.588-2.912.14-1.456.14-2.772zm16.968 0h2.072v16.688q0 1.008-.308 1.54-.308.56-1.092.812-.812.224-2.212.28-1.4.084-3.528.084a5 5 0 0 0-.196-.672 6.8 6.8 0 0 0-.616-1.372 93 93 0 0 0 2.184.028q1.035.028 1.82 0h1.092q.476-.028.616-.196.168-.14.168-.532zm-8.708.784h2.016v11.48h-2.016zM9.184 9.685h8.82v1.764h-8.82zm.252-1.736 2.268.42a31 31 0 0 1-2.156 3.388 34 34 0 0 1-2.856 3.416 28 28 0 0 1-3.584 3.108 6 6 0 0 0-.476-.532 5 5 0 0 0-.532-.56 3 3 0 0 0-.532-.392 23 23 0 0 0 3.416-2.8 24.6 24.6 0 0 0 2.632-3.08q1.12-1.568 1.82-2.968m7.84 1.736h.476l.336-.112 1.428.924a18 18 0 0 1-1.148 1.96 35 35 0 0 1-1.344 1.904 21 21 0 0 1-1.372 1.596 5.3 5.3 0 0 0-.728-.532 7 7 0 0 0-.756-.448q.56-.645 1.148-1.512a20 20 0 0 0 1.12-1.764q.533-.897.84-1.624zm16.296 12.32h17.584v1.932H33.572zm7.588-6.272h2.128v7.252H41.16zm-7.7-.756h19.096v10.22h-2.128V16.88H33.46v-1.904zm-1.064 0h2.1V29.34q0 .867.28 1.344.28.476 1.064.672.812.168 2.352.168h11.032q1.344 0 2.044-.308.7-.336.98-1.232.308-.925.448-2.632.42.252 1.008.476.615.195 1.064.308-.224 2.072-.728 3.248-.476 1.147-1.596 1.624-1.092.476-3.192.476h-10.92q-2.268 0-3.556-.336t-1.848-1.26q-.532-.896-.532-2.576zm4.676-5.068h8.792v1.848h-9.716zm.084-1.96 2.324.42a34 34 0 0 1-2.296 3.416 35 35 0 0 1-2.968 3.416 32 32 0 0 1-3.668 3.136 3.6 3.6 0 0 0-.448-.532l-.56-.56a2.2 2.2 0 0 0-.56-.42 27.6 27.6 0 0 0 3.472-2.828 29 29 0 0 0 2.744-3.08q1.204-1.568 1.96-2.968m7.812 1.96h.476l.392-.14 1.456.952q-.56 1.064-1.26 2.184a30 30 0 0 1-1.456 2.128 25 25 0 0 1-1.484 1.764 2.8 2.8 0 0 0-.392-.476 6 6 0 0 0-.476-.476 4.5 4.5 0 0 0-.476-.42q.615-.673 1.232-1.54.615-.896 1.148-1.82a14 14 0 0 0 .84-1.736zm12.544 15.26h25.004v1.764H57.512zm4.704-10.248H79.52v1.512H62.216zm0 3.388h17.388v1.512H62.216zm-.336-6.972h18.788v1.736H61.88zm7.56 1.008h2.016v10.024H69.44zm-.56 10.584h2.1v10.836h-2.1zm-.448 2.884 1.652.812q-1.064 1.092-2.464 2.128a33 33 0 0 1-2.968 1.932 33 33 0 0 1-3.248 1.596 30 30 0 0 1-3.192 1.204q-.252-.392-.644-.924a5 5 0 0 0-.756-.84 42 42 0 0 0 3.22-1.008 31 31 0 0 0 3.192-1.4 35 35 0 0 0 2.912-1.68q1.344-.896 2.296-1.82m3.052-.028q.952.924 2.268 1.82 1.344.867 2.912 1.624a45 45 0 0 0 3.22 1.344q1.652.588 3.22.952-.225.225-.476.532-.252.307-.476.616-.225.308-.392.588a30 30 0 0 1-3.248-1.148 32 32 0 0 1-3.248-1.54 31 31 0 0 1-2.996-1.848 17 17 0 0 1-2.436-2.1zm-.756-17.752 2.352.308a44 44 0 0 1-1.204 2.24 21 21 0 0 1-1.176 1.876l-1.848-.392q.504-.84 1.036-1.988a15 15 0 0 0 .84-2.044m-7.308-.056 2.184.42a39 39 0 0 1-1.876 3.164 31 31 0 0 1-2.436 3.164 24 24 0 0 1-3.024 2.94 5 5 0 0 0-.448-.504 4.5 4.5 0 0 0-.532-.504 3 3 0 0 0-.532-.392 21.4 21.4 0 0 0 2.828-2.66 23.6 23.6 0 0 0 2.24-2.884 22 22 0 0 0 1.596-2.744m-2.548 4.536h2.016v9.24H81.76v1.68H60.872zm30.072 4.676h14.14v1.876h-14.14zm-.504 13.58h15.008v1.876H90.44zm-.952-8.176h17.136V33.82h-2.128v-9.324H91.56v9.324h-2.072zm8.456-12.432q-1.148 1.708-2.996 3.528a38 38 0 0 1-4.06 3.5 35 35 0 0 1-4.62 2.968 9 9 0 0 0-.364-.532q-.225-.308-.476-.616a4 4 0 0 0-.476-.504 31 31 0 0 0 4.732-2.996A33 33 0 0 0 93.8 11.84q1.848-1.932 2.94-3.752h2.156a27 27 0 0 0 2.548 3.052q1.456 1.484 3.08 2.8a40 40 0 0 0 3.36 2.408 28.5 28.5 0 0 0 3.388 1.792 9 9 0 0 0-.728.896q-.364.504-.672.98A43 43 0 0 1 106.54 18a45 45 0 0 1-3.276-2.408 42 42 0 0 1-2.968-2.688 25 25 0 0 1-2.352-2.744zM12.432 73.553l-4.648-7.98h-3.08v7.98H2.156V54.037h6.3q2.212 0 3.724.756 1.54.756 2.296 2.044.756 1.287.756 2.94 0 2.017-1.176 3.556-1.148 1.54-3.472 2.044l4.9 8.176zM4.704 63.529h3.752q2.072 0 3.108-1.008 1.035-1.035 1.036-2.744 0-1.735-1.036-2.688-1.008-.952-3.108-.952H4.704zm21.18 10.276q-2.157 0-3.92-.98-1.737-.981-2.745-2.772-.98-1.82-.98-4.2 0-2.353 1.008-4.144 1.035-1.821 2.8-2.772 1.764-.98 3.948-.98c2.184 0 2.772.326 3.948.98q1.764.953 2.772 2.744 1.035 1.792 1.036 4.172 0 2.38-1.064 4.2a7.2 7.2 0 0 1-2.828 2.772q-1.792.98-3.976.98zm0-2.24a5.4 5.4 0 0 0 2.575-.644q1.204-.645 1.932-1.932.756-1.288.756-3.136t-.728-3.136-1.904-1.904a5.2 5.2 0 0 0-2.548-.644 5.3 5.3 0 0 0-2.576.644q-1.148.615-1.848 1.904-.7 1.287-.7 3.136 0 1.875.672 3.164.7 1.288 1.848 1.932a5.25 5.25 0 0 0 2.52.616zm13.765-18.732v20.72h-2.548v-20.72zm18.343 12.46q0 .727-.084 1.54H45.644q.14 2.268 1.54 3.556 1.428 1.26 3.444 1.26 1.652 0 2.744-.756a4.12 4.12 0 0 0 1.568-2.072h2.744q-.615 2.212-2.464 3.612-1.848 1.371-4.592 1.372-2.184 0-3.92-.98-1.709-.981-2.688-2.772-.98-1.82-.98-4.2t.952-4.172q.952-1.793 2.66-2.744 1.736-.98 3.976-.98 2.184 0 3.864.952a6.47 6.47 0 0 1 2.576 2.632q.924 1.652.924 3.752m-2.632-.532q0-1.455-.644-2.492a4.05 4.05 0 0 0-1.764-1.596q-1.092-.56-2.436-.56-1.932 0-3.304 1.232-1.344 1.232-1.54 3.416zm12.508-.98q0-2.856 1.288-5.124 1.288-2.295 3.5-3.584 2.24-1.288 4.956-1.288 3.192 0 5.572 1.54 2.38 1.539 3.472 4.368h-3.052q-.811-1.764-2.352-2.716-1.512-.952-3.64-.952-2.044 0-3.668.952t-2.548 2.716q-.924 1.736-.924 4.088 0 2.325.924 4.088.924 1.735 2.548 2.688 1.624.952 3.668.952 2.128 0 3.64-.924 1.54-.952 2.352-2.716h3.052q-1.092 2.8-3.472 4.34-2.38 1.512-5.572 1.512-2.716 0-4.956-1.26a9.4 9.4 0 0 1-3.5-3.556q-1.288-2.268-1.288-5.124m29.273 10.024q-2.156 0-3.92-.98-1.736-.981-2.744-2.772-.98-1.82-.98-4.2 0-2.353 1.008-4.144 1.035-1.821 2.8-2.772 1.764-.98 3.948-.98c2.184 0 2.772.326 3.948.98q1.764.953 2.772 2.744 1.036 1.792 1.036 4.172t-1.064 4.2a7.2 7.2 0 0 1-2.828 2.772q-1.792.98-3.976.98m0-2.24a5.4 5.4 0 0 0 2.576-.644q1.205-.645 1.932-1.932.756-1.288.756-3.136t-.728-3.136c-.728-1.288-1.12-1.493-1.904-1.904a5.2 5.2 0 0 0-2.548-.644 5.3 5.3 0 0 0-2.576.644q-1.147.615-1.848 1.904-.7 1.287-.7 3.136 0 1.875.672 3.164.7 1.288 1.848 1.932a5.25 5.25 0 0 0 2.52.616m13.766-18.732v20.72h-2.548v-20.72zm6.891 0v20.72h-2.548v-20.72zm18.342 12.46q0 .727-.084 1.54h-12.264q.14 2.268 1.54 3.556 1.428 1.26 3.444 1.26 1.652 0 2.744-.756a4.12 4.12 0 0 0 1.568-2.072h2.744q-.615 2.212-2.464 3.612-1.847 1.371-4.592 1.372-2.183 0-3.92-.98-1.707-.981-2.688-2.772-.98-1.82-.98-4.2t.952-4.172q.953-1.793 2.66-2.744 1.737-.98 3.976-.98 2.184 0 3.864.952a6.47 6.47 0 0 1 2.576 2.632q.924 1.652.924 3.752m-2.632-.532q0-1.455-.644-2.492a4.05 4.05 0 0 0-1.764-1.596q-1.092-.56-2.436-.56-1.932 0-3.304 1.232-1.344 1.232-1.54 3.416zm5.044 1.092q0-2.38.952-4.144.951-1.792 2.632-2.772 1.708-.98 3.892-.98 2.827 0 4.648 1.372 1.848 1.372 2.436 3.808h-2.744q-.393-1.4-1.54-2.212-1.12-.812-2.8-.812-2.184 0-3.528 1.512-1.344 1.484-1.344 4.228 0 2.772 1.344 4.284t3.528 1.512q1.68 0 2.8-.784 1.12-.785 1.54-2.24h2.744q-.616 2.352-2.464 3.78-1.848 1.4-4.62 1.4-2.184 0-3.892-.98-1.68-.981-2.632-2.772-.952-1.792-.952-4.2m21.067-5.544v9.044q0 1.12.476 1.596.477.448 1.652.448h1.876v2.156h-2.296q-2.127 0-3.192-.98-1.064-.98-1.064-3.22v-9.044h-1.988v-2.1h1.988v-3.864h2.548v3.864h4.004v2.1zm8.408-4.592q-.728 0-1.232-.504a1.68 1.68 0 0 1-.504-1.232q0-.728.504-1.232a1.68 1.68 0 0 1 1.232-.504q.699 0 1.176.504.504.504.504 1.232t-.504 1.232q-.477.504-1.176.504m1.232 2.492v15.344h-2.548V58.209zm11.034 15.596q-2.156 0-3.92-.98-1.736-.981-2.744-2.772-.98-1.82-.98-4.2 0-2.353 1.008-4.144 1.036-1.821 2.8-2.772 1.764-.98 3.948-.98c2.184 0 2.772.326 3.948.98q1.764.953 2.772 2.744 1.036 1.792 1.036 4.172t-1.064 4.2a7.2 7.2 0 0 1-2.828 2.772q-1.791.98-3.976.98m0-2.24q1.373 0 2.576-.644 1.204-.645 1.932-1.932.756-1.288.756-3.136t-.728-3.136-1.904-1.904a5.2 5.2 0 0 0-2.548-.644 5.3 5.3 0 0 0-2.576.644q-1.147.615-1.848 1.904-.7 1.287-.7 3.136 0 1.875.672 3.164.7 1.288 1.848 1.932a5.25 5.25 0 0 0 2.52.616m18.694-13.636q2.8 0 4.536 1.708 1.736 1.68 1.736 4.872v9.044h-2.52v-8.68q0-2.296-1.148-3.5-1.147-1.233-3.136-1.232-2.016 0-3.22 1.26-1.176 1.26-1.176 3.668v8.484h-2.548V58.209h2.548v2.184a5.1 5.1 0 0 1 2.044-1.82q1.317-.645 2.884-.644"/></svg>