<svg xmlns="http://www.w3.org/2000/svg" width="56" height="72" fill="none" viewBox="0 0 56 72"><path fill="#fff" d="M8.688 58.112q0 1.392-.96 2.32-.945.912-2.896.912H2.688V66H1.232V54.848h3.6q1.888 0 2.864.912.992.912.992 2.352m-3.856 2.032q1.215 0 1.792-.528.576-.528.576-1.504 0-2.064-2.368-2.064H2.688v4.096zm7.122-1.488q.383-.751 1.088-1.168.72-.416 1.744-.416v1.504h-.384q-2.448 0-2.448 2.656V66h-1.456v-8.768h1.456zm8.336 7.488a4.53 4.53 0 0 1-2.24-.56A4.07 4.07 0 0 1 16.482 64q-.56-1.04-.56-2.4 0-1.344.576-2.368a4 4 0 0 1 1.6-1.584q1.008-.56 2.256-.56t2.256.56q1.008.544 1.584 1.568.592 1.024.592 2.384t-.608 2.4a4.1 4.1 0 0 1-1.616 1.584q-1.024.56-2.272.56m0-1.28q.785 0 1.472-.368a2.75 2.75 0 0 0 1.104-1.104q.432-.735.432-1.792t-.416-1.792-1.088-1.088a3 3 0 0 0-1.456-.368q-.8 0-1.472.368-.656.352-1.056 1.088t-.4 1.792q0 1.072.384 1.808.4.736 1.056 1.104.657.352 1.44.352m7.195-9.056a.96.96 0 0 1-.704-.288 1 1 0 0 1-.272-.704q0-.416.272-.704a.96.96 0 0 1 .704-.288q.415 0 .688.288a.96.96 0 0 1 .288.704.96.96 0 0 1-.288.704.9.9 0 0 1-.688.288m.72 12.096q0 1.169-.592 1.712-.592.544-1.728.544h-.848v-1.232h.608q.608 0 .848-.24.255-.24.256-.816v-10.64h1.456zM38.67 61.28q0 .415-.049.88h-7.008q.08 1.296.88 2.032.816.72 1.968.72.945 0 1.569-.432.64-.448.895-1.184h1.569a3.8 3.8 0 0 1-1.408 2.064q-1.057.784-2.624.784-1.25 0-2.24-.56A4 4 0 0 1 30.685 64q-.56-1.04-.56-2.4t.544-2.384a3.8 3.8 0 0 1 1.52-1.568q.993-.56 2.273-.56 1.247 0 2.207.544a3.7 3.7 0 0 1 1.473 1.504q.527.944.527 2.144m-1.505-.304q0-.833-.367-1.424a2.3 2.3 0 0 0-1.009-.912 3 3 0 0 0-1.392-.32q-1.104 0-1.887.704-.769.704-.88 1.952zm2.882.624q0-1.36.544-2.368a3.9 3.9 0 0 1 1.504-1.584q.976-.56 2.224-.56 1.617 0 2.656.784 1.056.784 1.392 2.176H46.8a2.24 2.24 0 0 0-.88-1.264q-.64-.464-1.6-.464-1.248 0-2.016.864-.768.847-.768 2.416 0 1.584.768 2.448t2.016.864q.96 0 1.6-.448t.88-1.28h1.568q-.352 1.344-1.408 2.16-1.056.8-2.64.8-1.248 0-2.224-.56A3.9 3.9 0 0 1 40.591 64q-.544-1.024-.544-2.4m12.04-3.168V63.6q0 .64.271.912.272.255.944.256h1.072V66h-1.312q-1.215 0-1.824-.56-.608-.56-.608-1.84v-5.168h-1.136v-1.2h1.136v-2.208h1.456v2.208h2.288v1.2z"/><path fill="#D9D9D9" d="M25.365 25.305 8.394 42.276 6.508 40.39l16.97-16.97z"/><path fill="#D9D9D9" d="M25.365 25.305 8.394 42.276 6.508 40.39l16.97-16.97zm5.27 0 16.97 16.971 1.886-1.886-16.97-16.97zm-7.155-6.382L6.508 1.953 8.394.067l16.97 16.97z"/><path fill="#D9D9D9" d="M23.48 18.923 6.508 1.953 8.394.067l16.97 16.97zm9.04 0 16.971-16.97L47.606.067l-16.97 16.97z"/></svg>