<svg xmlns="http://www.w3.org/2000/svg" width="240" height="246" fill="none" viewBox="0 0 240 246"><path fill="url(#a)" d="M133.19 118.272c4.675 1.333 9.022 2.572 13.372 3.814l-.024.43c-4.254 1.197-8.51 2.392-13.026 3.663.429.549.649.92.952 1.209 3.391 3.257 6.861 6.44 10.153 9.794.969.989 2.027 1.87 2.994 2.854 1.053 1.073 1.924 2.236 1.973 3.809.027.927.436 1.073 1.287.907.421-.081 1.056.109 1.363.411 1.502 1.472 2.999 2.958 4.358 4.561 2.017 2.381 4.37 4.444 6.358 6.85 1.145 1.385 1.177 1.358.121 2.815.429.287.855.569 1.319.875.025-.509.042-.9.062-1.291.416.193.947.28 1.232.594 2.915 3.2 5.872 6.368 8.66 9.677 4.834 5.736 9.559 11.565 14.328 17.355.079.096.213.173.24.279.087.356.136.722.201 1.086-.317-.102-.702-.121-.94-.317-1.623-1.335-3.219-2.708-4.821-4.071-3.207-2.723-6.41-5.453-9.62-8.171a425 425 0 0 0-4.129-3.44c-1.041-.858-1.27-1.306-1.267-2.901-.558 1.256-1.036.665-1.547.222-4.023-3.479-8.046-6.964-12.081-10.432-7.233-6.22-14.499-12.405-21.699-18.66-1.805-1.565-3.419-3.348-5.126-5.025-.348-.341-.722-.656-1.27-1.153-1.913 4.457-2.845 9.042-4.169 13.492q-.204.01-.409.024l-3.968-13.511c-20.864 20.003-43.188 37.79-64.966 56.223 18.06-22.313 36.97-43.842 57.661-63.776l-.057-.437q-6.54-1.777-13.083-3.557v-.366c4.362-1.227 8.727-2.453 13.507-3.799-20.592-19.76-39.495-40.495-57.114-62.462.868.668 1.748 1.323 2.603 2.006 2.905 2.312 5.833 4.597 8.696 6.964 3.916 3.237 7.785 6.53 11.665 9.814 2.55 2.159 5.11 4.305 7.607 6.526 3.193 2.842 6.326 5.748 9.481 8.63.553.504 1.165 1.02.085 1.743.562 0 1.13-.042 1.685.015.397.04.868.106 1.153.343 2.203 1.833 4.367 3.71 6.546 5.57 1.748 1.494 1.676 1.964-.679 2.837l1.983.222.704-1.16c4.305 3.675 8.21 7.64 12.342 11.763 1.849-4.412 2.811-8.852 4.072-13.187l.399-.03c1.302 4.269 2.601 8.538 3.986 13.086.682-.559 1.101-.854 1.465-1.207 2.93-2.839 5.845-5.698 8.782-8.53.31-.297.749-.458 1.121-.693.32-.202.672-.376.937-.635 1.142-1.116 2.169-2.365 3.403-3.361 1.539-1.242 3.272-1.13 5.059-.104l.679-1.232h-3.983c.585-.65.89-1.066 1.267-1.397q3.722-3.262 7.471-6.49c2.211-1.904 4.434-3.794 6.655-5.686 1.014-.863 1.857-.4 2.494 1.309q.09-.545.176-1.088c.069-.44.163-.879.193-1.321.191-2.822 2.692-3.819 4.422-5.283 7.226-6.111 14.588-12.06 21.9-18.069.555-.455 1.101-.925 1.649-1.387l.228.235c-.578.69-1.158 1.377-1.731 2.072-1.888 2.29-3.742 4.61-5.664 6.87a680 680 0 0 1-8.802 10.173c-.5.566-1.264.902-1.918 1.353-.114.37-.134 1.001-.454 1.377-1.222 1.442-2.575 2.775-3.817 4.2-1.812 2.077-3.547 4.219-5.354 6.301-8.145 9.388-16.836 18.247-26.002 26.644-1.051.964-2.048 1.988-3.339 3.247zm-10.793-7.941h-.159c-.022.148-.049.297-.069.445-.397 3.059-.761 6.124-1.225 9.175-.066.443-.53 1.079-.922 1.178-1.234.304-2.516.428-3.787.561-1.738.186-3.483.317-5.223.47.478.331.952.443 1.433.514 2.285.334 4.566.713 6.861.96 1.167.126 1.666.673 1.772 1.783.176 1.843.404 3.678.615 5.515.107.925.226 1.85.337 2.773l.345-.032c.084-.352.203-.7.245-1.056.285-2.409.568-4.821.826-7.234.091-.846.307-1.516 1.311-1.653 1.918-.254 3.834-.551 5.748-.835 1.103-.164 2.206-.337 3.307-.505-.702-.304-1.391-.386-2.082-.453-1.887-.18-3.786-.291-5.662-.549-2.362-.324-2.355-.376-2.65-2.762l-1.028-8.298zm-13.264-1.247-.32.327c2.826 3.002 5.506 6.156 8.983 8.592.018-.537-.039-1.094-.349-1.38-2.747-2.54-5.535-5.033-8.314-7.539m26.451.342-.292-.339c-2.742 2.458-5.496 4.904-8.21 7.395-.28.257-.317.779-.466 1.177q.212.13.421.262c3.161-2.513 5.793-5.567 8.547-8.498zm-26.389 25.451q.187.212.369.425c2.583-2.433 5.176-4.859 7.737-7.318.27-.259.354-.709.525-1.073q-.171-.118-.342-.24c-3.237 2.253-5.599 5.394-8.289 8.206m25.581-.074c-2.31-2.963-4.71-5.834-7.781-8.026l-.449.455c2.127 3.149 5.305 5.231 8.23 7.571"/><path fill="url(#b)" d="M121.896 245.331c-.193-1.286-.359-2.579-.58-3.86-.892-5.189-1.807-10.375-2.704-15.564-.419-2.428-.784-4.867-1.237-7.288-.181-.962-.104-1.595 1.232-1.529-1.396-.168-1.706-1.13-1.839-2.119-.32-2.357-.506-4.731-.858-7.083-.149-.992-.699-1.922-.873-2.914-1.269-7.259-2.488-14.527-3.725-21.793-.469-2.755-.84-5.53-1.428-8.261-.513-2.391-1.118-4.785-1.953-7.08-.87-2.39-2.722-4.091-4.772-5.55-1.527-1.086-1.601-1.403-.788-3.057 3.587-7.306 7.548-14.387 12.649-20.775.436-.546.907-1.068 1.376-1.59.069-.079.21-.094.676-.289-2.084 5.48-4.032 10.75-2.88 16.609.374-.076.565-.098.741-.158.184-.062.355-.163.64-.297 2.112 14.444 4.211 28.788 6.311 43.133l.617.009 6.365-42.845c1.463.139 1.589.027 1.728-1.499.404-4.427-.701-8.586-2.27-12.66-.209-.539-.432-1.071-.633-1.61-.039-.104-.004-.235-.004-.67.555.497.998.806 1.331 1.209 3.911 4.722 7.2 9.851 10.029 15.28 1.219 2.339 2.409 4.691 3.631 7.031.407.776.397 1.385-.456 1.86-4.333 2.409-6.303 6.363-7.129 11.023a18090 18090 0 0 0-6.194 35.185c-.86 4.912-1.688 9.829-2.549 14.741-1.251 7.127-2.518 14.255-3.782 21.38-.062.346-.176.685-.265 1.027l-.402.009zm8.066-86.254-.468-.012c-.1.499-.214.999-.293 1.501-1.105 7.039-2.179 14.082-3.317 21.116-.954 5.896-1.978 11.78-2.991 17.666-.1.576-.355 1.123-.538 1.684q-.282-.034-.563-.064c-2.625-13.877-4.749-27.841-6.97-41.839-.28.574-.469 1.177-.392 1.744.218 1.632.583 3.242.823 4.872a16757 16757 0 0 1 5.669 38.495c.29 1.993.786 4.043.575 6-.213 1.961.825 3.566.783 5.413.352-2.26.439-4.521.717-6.756.637-5.145 1.304-10.289 2.074-15.413 1.622-10.793 3.322-21.574 4.963-32.364.102-.663-.042-1.363-.072-2.048z"/><path fill="url(#c)" d="M127.421 108.281c2.174-5.206 4.024-10.462 2.834-16.346-.523.13-.905.22-1.5.367a201428 201428 0 0 0-6.281-41.802l-.516-.013-6.164 41.852c-.533-.171-.905-.287-1.507-.48-1.441 5.91.689 11.181 2.701 16.469l-.599.428c-.147-.342-.226-.735-.447-1.015a105 105 0 0 1-11.992-18.855 81 81 0 0 0-1.824-3.512c-.496-.893-.327-1.45.56-2.025 3.507-2.283 5.85-5.417 6.641-9.582.589-3.106 1.152-6.22 1.702-9.333.846-4.783 1.661-9.571 2.511-14.352.323-1.81.697-3.61 1.056-5.414.057-.28.09-.722.263-.799 1.433-.628.704-1.684.682-2.686-.057-2.601.272-5.149 1.851-7.362.139-.193.241-.413.511-.888l-1.383.423L121.899.329c1.098 1.373 2.387 10.543 1.928 11.75.375.804.823 1.412.942 2.08.66 3.685 1.227 7.39 1.852 11.082.508 3.003 1.056 6 1.579 9 .203 1.175.384 2.352.57 3.53.771 4.832 1.485 9.677 2.323 14.5 1.241 7.135 2.511 14.267 3.886 21.38.811 4.18 3.262 7.328 6.819 9.616.806.52 1.012.997.563 1.912-2.756 5.634-5.592 11.225-9.204 16.375-1.536 2.191-3.237 4.271-4.873 6.393-.141.183-.349.311-.528.467l-.344-.136zm-5.106-77.433-.396.022c-.176 2.577-.226 5.172-.556 7.732a1412 1412 0 0 1-3.286 23.99c-1.089 7.416-2.323 14.814-3.461 22.223-.082.54.092 1.116.146 1.675q.188-.001.375-.005c.096-.337.23-.666.282-1.007.682-4.481 1.317-8.968 2.03-13.442a5067 5067 0 0 1 4.098-25.127c.084-.515.325-1.002.493-1.501l.486.042c2.645 13.615 4.603 27.348 7.059 41.04.29-.634.422-1.28.325-1.89-.743-4.68-1.594-9.341-2.29-14.025-.987-6.638-1.872-13.294-2.791-19.942-.578-4.157-1.163-8.314-1.703-12.477-.315-2.428-.546-4.867-.813-7.303zm-2.734 6.099c-2.605.61-1.361 3.314-3.024 4.249l.454.264c.815-1.434 1.633-2.868 2.57-4.513m-2.213 7.07q-.198-.212-.394-.425l-1.666 1.45q.164.189.324.378z"/><path fill="url(#d)" d="m90.773 114.065 1.192 1.769c-14.456 2.258-28.69 4.429-42.954 6.375q-.016.16-.028.317c14.191 2.162 28.382 4.321 42.754 6.509l-.838 1.628c.803.146 1.488.371 2.174.378 4.18.045 8.041-1.276 11.836-2.844 1.079-.445 2.147-.913 3.22-1.373l.233.366c-.897.799-1.777 1.62-2.694 2.397-5.625 4.758-11.6 9-18.137 12.44-2.026 1.066-2.157 1.029-3.416-.878-1.881-2.852-4.526-4.652-7.87-5.347-4.07-.846-8.148-1.669-12.243-2.387-6.66-1.167-13.34-2.22-20.006-3.363-4.799-.824-9.583-1.726-14.377-2.57a3157 3157 0 0 0-15.596-2.708c-3.9-.665-7.803-1.296-11.705-1.954-.478-.081-.944-.235-1.415-.353l-.03-.354c1.25-.22 2.496-.45 3.745-.66 3.002-.505 6.009-.992 9.01-1.506 2.762-.473 5.511-1.019 8.28-1.43.696-.104 1.452.186 2.124.284.53-.279 1.1-.754 1.74-.882 2.87-.572 5.756-1.091 8.649-1.536 1.603-.248 3.314-.047 4.84-.5 5.196-1.536 10.57-2.025 15.87-2.955 4.952-.868 9.915-1.69 14.862-2.587a93 93 0 0 0 6.525-1.422c3.363-.866 5.785-3.057 7.746-5.81 1.09-1.531 1.088-1.585 2.724-.7 7.25 3.92 14.044 8.508 20.271 13.912a8 8 0 0 1 .778.791c.07.079.067.22.174.606-5.612-2.216-10.988-4.85-17.443-3.655zm-4.075 1.264v-.396c-.449-.037-.91-.16-1.344-.096-8.898 1.326-17.79 2.706-26.693 4.007-4.856.707-9.727 1.315-14.598 1.916-4.204.52-8.418.967-12.63 1.445.42.296.846.408 1.282.465 6.668.853 13.35 1.602 20.001 2.564 10.865 1.573 21.71 3.285 32.566 4.919.454.07.937-.071 1.408-.113l-.017-.451c-7.074-1.122-14.154-2.203-21.218-3.378-7.055-1.172-14.166-2.035-21.154-3.569v-.648l42.4-6.667z"/><path fill="url(#e)" d="M201.955 116.806q-.743-.83-1.487-1.657l.203-.371c1.245.428 2.489.855 4.073 1.397q.703-.243 1.881 1.271c-.238-1.358.504-1.293 1.247-1.081 1.22.347 2.407.822 3.639 1.116.704.168 1.47.072 2.206.111.409.022.821.064 1.225.131 4.523.747 9.052 1.469 13.566 2.263 3.572.628 7.131 1.341 10.693 2.026.228.044.441.173.672.539-1.272.215-2.546.415-3.812.648-2.273.42-4.536.898-6.819 1.261-.546.087-1.151-.185-1.718-.292-.548.282-1.197.821-1.924.96-6.405 1.214-12.825 2.367-19.242 3.519-4.631.831-9.278 1.581-13.899 2.463a2124 2124 0 0 0-24.522 4.836c-3.344.68-5.696 2.873-7.642 5.532-1.232 1.684-1.326 1.719-3.181.72-7.304-3.938-13.935-8.83-20.271-14.149-.31-.26-.739-.379-1.113-.562l.444-.578c.426.138.872.237 1.276.425 3.535 1.647 7.181 2.963 11.051 3.554 1.175.178 2.387.146 3.579.126.456-.007.907-.245 1.463-.408l-.93-1.489c14.293-2.288 28.404-4.573 42.575-6.502q0-.172-.005-.344l-42.664-6.375 1.135-1.791c-.649-.134-1.165-.297-1.688-.336-4.192-.307-8.086.922-11.933 2.361-1.249.468-2.478.997-3.715 1.499l-.228-.321c.602-.577 1.172-1.19 1.809-1.727 5.924-4.995 12.357-9.234 19.235-12.806 1.862-.967 1.921-.895 3.208.779 1.899 2.479 4.167 4.455 7.374 5.073 4.655.895 9.298 1.842 13.958 2.71 5.716 1.066 11.447 2.056 17.158 3.134.486.091.949.539 1.321.92.531.542.967 1.175 1.445 1.768l.355-.351zm11.013 5.384c-.981-.141-2.119-.327-3.264-.465-7.989-.957-15.996-1.793-23.965-2.889-8.837-1.212-17.639-2.663-26.458-3.994-.508-.077-1.039-.01-1.557-.01l-.01.386c.218.079.432.193.657.23 6.445 1.016 12.892 2.006 19.335 3.039 6.891 1.106 13.774 2.251 20.658 3.394.426.071.828.291 1.239.442l-.035.507-41.854 6.834.07.442c18.444-2.646 36.891-5.295 55.184-7.919zm-4.843-4.294-.416.423c.592.507.679 1.534 1.588 1.712l.303-.312-1.475-1.82z"/><path fill="url(#f)" d="m81.708 142.465.553-.856c.354.304.77.559 1.05.92 2.366 3.074 1.657 2.723 4.678 1.022 1.87-1.052 3.679-2.209 5.523-3.302a3.8 3.8 0 0 1 1.467-.529c-1.395 2.067-2.972 3.927-5.088 5.235-3.543 2.189-7.45 3.527-11.423 4.68-5.7 1.652-11.52 2.544-17.467 2.453-5.05-.079-10-.73-14.357-3.529-4.544-2.919-7.358-6.92-7.27-12.539.007-.443.178-.881.274-1.321l.387-.027c.114.341.303.677.33 1.026.31 3.876 2.4 6.5 5.832 8.095 4.92 2.288 10.106 2.683 15.386 1.761 6.242-1.088 12.37-2.6 17.978-5.693.759-.418 1.381-.349 1.763.427.406.829-.347 1.089-.863 1.356-4.28 2.221-8.869 3.536-13.566 4.528-.749.158-1.49.346-2.233.522q.045.18.089.366c2.598-.606 5.23-1.096 7.783-1.852 2.447-.725 4.802-1.759 7.218-2.587.553-.191 1.2-.102 1.956-.151z"/><path fill="url(#g)" d="M82.447 55.49c.198.396.327.856.61 1.178 2.875 3.264 6.065 6.18 9.754 8.522 1.985 1.262 4.047 1.517 6.253.544.62-.271 1.361-.257 2.023-.454.523-.156.992-.495 1.515-.651 2.012-.603 4.025-1.204 6.06-1.729.781-.2 1.197.3 1.083 1.069-.23 1.548-.458 3.104-.842 4.615-.117.457-.682.932-1.158 1.145a57 57 0 0 1-4.945 1.963c-.459.156-1.051-.084-1.512-.136-.59.666-1.341 1.277-1.767 2.06-.4.738-.796 1.754-.59 2.479.43 1.523 1.241 2.943 1.928 4.392.263.556.736 1.07.065 1.642-.652.554-1.314.609-2.018.062a132 132 0 0 0-3.642-2.77c-2.07-1.501-3.948-1.382-5.82.324-2.166 1.976-2.285 1.996-4.422.02-.657-.606-1.19-1.346-1.777-2.023-.08-.092-.134-.257-.223-.277-1.896-.381-.627-1.217-.154-1.675.823-.796 1.802-1.437 2.727-2.129 1.663-1.244 2.627-2.787 1.889-4.907-.865-2.483-1.758-4.96-2.774-7.385-.635-1.508-1.52-2.913-2.29-4.365q-.27-.507-.536-1.019l.565-.492z"/><path fill="url(#h)" d="M161.247 101.516c-.469-.23-1.039-.358-1.386-.709-.548-.549-1.029-.552-1.646-.206q-3.721 2.093-7.459 4.155c-.399.22-.835.376-1.39.379 1.504-1.744 2.875-3.579 4.888-4.759 9.977-5.839 20.799-7.832 32.182-6.57 5.919.654 11.283 2.922 15.239 7.654 2.189 2.616 3.686 5.569 3.552 9.111-.017.447-.171.888-.26 1.333l-.372.027c-.109-.307-.292-.606-.317-.92-.426-5.053-3.376-8.08-7.942-9.717-4.965-1.78-10.104-2.083-15.272-1.239-5.75.94-11.444 2.146-16.734 4.758-.342.168-.87-.039-1.311-.072.273-.375.468-.967.83-1.095 3.763-1.343 7.551-2.612 11.333-3.898.298-.101.61-.166.9-.433-.285 0-.59-.062-.855.01-2.625.717-5.26 1.405-7.858 2.214-1.274.395-2.476 1.026-3.706 1.558-1.589.687-1.903.499-2.094-1.269-.023-.198-.06-.393-.089-.591q-.114.135-.226.272zm19.869-2.822-.015-.319-3.641.527.05.33 3.609-.54z"/><path fill="url(#i)" d="M161.348 189.727c-2.213-2.072-4.36-4.224-6.665-6.19-1.396-1.19-2.985-2.184-4.581-3.102-1.254-.722-2.615-.425-3.951.042-3.267 1.141-6.546 2.256-9.848 3.292-1.636.515-2.03.099-1.753-1.622.204-1.259.509-2.505.665-3.769.114-.94.57-1.499 1.427-1.813 1.666-.608 3.322-1.244 4.993-1.845 3.857-1.388 4.799-3.727 3.029-7.422a25 25 0 0 1-1.282-3.284c-.087-.28.149-.834.407-1.002.307-.2.907-.299 1.187-.129.548.334 1.081.819 1.406 1.366.56.944 1.341 1.501 2.218 2.149 1.867 1.377 3.567 1.251 5.421.292 1.958-1.012 1.943-1.019 3.324.63.9 1.074 1.792 2.154 2.744 3.181.612.66.506 1.125-.176 1.607a57 57 0 0 0-2.389 1.754c-1.245.977-1.711 2.332-1.156 3.752 1.371 3.516 2.896 6.974 4.378 10.449.23.541.558 1.038.84 1.558l-.238.104z"/><path fill="url(#j)" d="M102.527 181.566c.298-1.051.243-1.717-1.108-1.702-.515.005-1.038-.69-1.569-1.073-1.923 1.014-4.29.4-5.72-1.459-.164-.213-.516-.302-.799-.394-.707-.232-1.54-.269-2.114-.677-2.886-2.046-5.756-4.123-8.527-6.317-1.428-1.13-1.339-1.474.158-2.594.513-.386 1.168-.576 1.73-.903.325-.19.737-.418.863-.727.347-.848.796-.653 1.341-.272q1.065.743 2.137 1.474c.783.534 1.609 1.054.458 2.246 2.333-1.051 3.62.625 4.859 1.756.872.796 1.638 1.157 2.751 1.521 3.83 1.251 7.546 2.856 11.281 4.385.382.155.803.665.87 1.068.273 1.632.439 3.284.56 4.936.01.129-.716.515-.976.423-1.515-.529-3.334-.138-4.584-1.55-.228-.258-.929-.094-1.606-.136z"/><path fill="url(#k)" d="M142.309 68.569c.057-.19.124-.376.171-.569.518-2.169 1.408-2.446 3.202-1.162.697.5 1.634.653 2.425 1.038 1.405.688 2.86 1.316 4.157 2.177 2.917 1.934 5.753 3.989 8.616 6.005.954.672 1.046 1.385.067 2.146-.846.656-1.644 1.373-2.499 2.014-.605.452-1.123.284-1.775-.154-4.623-3.104-9.305-6.114-14.523-8.159-1.229-.482-2.501-.856-3.723-1.35-.424-.17-.749-.577-1.143-.834-.21-.138-.55-.336-.704-.257-.919.475-1.145-.22-1.276-.796a57 57 0 0 1-.865-4.731c-.032-.23.585-.812.741-.76 1.795.604 3.559 1.296 5.329 1.976.146.057.248.24.397.287 1.403.45 1.78 1.328 1.17 2.661-.057.127-.008.305-.008.458l.241.012z"/><path fill="url(#l)" d="M180.338 134.608c1.165-.043 1.021.677.85 1.261-.793 2.686-1.574 5.376-2.486 8.023-.577 1.669-1.267 3.324-2.104 4.877-1.676 3.099-3.481 6.131-5.258 9.175-.223.384-.558.72-.897 1.014-1.589 1.393-3.007.982-3.783-1.036-.109-.282-.461-.532-.761-.668-.924-.418-1.028-1.061-.471-1.78 1.002-1.294 2.082-2.523 3.111-3.794.228-.282.431-.601.573-.935.999-2.347 1.851-4.768 3.016-7.029.528-1.026 1.198-1.761 1.096-3.126-.092-1.271.644-2.604 1.021-3.907.243-.844.786-1.277 1.686-1.39 1.512-.188 3.014-.465 4.405-.688z"/><path fill="url(#m)" d="M76.793 85.31c-.682 1.128.086 1.33.815 1.75.788.456 1.46 1.153 2.077 1.838.144.159-.042.79-.255 1.061-2.754 3.487-4.816 7.373-6.556 11.429a64 64 0 0 0-2.194 5.963c-.397 1.259-1.016 1.956-2.407 2.03-1.06.057-2.104.391-3.163.562-1.534.247-1.918-.171-1.398-1.697 1.049-3.072 2.04-6.176 3.307-9.158 1.869-4.405 4.214-8.57 7.144-12.378 1.08-1.405 1.393-1.583 2.627-1.398z"/><path fill="url(#n)" d="M63.21 135.528c.443-.258.847-.698 1.201-.661a48 48 0 0 1 4.757.762c.367.077.823.485.942.838a71 71 0 0 1 1.582 5.318c.059.235-.372.789-.675.888a49 49 0 0 1-4.407 1.206c-.327.075-1.004-.163-1.076-.395-.8-2.548-1.512-5.122-2.322-7.956z"/><path fill="url(#o)" d="M180.35 109.861c-1.948-.331-3.584-.547-5.183-.923-.468-.111-.996-.603-1.202-1.053-.491-1.078-.796-2.241-1.195-3.364-.248-.695-.019-1.118.68-1.293 1.477-.374 2.944-.799 4.439-1.069.357-.064 1.071.315 1.175.636.657 2.013 1.217 4.059 1.73 6.114.07.279-.302.665-.446.952z"/><path fill="url(#p)" d="M56.075 152.113c.483 0 .974-.047 1.45.007 7.595.868 14.992-.158 22.252-2.359 1.97-.596 3.89-1.356 5.85-1.986.367-.119.815.015 1.227.032-.275.344-.476.856-.833 1.006-5.832 2.451-11.764 4.608-18.209 4.558-3.495-.027-6.988-.294-10.48-.487-.451-.024-.89-.242-1.334-.371q.037-.2.077-.4"/><path fill="url(#q)" d="M157.263 97.104c.258-.274.464-.675.779-.803 1.365-.555 2.768-1.01 4.144-1.541.6-.233 1.138-.646 1.745-.839 6.43-2.05 12.984-2.733 19.682-1.696.364.057.708.225 1.058.593-9.434-.42-18.474 1.264-27.202 4.838q-.104-.274-.206-.55z"/><path fill="url(#r)" d="M173.184 90.224c-1.222-.06-2.468-.302-3.658-.131-1.552.22-2.918-.17-4.311-.67-.81-.292-.932-.72-.292-1.35 1.14-1.128 2.233-2.306 3.403-3.399.231-.215.949-.326 1.061-.188 1.388 1.768 2.704 3.594 4.038 5.401z"/><path fill="url(#s)" d="M71.59 155.422c1.011 0 2.022-.005 3.034 0 .815.005 1.65-.087 2.441.064.806.153 1.567.552 2.608.94-.645.729-1.083 1.241-1.54 1.739-.664.724-1.358 1.422-2.007 2.159-.392.442-.858.86-1.316.279-1.23-1.556-2.365-3.183-3.54-4.781z"/><defs><linearGradient id="a" x1="138.504" x2="103.476" y1="94.9927" y2="203.03" gradientUnits="userSpaceOnUse"><stop stop-color="#DBD0C4"/><stop offset="1" stop-color="#A99583" stop-opacity="0.33"/></linearGradient><linearGradient id="b" x1="138.504" x2="103.476" y1="94.9927" y2="203.03" gradientUnits="userSpaceOnUse"><stop stop-color="#DBD0C4"/><stop offset="1" stop-color="#A99583" stop-opacity="0.33"/></linearGradient><linearGradient id="c" x1="138.504" x2="103.476" y1="94.9927" y2="203.03" gradientUnits="userSpaceOnUse"><stop stop-color="#DBD0C4"/><stop offset="1" stop-color="#A99583" stop-opacity="0.33"/></linearGradient><linearGradient id="d" x1="138.504" x2="103.476" y1="94.9927" y2="203.03" gradientUnits="userSpaceOnUse"><stop stop-color="#DBD0C4"/><stop offset="1" stop-color="#A99583" stop-opacity="0.33"/></linearGradient><linearGradient id="e" x1="138.504" x2="103.476" y1="94.9927" y2="203.03" gradientUnits="userSpaceOnUse"><stop stop-color="#DBD0C4"/><stop offset="1" stop-color="#A99583" stop-opacity="0.33"/></linearGradient><linearGradient id="f" x1="138.504" x2="103.476" y1="94.9927" y2="203.03" gradientUnits="userSpaceOnUse"><stop stop-color="#DBD0C4"/><stop offset="1" stop-color="#A99583" stop-opacity="0.33"/></linearGradient><linearGradient id="g" x1="138.504" x2="103.476" y1="94.9927" y2="203.03" gradientUnits="userSpaceOnUse"><stop stop-color="#DBD0C4"/><stop offset="1" stop-color="#A99583" stop-opacity="0.33"/></linearGradient><linearGradient id="h" x1="138.504" x2="103.476" y1="94.9927" y2="203.03" gradientUnits="userSpaceOnUse"><stop stop-color="#DBD0C4"/><stop offset="1" stop-color="#A99583" stop-opacity="0.33"/></linearGradient><linearGradient id="i" x1="138.504" x2="103.476" y1="94.9927" y2="203.03" gradientUnits="userSpaceOnUse"><stop stop-color="#DBD0C4"/><stop offset="1" stop-color="#A99583" stop-opacity="0.33"/></linearGradient><linearGradient id="j" x1="138.504" x2="103.476" y1="94.9927" y2="203.03" gradientUnits="userSpaceOnUse"><stop stop-color="#DBD0C4"/><stop offset="1" stop-color="#A99583" stop-opacity="0.33"/></linearGradient><linearGradient id="k" x1="138.504" x2="103.476" y1="94.9927" y2="203.03" gradientUnits="userSpaceOnUse"><stop stop-color="#DBD0C4"/><stop offset="1" stop-color="#A99583" stop-opacity="0.33"/></linearGradient><linearGradient id="l" x1="138.504" x2="103.476" y1="94.9927" y2="203.03" gradientUnits="userSpaceOnUse"><stop stop-color="#DBD0C4"/><stop offset="1" stop-color="#A99583" stop-opacity="0.33"/></linearGradient><linearGradient id="m" x1="138.504" x2="103.476" y1="94.9927" y2="203.03" gradientUnits="userSpaceOnUse"><stop stop-color="#DBD0C4"/><stop offset="1" stop-color="#A99583" stop-opacity="0.33"/></linearGradient><linearGradient id="n" x1="138.504" x2="103.476" y1="94.9927" y2="203.03" gradientUnits="userSpaceOnUse"><stop stop-color="#DBD0C4"/><stop offset="1" stop-color="#A99583" stop-opacity="0.33"/></linearGradient><linearGradient id="o" x1="138.504" x2="103.476" y1="94.9927" y2="203.03" gradientUnits="userSpaceOnUse"><stop stop-color="#DBD0C4"/><stop offset="1" stop-color="#A99583" stop-opacity="0.33"/></linearGradient><linearGradient id="p" x1="138.504" x2="103.476" y1="94.9927" y2="203.03" gradientUnits="userSpaceOnUse"><stop stop-color="#DBD0C4"/><stop offset="1" stop-color="#A99583" stop-opacity="0.33"/></linearGradient><linearGradient id="q" x1="138.504" x2="103.476" y1="94.9927" y2="203.03" gradientUnits="userSpaceOnUse"><stop stop-color="#DBD0C4"/><stop offset="1" stop-color="#A99583" stop-opacity="0.33"/></linearGradient><linearGradient id="r" x1="138.504" x2="103.476" y1="94.9927" y2="203.03" gradientUnits="userSpaceOnUse"><stop stop-color="#DBD0C4"/><stop offset="1" stop-color="#A99583" stop-opacity="0.33"/></linearGradient><linearGradient id="s" x1="138.504" x2="103.476" y1="94.9927" y2="203.03" gradientUnits="userSpaceOnUse"><stop stop-color="#DBD0C4"/><stop offset="1" stop-color="#A99583" stop-opacity="0.33"/></linearGradient></defs></svg>