<svg xmlns="http://www.w3.org/2000/svg" width="242" height="38" fill="none"><path fill="#fff" d="M7.011 8.021a1.55 1.55 0 0 0-.685-.66q-.435-.236-1.034-.236-1.033 0-1.656.685-.623.672-.623 1.806 0 1.207.648 1.893.66.672 1.806.672.784 0 1.32-.398.548-.399.797-1.146H4.881v-1.57h4.634v1.981a4.1 4.1 0 0 1-.81 1.482 4.2 4.2 0 0 1-1.432 1.109q-.872.423-1.968.423-1.296 0-2.317-.56a4.14 4.14 0 0 1-1.582-1.582q-.56-1.009-.56-2.304 0-1.296.56-2.305.573-1.02 1.582-1.581 1.009-.573 2.304-.573 1.57 0 2.641.76 1.083.76 1.432 2.104zm3.26 2.491q0-1.07.399-1.88.41-.81 1.108-1.246t1.557-.436q.735 0 1.283.3.56.298.86.784V7.05h2.13V14h-2.13v-.984a2.3 2.3 0 0 1-.872.785q-.548.299-1.283.299-.847 0-1.545-.436a3.15 3.15 0 0 1-1.108-1.258q-.399-.822-.399-1.894m5.206.013q0-.797-.448-1.258a1.42 1.42 0 0 0-1.071-.46q-.636 0-1.084.46-.436.448-.436 1.245t.436 1.27q.449.462 1.084.462t1.071-.461q.449-.461.448-1.258m12.54-3.55q1.294 0 2.055.785.772.785.772 2.18V14h-2.117v-3.774q0-.672-.362-1.034-.348-.373-.971-.373-.622 0-.984.373-.35.362-.349 1.034V14h-2.117v-3.774q0-.672-.362-1.034-.348-.373-.971-.373-.622 0-.984.373-.35.362-.349 1.034V14h-2.13V7.05h2.13v.872q.324-.436.847-.685a2.6 2.6 0 0 1 1.183-.262q.785 0 1.395.336a2.4 2.4 0 0 1 .972.96 2.8 2.8 0 0 1 .984-.935q.623-.36 1.358-.36zm10.868 3.438q0 .3-.037.623h-4.82q.05.647.41.996.375.336.91.336.796 0 1.108-.672h2.267a3.1 3.1 0 0 1-.635 1.233 3.1 3.1 0 0 1-1.133.86 3.7 3.7 0 0 1-1.532.31q-1.022 0-1.819-.435a3.1 3.1 0 0 1-1.245-1.246q-.45-.81-.449-1.893 0-1.085.436-1.893a3.1 3.1 0 0 1 1.246-1.246q.797-.435 1.83-.436 1.01 0 1.794.424a3 3 0 0 1 1.22 1.208q.45.784.45 1.83zm-2.18-.56q0-.549-.373-.873-.374-.323-.934-.323-.535 0-.91.311-.36.312-.448.884zM49.312 8.07q0 .76-.349 1.395-.349.623-1.071 1.01-.723.384-1.794.385h-1.32V14h-2.13V5.256h3.45q1.047 0 1.77.361.72.361 1.083.997.36.635.36 1.457zm-3.375 1.096q.61 0 .909-.286.299-.287.299-.81t-.3-.81q-.298-.286-.908-.286h-1.159v2.192zm6.614-.959q.373-.572.934-.897a2.4 2.4 0 0 1 1.245-.336V9.23h-.585q-.797 0-1.196.348-.398.337-.398 1.196V14h-2.13V7.05h2.13zm6.361 5.892q-1.02 0-1.843-.436a3.25 3.25 0 0 1-1.283-1.246q-.462-.81-.461-1.893 0-1.071.473-1.88a3.2 3.2 0 0 1 1.296-1.259 3.9 3.9 0 0 1 1.843-.436q1.02 0 1.843.436.822.436 1.296 1.258.473.81.473 1.88 0 1.072-.486 1.894-.472.81-1.308 1.246a3.9 3.9 0 0 1-1.843.436m0-1.844q.61 0 1.034-.448.435-.45.436-1.283 0-.834-.424-1.283a1.33 1.33 0 0 0-1.021-.448q-.623 0-1.034.448-.41.435-.41 1.283 0 .834.398 1.283.41.448 1.021.448m5.826-5.929q-.56 0-.922-.323a1.1 1.1 0 0 1-.349-.822q0-.5.35-.823.36-.336.92-.336.549 0 .898.336.36.324.36.823 0 .485-.36.822-.35.323-.897.323m1.07 8.57q0 1.283-.647 1.843-.647.573-1.806.573h-.834v-1.806h.51q.35 0 .499-.137.15-.136.149-.448V7.05h2.13zm8.084-4.484q0 .3-.037.623h-4.82q.049.647.41.996.374.336.91.336.796 0 1.108-.672h2.267a3.1 3.1 0 0 1-.635 1.233 3.1 3.1 0 0 1-1.134.86 3.7 3.7 0 0 1-1.532.31q-1.02 0-1.818-.435a3.1 3.1 0 0 1-1.246-1.246q-.448-.81-.448-1.893 0-1.085.436-1.893a3.1 3.1 0 0 1 1.245-1.246q.798-.436 1.831-.436 1.009 0 1.794.424.785.423 1.22 1.208.45.784.449 1.83zm-2.18-.56q0-.549-.374-.873-.373-.323-.934-.323-.535 0-.909.311-.36.312-.448.884zm2.88.672q0-1.085.436-1.893.448-.81 1.233-1.246.798-.435 1.819-.436 1.307 0 2.18.685.883.685 1.158 1.93H79.15q-.286-.795-1.109-.796-.585 0-.934.46-.35.45-.349 1.296 0 .847.349 1.308.35.448.934.448.822 0 1.109-.797h2.267q-.275 1.22-1.159 1.918-.885.698-2.18.698-1.02 0-1.818-.436a3.1 3.1 0 0 1-1.233-1.246q-.436-.81-.436-1.893zm11.838 1.669V14h-1.083q-1.158 0-1.806-.56-.648-.574-.648-1.856V8.819h-.847v-1.77h.847V5.357h2.13V7.05h1.395v1.769h-1.395v2.79q0 .311.15.448t.498.137zM2.465 29.151l1.196.735a59 59 0 0 1-1.358 4.048l-1.358-.722a40 40 0 0 0 1.52-4.06zm1.183-2.204-.884 1.195c-.423-.323-1.308-.834-1.943-1.195l.834-1.06c.623.287 1.52.76 1.993 1.06m7.399 1.569v.698h1.457v1.32h-1.457v2.043c0 .672-.1 1.033-.56 1.258-.437.224-1.047.236-1.869.236-.05-.398-.224-.959-.386-1.357.51.024 1.059.024 1.233.024.162 0 .212-.037.212-.186v-2.018H8.095v-1.32h1.582V28.13c.2-.162.423-.361.623-.585H8.606v-.623a9 9 0 0 0-1.184-.673c.137-.187.262-.386.386-.61h-1.88c-.013.46-.025.922-.05 1.37h2.08s-.013.41-.013.585c-.137 3.874-.261 5.356-.61 5.805-.224.336-.46.46-.797.51-.286.05-.735.063-1.208.05-.038-.399-.15-.959-.361-1.333.36.05.672.05.859.05.15 0 .25-.037.361-.187.175-.261.3-1.295.386-4.135h-.784c-.2 2.23-.673 4.272-1.894 5.705a3.5 3.5 0 0 0-1.008-.96c1.52-1.73 1.631-4.608 1.681-7.46h-.897v-1.383l-.498.66c-.423-.348-1.308-.921-1.918-1.282l.847-1.06c.61.325 1.507.835 1.955 1.147l-.373.523h1.806a10 10 0 0 0-.785-1.383l1.37-.51c.336.46.723 1.083.922 1.494l-.922.399h1.98v.872c.324-.785.549-1.707.686-2.653l1.42.236c-.075.411-.162.822-.262 1.221h2.566v1.395h-2.99c-.124.336-.261.66-.386.947h2.317l.262-.075.871.623a12.6 12.6 0 0 1-1.494 1.706m13.252-4.31-1.12.885c-.324-.498-1.047-1.258-1.582-1.806l1.07-.785c.524.51 1.284 1.233 1.632 1.706m-5.741 7.075-1.146 1.059c-.25-.498-.623-1.109-1.047-1.744-.585 1.059-1.282 1.956-2.117 2.653-.237-.361-.71-.947-1.071-1.208.872-.66 1.631-1.657 2.23-2.865a73 73 0 0 0-1.994-2.703l1.01-.847c.51.623 1.058 1.32 1.618 2.055.3-.81.524-1.693.686-2.59h-3.264v-1.308h3.675l.249-.05.946.324c-.236 1.88-.66 3.562-1.233 5.02.586.822 1.109 1.581 1.457 2.204zm4.645-4.372 1.171.71c-.523 1.27-1.32 2.529-2.28 3.612.287.586.649.934 1.047.997.287.037.424-.573.523-1.881.287.311.947.735 1.246.872-.337 2.354-1.01 2.914-1.694 2.852-1.009-.112-1.744-.685-2.304-1.669a9.2 9.2 0 0 1-1.806 1.258 6 6 0 0 0-1.171-1.108c.86-.374 1.669-.922 2.404-1.582-.324-1.046-.536-2.342-.673-3.861l-1.27.161-.175-1.357 1.345-.162a79 79 0 0 1-.137-3.214h1.545c.012 1.072.037 2.093.1 3.052l3.524-.423.175 1.32-3.6.448c.1 1.034.237 1.943.411 2.715a11.4 11.4 0 0 0 1.62-2.74zm7.262-1.694h1.794c.112-.311.224-.635.323-.971H30.13v-1.32h7.186v1.32h-2.989a33 33 0 0 1-.51.971h2.877v5.805h-1.52v-4.51h-3.25v4.56h-1.458v-5.855zm-.46 4.036.186 1.245c-1.47.511-3.014 1.06-4.223 1.47l-.36-1.57c.46-.111 1.02-.248 1.643-.41V25.19H25.82v-1.407h4.135v1.407h-1.233v4.397zm4.296-2.255v2.541c0 1.72-.784 3.513-4.284 4.584-.175-.324-.61-.86-.935-1.134 3.314-.834 3.737-2.241 3.737-3.462v-2.528zm-.423 5.082.909-.884c.884.523 2.093 1.295 2.678 1.843l-.984 1.01c-.548-.561-1.719-1.396-2.603-1.969m7.199-.349h5.767v-1.47h-5.767zm5.767-4.334h-5.767v1.47h5.767zm0-2.827h-5.767V26h5.767zm-7.262-1.445h8.831v10.824h-1.57v-.773h-5.766v.773h-1.495z"/><path fill="#7896FF" d="M196.975 10.384v1.008h4.86v-1.008zm0-1.608v.984h4.86v-.984zm-.888-.648h6.684v3.912h-6.684zm-1.968-3.684h10.644v.792h-10.644zm4.836-1.524h.888v4.836h-.888zm-.516 1.764.744.3q-.396.576-.936 1.128-.54.54-1.176 1.02-.624.468-1.296.852-.66.384-1.32.648-.06-.12-.168-.24l-.216-.264a2 2 0 0 0-.204-.216q.636-.228 1.296-.564.66-.348 1.272-.768a11 11 0 0 0 1.128-.912 6.6 6.6 0 0 0 .876-.984m1.908 0q.36.492.876.96.528.468 1.152.876t1.296.744q.672.324 1.332.528a3 3 0 0 0-.216.216q-.108.132-.216.276-.096.132-.168.252a10 10 0 0 1-1.344-.624 13 13 0 0 1-1.308-.828q-.636-.468-1.188-.996a9 9 0 0 1-.948-1.104zm-6.024 8.076h10.272v.816h-10.272zm14.232-4.5h6.996v5.724h-.9V8.98h-5.232v5.004h-.864zm-2.412-1.584h10.584v.744h-10.584zm.876-1.62h9.012v.72h-9.012zm2.112 4.74h5.892v.636h-5.892zm0 1.476h5.892v.624h-5.892zm-.084 1.512h5.976v.72h-5.976zm6.3-9.768.576.648q-.84.168-1.908.288a44 44 0 0 1-2.256.192q-1.188.072-2.4.12-1.212.036-2.328.036a2 2 0 0 0-.072-.348 2 2 0 0 0-.108-.348q1.092-.012 2.28-.048 1.2-.036 2.352-.108a48 48 0 0 0 2.148-.18 20 20 0 0 0 1.716-.252m-4.92.816.936.204q-.408 1.44-1.056 2.808a11.3 11.3 0 0 1-1.596 2.496 9 9 0 0 1-2.304 1.944 2 2 0 0 0-.168-.228 2 2 0 0 0-.204-.264 6 6 0 0 0-.204-.216 8 8 0 0 0 2.184-1.8 10 10 0 0 0 1.5-2.34q.588-1.272.912-2.604m12.96-.036q-.36.54-.9 1.14-.528.588-1.176 1.176t-1.38 1.128q-.72.54-1.476.984a3 3 0 0 0-.264-.36 2 2 0 0 0-.312-.348 13.6 13.6 0 0 0 2.004-1.356 15.6 15.6 0 0 0 1.752-1.632q.78-.852 1.248-1.632h.912q.468.672 1.08 1.32t1.308 1.236 1.416 1.08q.732.492 1.428.84-.168.168-.324.384a4 4 0 0 0-.276.408q-.684-.408-1.416-.924-.72-.516-1.392-1.092a20 20 0 0 1-1.248-1.188q-.576-.6-.984-1.164m-4.056 6.228h8.184v.804h-8.184zm.54-2.676h7.188v.804h-7.188zm-1.524 5.46h10.236v.816h-10.236zm4.584-5.124h.936v5.58h-.936zm13.704-4.056h3.6v.852h-2.724v9.48h-.876zm-6.396.624h5.736v.804h-5.736zm-.3 3.324h6.204v.816h-6.204zm2.712-4.608h.876v1.764h-.876zm-1.656 2.496.756-.156q.192.444.348.996.156.54.204.924l-.804.204a5.7 5.7 0 0 0-.18-.948 10 10 0 0 0-.324-1.02m3.432-.24.864.204q-.192.528-.408 1.092-.204.552-.396.948l-.732-.204q.12-.276.24-.636.132-.36.24-.732.12-.372.192-.672m-3.372 7.236h3.948v.804h-3.948zm-.312-3.012h4.728v4.464h-.876V10.24h-3.012v3.732h-.84zm9.264-5.82h.168l.156-.036.648.42q-.36.852-.804 1.824a49 49 0 0 1-.864 1.8q.612.564.936 1.08.324.504.456.96t.132.888q0 .564-.144.972a1.23 1.23 0 0 1-.456.612 1.8 1.8 0 0 1-.78.264 5 5 0 0 1-.516.024q-.264 0-.54-.012a3 3 0 0 0-.072-.444q-.06-.252-.18-.444.276.024.516.036.24 0 .42-.012.156-.012.288-.036.132-.036.24-.096a.62.62 0 0 0 .264-.372q.084-.252.084-.588-.012-.564-.336-1.236-.324-.684-1.248-1.476.24-.456.468-.972.228-.528.444-1.044.216-.528.396-.996t.324-.828z"/></svg>