<svg xmlns="http://www.w3.org/2000/svg" width="221" height="131" fill="none"><g filter="url(#a)"><circle cx="66.686" cy="65.624" r="11.888" stroke="#fff" stroke-opacity=".39" shape-rendering="crispEdges"/></g><g filter="url(#b)"><path fill="#fff" d="m100.944 54.331.776.336c-1.028 1.206-2.611 2.275-4.037 2.968a4.4 4.4 0 0 0-.63-.62c1.469-.608 2.979-1.604 3.891-2.684m1.814 4.614h-3.995c.776 1.794 2.234 3.126 4.237 3.702-.2.158-.43.493-.546.714-2.171-.714-3.65-2.255-4.488-4.416H96.33v3.503l2.506-.619c0 .231.032.556.074.734-2.853.756-3.241.881-3.493 1.05-.052-.2-.188-.525-.314-.693.168-.084.42-.23.42-.64v-3.335h-2.004v-.765h2.003v-4.017h.808v4.017h6.428zm3.776-3.618-.462.62c-.398-.316-1.174-.83-1.741-1.197l.451-.534c.567.325 1.353.807 1.752 1.111m-.493 2.727-.462.63c-.398-.305-1.174-.798-1.761-1.123l.451-.545c.566.314 1.363.755 1.772 1.038m-.409 1.678.608.43a40 40 0 0 1-1.51 3.356l-.692-.43c.461-.808 1.112-2.181 1.594-3.356m2.076-4.415v2.15c0 1.825-.178 4.415-1.415 6.166-.126-.136-.462-.335-.64-.409 1.185-1.678 1.29-4.037 1.29-5.757v-2.863h6.376v.713zm.965 5.39.703.19a10.4 10.4 0 0 1-1.322 2.149 6 6 0 0 0-.629-.399c.483-.503.944-1.247 1.248-1.94m.336-2.108v.923h3.188V58.6h-3.188zm0-1.478v.912h3.188v-.912zm3.912 2.999h-1.993v2.737c0 .388-.063.587-.357.703-.283.115-.723.115-1.426.105a2.8 2.8 0 0 0-.22-.672c.503.021.965.011 1.08.011.136-.01.178-.042.178-.157V60.12h-1.877v-3.597h1.584c.115-.336.241-.766.304-1.06l.87.179c-.147.304-.293.608-.43.88h2.287zm-1.29.766.671-.263c.409.64.933 1.5 1.195 2.004l-.713.314c-.23-.524-.744-1.395-1.153-2.055m5.463-5.045-.566.525c-.293-.43-.923-1.112-1.426-1.594l.524-.451c.525.461 1.175 1.1 1.468 1.52m-.513 5.726 1.08-.818c.063.2.21.504.283.65-1.783 1.406-2.066 1.636-2.213 1.857a3 3 0 0 0-.409-.672c.189-.125.504-.43.504-.89v-3.577h-1.469v-.755h2.224zm1.059-6.9h5.044c-.042 4.467-.073 7.99.619 8.17.084.02.168-.756.199-1.637.137.189.357.462.483.556-.116 1.699-.462 2.066-.986 1.867-1.133-.357-1.101-3.755-1.091-8.222h-2.013v2.978h1.615v.724h-1.615v4.415h-.735v-4.415h-1.583v-.724h1.583v-2.978h-1.52zm9.533 3.89v.84h4.834v-.84zm0-1.436v.839h4.834v-.84h-4.834zm0-1.437v.839h4.834v-.84h-4.834zm1.594 4.656.556-.314h-2.905v-4.96h2.433a8 8 0 0 0 .398-1.081l.902.157a8 8 0 0 1-.493.923h3.125v4.96h-3.397c.534.462 1.132 1.133 1.405 1.574l-.629.388c-.263-.462-.86-1.154-1.395-1.647m-3.178 2.832-.713-.336c.409-.577.818-1.468 1.059-2.118l.682.293c-.283.64-.65 1.563-1.028 2.16zm3.115-.41h2.297c.555 0 .65-.157.702-1.216.179.137.504.252.724.294-.105 1.332-.357 1.646-1.374 1.646h-2.391c-1.217 0-1.531-.22-1.531-1.048v-1.71h.776v1.7c0 .282.115.335.797.335zm3.639-1.918.692-.294c.493.63 1.007 1.5 1.196 2.077l-.724.335c-.178-.577-.682-1.468-1.164-2.118"/></g><g filter="url(#c)"><path fill="#fff" d="M93.351 72.72q0-1.07.483-1.92a3.5 3.5 0 0 1 1.31-1.342 3.66 3.66 0 0 1 1.857-.483q1.196 0 2.087.577t1.3 1.636h-1.143a2.3 2.3 0 0 0-.88-1.017q-.567-.357-1.364-.357-.765 0-1.374.357a2.5 2.5 0 0 0-.954 1.017q-.346.65-.346 1.531 0 .87.346 1.532.346.65.954 1.006.609.357 1.374.357.797 0 1.363-.346.577-.357.881-1.017h1.143q-.409 1.048-1.3 1.625-.891.566-2.087.566a3.7 3.7 0 0 1-1.856-.472 3.5 3.5 0 0 1-1.311-1.332q-.483-.85-.483-1.919zm11.31-2.192q.65 0 1.175.283.525.272.818.828.304.556.304 1.353v3.387h-.944v-3.25q0-.86-.43-1.312-.43-.46-1.174-.461-.756 0-1.206.472-.441.471-.441 1.374v3.177h-.954v-7.76h.954v2.831q.284-.44.776-.681.504-.242 1.122-.242zm3.499 2.957q0-.88.357-1.542.357-.67.975-1.038a2.7 2.7 0 0 1 1.395-.367q.756 0 1.311.325.556.326.829.818v-1.049h.964v5.747h-.964v-1.07a2.3 2.3 0 0 1-.85.84q-.556.325-1.3.325-.766 0-1.385-.378a2.65 2.65 0 0 1-.975-1.059q-.357-.681-.357-1.552m4.867.01q0-.65-.263-1.132a1.8 1.8 0 0 0-.713-.734 1.87 1.87 0 0 0-.975-.263q-.535 0-.975.252a1.83 1.83 0 0 0-.703.734q-.262.483-.262 1.133 0 .66.262 1.153a1.9 1.9 0 0 0 .703.745q.44.252.975.252c.535 0 .682-.084.975-.252a1.87 1.87 0 0 0 .713-.745q.263-.493.263-1.143m5.377-2.968q1.049 0 1.699.64.65.63.65 1.825v3.387h-.943v-3.25q0-.86-.43-1.312-.43-.46-1.175-.461-.754 0-1.206.472-.441.471-.441 1.374v3.177h-.954v-5.747h.954v.818q.283-.44.766-.681a2.4 2.4 0 0 1 1.08-.242m6.278.011q.745 0 1.301.325.566.326.839.818v-1.049h.965v5.873q0 .788-.336 1.395a2.37 2.37 0 0 1-.965.965q-.618.346-1.447.346-1.132 0-1.888-.535a2.1 2.1 0 0 1-.891-1.458h.944q.157.525.65.84.494.324 1.185.324.787 0 1.279-.492.504-.493.504-1.385V75.3a2.3 2.3 0 0 1-.839.84q-.556.335-1.301.335-.765 0-1.394-.378a2.65 2.65 0 0 1-.976-1.059q-.356-.681-.356-1.552 0-.88.356-1.542a2.6 2.6 0 0 1 .976-1.038 2.7 2.7 0 0 1 1.394-.367zm2.14 2.957q0-.65-.262-1.132a1.8 1.8 0 0 0-.713-.734 1.87 1.87 0 0 0-.976-.263 1.93 1.93 0 0 0-.975.252 1.83 1.83 0 0 0-.703.734q-.262.483-.262 1.133 0 .66.262 1.153a1.9 1.9 0 0 0 .703.745q.441.252.975.252.535 0 .976-.252.45-.262.713-.745.261-.493.262-1.143m7.527-2.863-3.46 8.453h-.986l1.132-2.768-2.317-5.685h1.059l1.804 4.657 1.783-4.657zm6.057 0v5.747h-.955v-.85a1.9 1.9 0 0 1-.765.693q-.483.24-1.07.241-.672 0-1.206-.272a2.1 2.1 0 0 1-.85-.84q-.303-.554-.304-1.352v-3.367h.944v3.24q0 .85.43 1.312.43.45 1.175.45.765 0 1.206-.471.44-.472.44-1.374v-3.157zm1.254 2.853q0-.88.357-1.542.357-.67.975-1.038a2.7 2.7 0 0 1 1.395-.367q.754 0 1.311.325.556.326.828.818v-1.049h.965v5.747h-.965v-1.07a2.3 2.3 0 0 1-.849.84q-.556.325-1.3.325-.766 0-1.385-.378a2.65 2.65 0 0 1-.975-1.059q-.357-.681-.357-1.552m4.866.01q0-.65-.262-1.132a1.8 1.8 0 0 0-.713-.734 1.87 1.87 0 0 0-.975-.263q-.535 0-.976.252a1.83 1.83 0 0 0-.702.734q-.262.483-.262 1.133 0 .66.262 1.153.262.483.702.745.44.252.976.252.534 0 .975-.252.451-.262.713-.745.262-.493.262-1.143m5.378-2.968q1.049 0 1.699.64.65.63.65 1.825v3.387h-.944v-3.25q0-.86-.43-1.312-.43-.46-1.174-.461-.756 0-1.206.472-.441.471-.441 1.374v3.177h-.954v-5.747h.954v.818q.283-.44.766-.681a2.4 2.4 0 0 1 1.08-.242m7.658-1.457v7.31h-.954v-7.31zm4.427 1.458q1.048 0 1.699.64.65.629.65 1.824v3.387h-.944v-3.25q0-.86-.43-1.312-.43-.46-1.174-.461-.756 0-1.206.472-.441.471-.441 1.374v3.177h-.954v-5.747h.954v.818q.283-.44.766-.681a2.4 2.4 0 0 1 1.08-.242zm6.247.89h-1.206v4.961h-.955v-4.96h-.744v-.787h.744v-.409q0-.964.493-1.405.504-.45 1.605-.45v.796q-.63 0-.892.252-.25.24-.251.807v.41h1.206zm3.619 5.056a2.97 2.97 0 0 1-1.468-.367 2.67 2.67 0 0 1-1.028-1.038q-.367-.683-.367-1.574 0-.88.377-1.552.389-.681 1.049-1.038a3 3 0 0 1 1.479-.367q.817 0 1.479.367.66.356 1.038 1.028.388.67.388 1.562t-.399 1.573a2.7 2.7 0 0 1-1.059 1.039 3.05 3.05 0 0 1-1.489.367m0-.84q.513 0 .965-.24a1.8 1.8 0 0 0 .723-.724q.283-.483.283-1.175t-.272-1.174a1.76 1.76 0 0 0-.713-.713 1.96 1.96 0 0 0-.955-.242q-.524 0-.964.242a1.7 1.7 0 0 0-.693.713q-.262.482-.262 1.174 0 .703.252 1.185.262.483.692.724.43.23.944.23m5.156-4.068a1.84 1.84 0 0 1 .713-.766q.472-.273 1.143-.272v.985h-.252q-1.604 0-1.604 1.741v3.125h-.954v-5.747h.954zm9.869-1.038q.671 0 1.195.283.525.272.829.828t.304 1.353v3.387h-.944v-3.25q0-.86-.43-1.312-.418-.46-1.143-.461-.744 0-1.185.482-.44.472-.44 1.374v3.167h-.944v-3.25q0-.86-.43-1.312-.42-.46-1.143-.461-.745 0-1.185.482-.441.472-.441 1.374v3.167h-.954v-5.747h.954v.829a1.9 1.9 0 0 1 .755-.692 2.34 2.34 0 0 1 1.059-.242q.724 0 1.28.326.556.325.828.954.242-.609.797-.944a2.35 2.35 0 0 1 1.238-.335m3.537 2.957q0-.88.357-1.542.356-.67.975-1.038a2.7 2.7 0 0 1 1.395-.367q.755 0 1.311.325.555.326.828.818v-1.049h.965v5.747h-.965v-1.07a2.3 2.3 0 0 1-.849.84q-.556.325-1.301.325-.766 0-1.384-.378a2.64 2.64 0 0 1-.975-1.059q-.357-.681-.357-1.552m4.866.01q0-.65-.262-1.132a1.8 1.8 0 0 0-.713-.734 1.87 1.87 0 0 0-.976-.263 1.93 1.93 0 0 0-.975.252 1.83 1.83 0 0 0-.703.734q-.262.483-.262 1.133 0 .66.262 1.153a1.9 1.9 0 0 0 .703.745q.441.252.975.252.535 0 .976-.252.45-.262.713-.745.262-.493.262-1.143m3.742-2.076v3.387q0 .42.178.598.178.168.619.168h.702v.807h-.86q-.796 0-1.195-.367-.399-.366-.399-1.206V71.42h-.744v-.787h.744v-1.447h.955v1.447h1.499v.787h-1.499zm3.149-1.72a.63.63 0 0 1-.462-.189.63.63 0 0 1-.189-.461q0-.273.189-.462a.63.63 0 0 1 .462-.188q.261 0 .44.188.189.189.189.462a.63.63 0 0 1-.189.461.58.58 0 0 1-.44.189m.461.933v5.747h-.954v-5.747zm4.133 5.842a2.97 2.97 0 0 1-1.468-.367 2.67 2.67 0 0 1-1.028-1.038q-.367-.683-.367-1.574 0-.88.378-1.552.388-.681 1.048-1.038a3 3 0 0 1 1.479-.367q.817 0 1.479.367.66.356 1.038 1.028.388.67.388 1.562t-.399 1.573a2.7 2.7 0 0 1-1.059 1.039 3.05 3.05 0 0 1-1.489.367m0-.84q.514 0 .965-.24a1.8 1.8 0 0 0 .723-.724q.284-.483.284-1.175t-.273-1.174a1.76 1.76 0 0 0-.713-.713 1.96 1.96 0 0 0-.955-.242q-.524 0-.964.242a1.7 1.7 0 0 0-.693.713q-.262.482-.262 1.174 0 .703.252 1.185.262.483.692.724.43.23.944.23m7.002-5.106q1.048 0 1.699.64.65.628.65 1.824v3.387h-.944v-3.25q0-.86-.43-1.312-.43-.46-1.174-.461-.756 0-1.206.472-.441.471-.441 1.374v3.177h-.954v-5.747h.954v.818q.283-.44.766-.681a2.4 2.4 0 0 1 1.08-.242z"/></g><path stroke="#E1E1E1" stroke-width="2.444" d="m72.314 61.335-5.627 9.746-5.627-9.746z"/><path fill="#fff" fill-opacity=".33" fill-rule="evenodd" d="M91.01 87.072c-5.8 6.974-14.542 11.415-24.323 11.415-17.462 0-31.619-14.157-31.619-31.62 0-17.462 14.157-31.619 31.62-31.619 10.026 0 18.963 4.668 24.755 11.948h1.266c-5.955-7.866-15.395-12.947-26.022-12.947-18.015 0-32.619 14.604-32.619 32.619s14.604 32.619 32.62 32.619c10.385 0 19.636-4.853 25.61-12.415z" clip-rule="evenodd"/><path fill="#fff" fill-opacity=".15" fill-rule="evenodd" d="M32.486 66.867c0-9.349 3.707-17.833 9.73-24.062h2.866C38.57 48.77 34.486 57.341 34.486 66.867c0 10.375 4.843 19.618 12.392 25.592v.234H44.05c-7.096-6.34-11.564-15.561-11.564-25.826" clip-rule="evenodd"/><path stroke="#fff" stroke-opacity=".2" d="m97.275 96.697 33.249 33.249M.818 1l33.25 33.248M130.525 1 97.276 34.248"/><defs><filter id="a" width="40.775" height="40.775" x="46.299" y="45.236" color-interpolation-filters="sRGB" filterUnits="userSpaceOnUse"><feFlood flood-opacity="0" result="BackgroundImageFix"/><feColorMatrix in="SourceAlpha" result="hardAlpha" values="0 0 0 0 0 0 0 0 0 0 0 0 0 0 0 0 0 0 127 0"/><feOffset/><feGaussianBlur stdDeviation="4"/><feComposite in2="hardAlpha" operator="out"/><feColorMatrix values="0 0 0 0 1 0 0 0 0 1 0 0 0 0 1 0 0 0 1 0"/><feBlend in2="BackgroundImageFix" result="effect1_dropShadow_469_23"/><feBlend in="SourceGraphic" in2="effect1_dropShadow_469_23" result="shape"/></filter><filter id="b" width="46.147" height="15.274" x="90.801" y="53.985" color-interpolation-filters="sRGB" filterUnits="userSpaceOnUse"><feFlood flood-opacity="0" result="BackgroundImageFix"/><feColorMatrix in="SourceAlpha" result="hardAlpha" values="0 0 0 0 0 0 0 0 0 0 0 0 0 0 0 0 0 0 127 0"/><feOffset dy="2.718"/><feGaussianBlur stdDeviation="1.359"/><feComposite in2="hardAlpha" operator="out"/><feColorMatrix values="0 0 0 0 0 0 0 0 0 0 0 0 0 0 0 0 0 0 0.25 0"/><feBlend in2="BackgroundImageFix" result="effect1_dropShadow_469_23"/><feBlend in="SourceGraphic" in2="effect1_dropShadow_469_23" result="shape"/></filter><filter id="c" width="130.204" height="16.28" x="90.633" y="68.367" color-interpolation-filters="sRGB" filterUnits="userSpaceOnUse"><feFlood flood-opacity="0" result="BackgroundImageFix"/><feColorMatrix in="SourceAlpha" result="hardAlpha" values="0 0 0 0 0 0 0 0 0 0 0 0 0 0 0 0 0 0 127 0"/><feOffset dy="2.718"/><feGaussianBlur stdDeviation="1.359"/><feComposite in2="hardAlpha" operator="out"/><feColorMatrix values="0 0 0 0 0 0 0 0 0 0 0 0 0 0 0 0 0 0 0.25 0"/><feBlend in2="BackgroundImageFix" result="effect1_dropShadow_469_23"/><feBlend in="SourceGraphic" in2="effect1_dropShadow_469_23" result="shape"/></filter></defs></svg>