<svg xmlns="http://www.w3.org/2000/svg" width="242" height="38" fill="none"><path fill="#fff" d="M3.337 5.256V14h-2.13V5.256zm8.207 2.815q0 .76-.349 1.395-.349.623-1.07 1.01-.723.385-1.794.385H7.01V14H4.88V5.256h3.45q1.046 0 1.768.361.723.361 1.084.997.36.635.361 1.457zM8.17 9.167q.61 0 .909-.286.3-.287.299-.81 0-.523-.3-.81-.297-.286-.908-.286H7.01v2.192zm9.253-3.91V14h-2.13V5.256zm5.779 1.718q1.22 0 1.943.797.735.785.735 2.168V14h-2.12v-3.774q0-.697-.361-1.084-.361-.386-.971-.386t-.972.386q-.36.387-.361 1.084V14h-2.13V7.05h2.13v.922q.324-.461.872-.723a2.7 2.7 0 0 1 1.233-.274zm3.734 3.55q0-1.085.436-1.893.45-.81 1.233-1.246.798-.435 1.819-.436 1.308 0 2.18.685.883.685 1.158 1.93h-2.267q-.286-.795-1.109-.796-.585 0-.934.46-.348.45-.349 1.296 0 .847.35 1.308.348.448.933.448.822 0 1.109-.797h2.267q-.274 1.22-1.159 1.918t-2.18.698q-1.02 0-1.818-.436a3.1 3.1 0 0 1-1.233-1.246q-.435-.81-.436-1.893M41.763 7.05V14h-2.13v-.947a2.4 2.4 0 0 1-.884.748 2.7 2.7 0 0 1-1.22.274q-.798 0-1.408-.349a2.43 2.43 0 0 1-.947-1.034q-.336-.673-.336-1.582V7.05h2.117v3.774q0 .697.361 1.084.361.386.972.386.622-.001.984-.386.36-.387.361-1.084V7.05zm3.66.984q.3-.486.86-.785t1.282-.299q.86 0 1.557.436t1.096 1.246q.411.81.411 1.88 0 1.072-.41 1.894-.4.81-1.097 1.258-.698.436-1.557.436-.734 0-1.283-.287-.548-.299-.86-.785V14h-2.13V4.783h2.13zm3.039 2.478q0-.796-.448-1.245a1.43 1.43 0 0 0-1.084-.46q-.636 0-1.084.46-.435.46-.436 1.258 0 .796.436 1.258.449.46 1.084.46t1.084-.46q.447-.475.448-1.27zm2.861 0q0-1.07.399-1.88.41-.81 1.108-1.246t1.557-.436q.735 0 1.283.3.56.298.86.784V7.05h2.13V14h-2.13v-.984a2.3 2.3 0 0 1-.872.785q-.549.299-1.283.299-.847 0-1.545-.436a3.15 3.15 0 0 1-1.108-1.258q-.399-.822-.399-1.894m5.206.013q0-.797-.448-1.258a1.42 1.42 0 0 0-1.071-.46q-.636 0-1.084.46-.436.448-.436 1.245t.436 1.27q.449.462 1.084.462t1.071-.461q.448-.461.448-1.258m7.545 1.669V14H62.99q-1.158 0-1.806-.56-.647-.574-.647-1.856V8.819h-.847v-1.77h.847V5.357h2.13V7.05h1.394v1.769h-1.395v2.79q0 .311.15.448t.498.137zm2.258-5.867q-.56 0-.922-.323a1.1 1.1 0 0 1-.349-.822q0-.5.349-.823.36-.336.922-.336.548 0 .896.336.362.324.362.823 0 .485-.362.822-.348.323-.896.323m1.058.723V14h-2.13V7.05zm4.707 7.05q-1.02 0-1.843-.436a3.24 3.24 0 0 1-1.283-1.246q-.46-.81-.46-1.893 0-1.071.473-1.88a3.2 3.2 0 0 1 1.295-1.259 3.9 3.9 0 0 1 1.843-.436q1.022 0 1.844.436t1.295 1.258q.474.81.473 1.88 0 1.072-.485 1.894a3.2 3.2 0 0 1-1.308 1.246 3.9 3.9 0 0 1-1.844.436m0-1.844q.61 0 1.034-.448.436-.45.436-1.283 0-.834-.423-1.283a1.33 1.33 0 0 0-1.022-.448q-.623 0-1.034.448-.41.435-.41 1.283 0 .834.398 1.283a1.33 1.33 0 0 0 1.021.448m9.002-5.28q1.221 0 1.943.796.735.785.735 2.168V14H81.66v-3.774q0-.697-.361-1.084-.361-.386-.972-.386-.61 0-.972.386-.36.387-.36 1.084V14h-2.13V7.05h2.13v.922q.323-.461.871-.723a2.7 2.7 0 0 1 1.233-.274zM1.568 33v-9.217h1.844V33zm4.112 0v-9.217h3.026c2.043 0 3.612.71 3.612 2.89 0 2.105-1.582 3.051-3.562 3.051H7.523V33zm1.843-4.733H8.63c1.27 0 1.881-.536 1.881-1.594 0-1.072-.672-1.433-1.943-1.433H7.523zm7.15 1.57.821-.362c.025-.336.038-.685.05-1.009l-.548.137c-.05-.498-.187-1.17-.324-1.806v3.04zm.871-2.38V24.58h.972v3.562c0 2.168-.224 4.372-2.118 6.004a3.7 3.7 0 0 0-.772-.698c.96-.81 1.445-1.78 1.681-2.802-1.158.61-1.42.81-1.556.984-.063-.324-.225-.847-.386-1.146.174-.087.31-.2.31-.635v-5.954c.798-.398 1.657-.984 2.156-1.457l1.146.872c-.673.473-1.508.909-2.305 1.283v1.569l.523-.125c.125.424.25.934.35 1.42zm2.28-1.432.386-.112c.124.361.261.772.386 1.183v-2.479h-.773v1.408zm1.806-2.553v7.199c0 .498-.063.797-.35.996-.273.187-.634.224-1.133.224-.037-.31-.162-.797-.311-1.096.287.013.536.013.648.013.087 0 .112-.038.112-.15v-2.192l-.436.125a11 11 0 0 0-.337-1.42v6.913h-.983V23.472zm4.745-.96.598 1.159c-1.395.386-3.35.61-4.97.685-.037-.312-.199-.772-.336-1.084 1.632-.124 3.5-.398 4.708-.76M22.818 26.4l-.971.174a19 19 0 0 0-.287-1.993l.934-.15c.15.623.287 1.433.324 1.969m-1.245.037-.972.374c-.124-.511-.436-1.308-.71-1.906l.947-.324c.286.61.585 1.37.735 1.856m1.37 2.952v.51h1.818v1.246h-1.818v1.507c0 .635-.1.972-.536 1.183-.41.2-1.009.2-1.793.2-.038-.374-.212-.884-.374-1.246a18 18 0 0 0 1.196 0c.15 0 .199-.037.199-.162v-1.482h-1.731V29.9h1.73v-.847a6.7 6.7 0 0 0 .91-.885h-2.391v-1.146h3.363l.236-.074.822.598a12 12 0 0 1-1.631 1.843m.934-2.504-.972-.249c.287-.672.598-1.744.748-2.478l1.158.261c-.299.872-.635 1.844-.934 2.466m9.852 5.506h1.458c.535 0 .622-.498.722-2.554.373.3 1.034.61 1.457.71-.162 2.417-.548 3.326-2.03 3.326h-1.819c-1.532 0-1.968-.548-1.968-2.342v-1.283c-.485.3-.946.548-1.42.773-.199-.287-.61-.723-.971-1.022v4.086h-1.57v-6.54c-.31.374-.622.71-.934 1.022-.186-.361-.672-1.159-.946-1.507 1.245-1.109 2.466-2.865 3.151-4.659l1.507.499a20.5 20.5 0 0 1-1.208 2.391v4.546a15 15 0 0 0 2.391-1.42v-5.779h1.607v4.497c.997-.897 1.918-1.931 2.653-3.065l1.42.972c-1.158 1.607-2.603 3.002-4.073 4.123v2.391c0 .723.075.835.573.835"/><path fill="#7896FF" d="M196.975 10.384v1.008h4.86v-1.008zm0-1.608v.984h4.86v-.984zm-.888-.648h6.684v3.912h-6.684zm-1.968-3.684h10.644v.792h-10.644zm4.836-1.524h.888v4.836h-.888zm-.516 1.764.744.3q-.396.576-.936 1.128-.54.54-1.176 1.02-.624.468-1.296.852-.66.384-1.32.648-.06-.12-.168-.24l-.216-.264a2 2 0 0 0-.204-.216q.636-.228 1.296-.564.66-.348 1.272-.768a11 11 0 0 0 1.128-.912 6.6 6.6 0 0 0 .876-.984m1.908 0q.36.492.876.96.528.468 1.152.876t1.296.744q.672.324 1.332.528a3 3 0 0 0-.216.216q-.108.132-.216.276-.096.132-.168.252a10 10 0 0 1-1.344-.624 13 13 0 0 1-1.308-.828q-.636-.468-1.188-.996a9 9 0 0 1-.948-1.104zm-6.024 8.076h10.272v.816h-10.272zm14.232-4.5h6.996v5.724h-.9V8.98h-5.232v5.004h-.864zm-2.412-1.584h10.584v.744h-10.584zm.876-1.62h9.012v.72h-9.012zm2.112 4.74h5.892v.636h-5.892zm0 1.476h5.892v.624h-5.892zm-.084 1.512h5.976v.72h-5.976zm6.3-9.768.576.648q-.84.168-1.908.288a44 44 0 0 1-2.256.192q-1.188.072-2.4.12-1.212.036-2.328.036a2 2 0 0 0-.072-.348 2 2 0 0 0-.108-.348q1.092-.012 2.28-.048 1.2-.036 2.352-.108a48 48 0 0 0 2.148-.18 20 20 0 0 0 1.716-.252m-4.92.816.936.204q-.408 1.44-1.056 2.808a11.3 11.3 0 0 1-1.596 2.496 9 9 0 0 1-2.304 1.944 2 2 0 0 0-.168-.228 2 2 0 0 0-.204-.264 6 6 0 0 0-.204-.216 8 8 0 0 0 2.184-1.8 10 10 0 0 0 1.5-2.34q.588-1.272.912-2.604m12.96-.036q-.36.54-.9 1.14-.528.588-1.176 1.176t-1.38 1.128q-.72.54-1.476.984a3 3 0 0 0-.264-.36 2 2 0 0 0-.312-.348 13.6 13.6 0 0 0 2.004-1.356 15.6 15.6 0 0 0 1.752-1.632q.78-.852 1.248-1.632h.912q.468.672 1.08 1.32t1.308 1.236 1.416 1.08q.732.492 1.428.84-.168.168-.324.384a4 4 0 0 0-.276.408q-.684-.408-1.416-.924-.72-.516-1.392-1.092a20 20 0 0 1-1.248-1.188q-.576-.6-.984-1.164m-4.056 6.228h8.184v.804h-8.184zm.54-2.676h7.188v.804h-7.188zm-1.524 5.46h10.236v.816h-10.236zm4.584-5.124h.936v5.58h-.936zm13.704-4.056h3.6v.852h-2.724v9.48h-.876zm-6.396.624h5.736v.804h-5.736zm-.3 3.324h6.204v.816h-6.204zm2.712-4.608h.876v1.764h-.876zm-1.656 2.496.756-.156q.192.444.348.996.156.54.204.924l-.804.204a5.7 5.7 0 0 0-.18-.948 10 10 0 0 0-.324-1.02m3.432-.24.864.204q-.192.528-.408 1.092-.204.552-.396.948l-.732-.204q.12-.276.24-.636.132-.36.24-.732.12-.372.192-.672m-3.372 7.236h3.948v.804h-3.948zm-.312-3.012h4.728v4.464h-.876V10.24h-3.012v3.732h-.84zm9.264-5.82h.168l.156-.036.648.42q-.36.852-.804 1.824a49 49 0 0 1-.864 1.8q.612.564.936 1.08.324.504.456.96t.132.888q0 .564-.144.972a1.23 1.23 0 0 1-.456.612 1.8 1.8 0 0 1-.78.264 5 5 0 0 1-.516.024q-.264 0-.54-.012a3 3 0 0 0-.072-.444q-.06-.252-.18-.444.276.024.516.036.24 0 .42-.012.156-.012.288-.036.132-.036.24-.096a.62.62 0 0 0 .264-.372q.084-.252.084-.588-.012-.564-.336-1.236-.324-.684-1.248-1.476.24-.456.468-.972.228-.528.444-1.044.216-.528.396-.996t.324-.828z"/></svg>