<svg xmlns="http://www.w3.org/2000/svg" width="184" height="137" fill="none" viewBox="0 0 184 137"><path fill="url(#a)" d="M93.878 136.019c-.502-1.776-1.975-2.894-2.93-4.364-.188-.292-.188-.749-.173-1.127.026-.681-.116-1.251-.694-1.675-.514-.378-.65-.897-.644-1.543.03-3.098.006-6.196 0-9.294 0-.186 0-.372-.142-.605l-2.8 4.49q-.079-.026-.162-.05V94.135c-4.477-.537-8.677-1.752-12.714-3.823 1.784-2.924 3.544-5.806 5.331-8.74 2.36 1.048 4.737 1.933 7.342 2.264V64.918l-.121-.074Q75.947 81.52 65.723 98.192l-.145-.011v-3.293l-.18-.036q-1.135 1.832-2.265 3.668c-1.132 1.844-2.25 3.691-3.394 5.526a2.1 2.1 0 0 1-.652.67c-8.455 5.042-15.646 11.55-22.073 18.95-.983 1.133-1.958 2.272-2.935 3.407-.015.018-.041.024-.192-.041l38.389-63.061.186.065v3.251c.053.018.106.032.16.05q6.501-10.75 13.002-21.496l-.133-.1-3.611 4.334-.136-.092c3.414-5.667 6.828-11.332 10.333-17.153 3.452 5.715 6.84 11.32 10.227 16.929l-.139.103-3.715-4.49-.133.088c4.43 7.305 8.86 14.61 13.402 22.107v-3.493l.159-.041 38.469 63.105-.068.059q-1.696-1.921-3.397-3.838c-6.299-7.105-13.286-13.407-21.428-18.369-.537-.328-1.004-.856-1.358-1.387-.886-1.327-1.684-2.714-2.522-4.071-.204-.328-.432-.643-.65-.962-.074 0-.151.006-.225.009-.094.472-.254.944-.268 1.419-.039 1.18.006 2.36-.021 3.54-.006.298-.148.593-.227.888l-.237-.035c-.014-.23-.035-.46-.038-.69-.018-1.942-.024-3.886-.044-5.827-.015-1.304-.222-1.788-1.25-2.96v3.334q-.084.026-.168.056l-20.56-33.463-.142.047V83.88c2.575-.351 4.979-1.165 7.398-2.254 1.781 2.882 3.541 5.738 5.301 8.588-1.24 1.063-6.716 3.293-12.77 3.948v.832c0 2.9.01 5.803-.014 8.704 0 .342-.128.723-.308 1.018-.986 1.643-2.028 3.251-3 4.903-.207.354-.278.832-.28 1.254-.021 8.237-.024 16.472-.03 24.709 0 .148-.009.295-.012.44h-.148zm-.682-2.307c.343-1.033-.543-2.54-1.958-3.467-.076 1.602 1.314 2.263 1.958 3.467"/><path fill="#fff" fill-opacity="0.46" d="M93.878 136.019c-.502-1.776-1.975-2.894-2.93-4.364-.188-.292-.188-.749-.173-1.127.026-.681-.116-1.251-.694-1.675-.514-.378-.65-.897-.644-1.543.03-3.098.006-6.196 0-9.294 0-.186 0-.372-.142-.605l-2.8 4.49q-.079-.026-.162-.05V94.135c-4.477-.537-8.677-1.752-12.714-3.823 1.784-2.924 3.544-5.806 5.331-8.74 2.36 1.048 4.737 1.933 7.342 2.264V64.918l-.121-.074Q75.947 81.52 65.723 98.192l-.145-.011v-3.293l-.18-.036q-1.135 1.832-2.265 3.668c-1.132 1.844-2.25 3.691-3.394 5.526a2.1 2.1 0 0 1-.652.67c-8.455 5.042-15.646 11.55-22.073 18.95-.983 1.133-1.958 2.272-2.935 3.407-.015.018-.041.024-.192-.041l38.389-63.061.186.065v3.251c.053.018.106.032.16.05q6.501-10.75 13.002-21.496l-.133-.1-3.611 4.334-.136-.092c3.414-5.667 6.828-11.332 10.333-17.153 3.452 5.715 6.84 11.32 10.227 16.929l-.139.103-3.715-4.49-.133.088c4.43 7.305 8.86 14.61 13.402 22.107v-3.493l.159-.041 38.469 63.105-.068.059q-1.696-1.921-3.397-3.838c-6.299-7.105-13.286-13.407-21.428-18.369-.537-.328-1.004-.856-1.358-1.387-.886-1.327-1.684-2.714-2.522-4.071-.204-.328-.432-.643-.65-.962-.074 0-.151.006-.225.009-.094.472-.254.944-.268 1.419-.039 1.18.006 2.36-.021 3.54-.006.298-.148.593-.227.888l-.237-.035c-.014-.23-.035-.46-.038-.69-.018-1.942-.024-3.886-.044-5.827-.015-1.304-.222-1.788-1.25-2.96v3.334q-.084.026-.168.056l-20.56-33.463-.142.047V83.88c2.575-.351 4.979-1.165 7.398-2.254 1.781 2.882 3.541 5.738 5.301 8.588-1.24 1.063-6.716 3.293-12.77 3.948v.832c0 2.9.01 5.803-.014 8.704 0 .342-.128.723-.308 1.018-.986 1.643-2.028 3.251-3 4.903-.207.354-.278.832-.28 1.254-.021 8.237-.024 16.472-.03 24.709 0 .148-.009.295-.012.44h-.148zm-.682-2.307c.343-1.033-.543-2.54-1.958-3.467-.076 1.602 1.314 2.263 1.958 3.467"/><path fill="url(#b)" d="M131.213 45.41c2.672 12.427.46 23.724-7.185 33.994-.296-.454-.541-.814-.768-1.183-1.565-2.555-3.116-5.122-4.702-7.665-.266-.425-.218-.726.009-1.127 3.003-5.266 4.158-10.946 3.609-16.95-.183-1.991-.676-3.962-1.105-5.924-.292-1.337-.348-1.325-1.842-1.133.519 1.806 1.033 3.6 1.55 5.393l-.133.062q-.9-1.28-1.801-2.555l-.142.038v14.15l-.174.053c-8.78-14.327-17.557-28.653-26.41-43.104-8.849 14.456-17.614 28.783-26.382 43.113a5 5 0 0 1-.192-.056v-1.513c0-5.703.003-11.41-.017-17.112 0-.717.168-1.328.546-1.939 2.785-4.517 5.546-9.049 8.313-13.577.177-.293.352-.587.585-.977H44.82c.853.558 1.577 1.033 2.418 1.581-.298.027-.472.06-.65.06-6.963.002-13.93 0-20.893.014-.665 0-1.217-.15-1.781-.53-2.67-1.8-5.369-3.556-8.06-5.323-.194-.13-.404-.24-.705-.242.827.77 1.65 1.543 2.478 2.313l-.074.106Q9.088 19.7.619 14.027l.018-.162h.667c7.726.005 15.451.008 23.177.017q1.874 0 3.748.033c.136 0 .28.08.398.156.685.437 1.557.744 1.994 1.357.593.832 1.296.59 1.993.59 16.243.01 32.485 0 48.728.024.889 0 1.394-.257 1.863-1.033 2.812-4.673 5.688-9.308 8.544-13.955.086-.139.186-.268.328-.475l2.994 4.883c2.026 3.31 4.061 6.618 6.072 9.937.275.454.582.62 1.116.62 16.217-.012 32.436 0 48.652-.012.64 0 1.139.032 1.01.997.531-.34 1.24-.54 1.328-.897.219-.867 1.013-.947 1.501-1.42.747-.725 1.718-.846 2.702-.846 8.532 0 17.061.012 25.592.018.163 0 .322 0 .535.144l-16.931 11.398-.1-.124 2.785-2.547-.071-.1c-.801.52-1.601 1.03-2.398 1.555-2.301 1.514-4.593 3.039-6.902 4.54a1.9 1.9 0 0 1-.945.305c-7.285.02-14.568.023-21.854.026-.071 0-.138-.018-.386-.05l2.483-1.62h-30.214c.159.292.272.522.405.744 1.258 2.083 2.53 4.154 3.765 6.249.26.44.54.587 1.045.587 14.568-.015 29.137-.012 43.708-.015h.903l-.705.49c-4.436 3.05-8.878 6.092-13.296 9.167-.741.516-1.47.749-2.38.74-3.494-.035-6.987.003-10.484.02-.239 0-.481.027-.797.045z"/><path fill="#fff" fill-opacity="0.46" d="M131.213 45.41c2.672 12.427.46 23.724-7.185 33.994-.296-.454-.541-.814-.768-1.183-1.565-2.555-3.116-5.122-4.702-7.665-.266-.425-.218-.726.009-1.127 3.003-5.266 4.158-10.946 3.609-16.95-.183-1.991-.676-3.962-1.105-5.924-.292-1.337-.348-1.325-1.842-1.133.519 1.806 1.033 3.6 1.55 5.393l-.133.062q-.9-1.28-1.801-2.555l-.142.038v14.15l-.174.053c-8.78-14.327-17.557-28.653-26.41-43.104-8.849 14.456-17.614 28.783-26.382 43.113a5 5 0 0 1-.192-.056v-1.513c0-5.703.003-11.41-.017-17.112 0-.717.168-1.328.546-1.939 2.785-4.517 5.546-9.049 8.313-13.577.177-.293.352-.587.585-.977H44.82c.853.558 1.577 1.033 2.418 1.581-.298.027-.472.06-.65.06-6.963.002-13.93 0-20.893.014-.665 0-1.217-.15-1.781-.53-2.67-1.8-5.369-3.556-8.06-5.323-.194-.13-.404-.24-.705-.242.827.77 1.65 1.543 2.478 2.313l-.074.106Q9.088 19.7.619 14.027l.018-.162h.667c7.726.005 15.451.008 23.177.017q1.874 0 3.748.033c.136 0 .28.08.398.156.685.437 1.557.744 1.994 1.357.593.832 1.296.59 1.993.59 16.243.01 32.485 0 48.728.024.889 0 1.394-.257 1.863-1.033 2.812-4.673 5.688-9.308 8.544-13.955.086-.139.186-.268.328-.475l2.994 4.883c2.026 3.31 4.061 6.618 6.072 9.937.275.454.582.62 1.116.62 16.217-.012 32.436 0 48.652-.012.64 0 1.139.032 1.01.997.531-.34 1.24-.54 1.328-.897.219-.867 1.013-.947 1.501-1.42.747-.725 1.718-.846 2.702-.846 8.532 0 17.061.012 25.592.018.163 0 .322 0 .535.144l-16.931 11.398-.1-.124 2.785-2.547-.071-.1c-.801.52-1.601 1.03-2.398 1.555-2.301 1.514-4.593 3.039-6.902 4.54a1.9 1.9 0 0 1-.945.305c-7.285.02-14.568.023-21.854.026-.071 0-.138-.018-.386-.05l2.483-1.62h-30.214c.159.292.272.522.405.744 1.258 2.083 2.53 4.154 3.765 6.249.26.44.54.587 1.045.587 14.568-.015 29.137-.012 43.708-.015h.903l-.705.49c-4.436 3.05-8.878 6.092-13.296 9.167-.741.516-1.47.749-2.38.74-3.494-.035-6.987.003-10.484.02-.239 0-.481.027-.797.045z"/><path fill="url(#c)" d="M54.988 48.986c-1.846 2.652-2.688 5.623-2.868 8.819-.41-.962-.51-3.895-.23-6.164.257-2.065.549-4.124.841-6.305h-.697c-3.64 0-7.282.01-10.923-.011-.346 0-.745-.092-1.025-.28-4.725-3.193-9.433-6.409-14.146-9.622-.154-.103-.292-.23-.54-.428h36.513v.856c.015 6.93-.02 13.864.059 20.794.05 4.452 1.294 8.624 3.497 12.486.395.696.378 1.154-.048 1.82-1.639 2.567-3.204 5.181-4.799 7.775-.112.183-.236.357-.416.628-3.263-4.284-5.626-8.907-6.863-14.114.23.242.47.478.69.725.21.236.408.484.75.891.04-2.21-1.006-3.977-1.245-5.942l.924 1.67c-.64-4.588-.523-9.105.523-13.598z"/><path fill="#fff" fill-opacity="0.46" d="M54.988 48.986c-1.846 2.652-2.688 5.623-2.868 8.819-.41-.962-.51-3.895-.23-6.164.257-2.065.549-4.124.841-6.305h-.697c-3.64 0-7.282.01-10.923-.011-.346 0-.745-.092-1.025-.28-4.725-3.193-9.433-6.409-14.146-9.622-.154-.103-.292-.23-.54-.428h36.513v.856c.015 6.93-.02 13.864.059 20.794.05 4.452 1.294 8.624 3.497 12.486.395.696.378 1.154-.048 1.82-1.639 2.567-3.204 5.181-4.799 7.775-.112.183-.236.357-.416.628-3.263-4.284-5.626-8.907-6.863-14.114.23.242.47.478.69.725.21.236.408.484.75.891.04-2.21-1.006-3.977-1.245-5.942l.924 1.67c-.64-4.588-.523-9.105.523-13.598z"/><defs><linearGradient id="a" x1="110.788" x2="43.6062" y1="38.7951" y2="91.6884" gradientUnits="userSpaceOnUse"><stop stop-color="#E0DEDE"/><stop offset="1" stop-color="#AE9E94" stop-opacity="0"/></linearGradient><linearGradient id="b" x1="110.788" x2="43.6062" y1="38.7951" y2="91.6884" gradientUnits="userSpaceOnUse"><stop stop-color="#E0DEDE"/><stop offset="1" stop-color="#AE9E94" stop-opacity="0"/></linearGradient><linearGradient id="c" x1="110.788" x2="43.6062" y1="38.7951" y2="91.6884" gradientUnits="userSpaceOnUse"><stop stop-color="#E0DEDE"/><stop offset="1" stop-color="#AE9E94" stop-opacity="0"/></linearGradient></defs></svg>