<svg xmlns="http://www.w3.org/2000/svg" width="40" height="72" fill="none" viewBox="0 0 40 72"><path fill="#fff" d="M8.278 30.283c-.126 1.487-.309 2.968-.36 4.46-.035.957.12 1.915.292 2.939-.493-3.688 2.211-5.296 4.915-7.234.585 1.547.55 2.907.04 4.24-.601 1.568-1.69 2.796-3.328 3.407-1.163.435-1.53 1.145-1.266 2.23.383 1.585.796 3.17 1.438 4.783-.298-3.242 1.965-5.174 3.746-7.591 1.421 1.651 1.627 3.336 1.244 5.136-.39 1.839-1.547 3.193-2.98 4.415-.36.308-.693 1.09-.532 1.442a27.5 27.5 0 0 0 2.813 4.74c-1.077-3.011.87-5.318 1.495-7.927 3.065 1.19 3.97 7.404.412 10.283 1.341 2.307 3.346 4.019 5.558 5.538l-.023-.022c3.494 2.764 7.241 5.065 11.704 6.166 2.229.55 4.4 1.316 6.554 2.186-2.601.137-5.024-.716-7.19-1.173-.275.561-.395 1.183-.785 1.52-2.658 2.333-5.723 2.647-9.069 1.629-1.197-.364-2.463-.534-3.706-.793 1.002-2.543 4.737-3.81 10.547-3.463-1.318-.682-2.355-1.216-3.386-1.756-1.043-.545-2.08-1.106-3.088-1.64-3.008 2.34-6.474 2.549-9.751.693-1.025-.578-2.131-1.029-3.174-1.574-.338-.176-.596-.484-.888-.732.31-.248.585-.578.94-.738 2.916-1.315 5.872-1.475 8.851-.176.292.127.607.198.911.292l-.378.314c-1.33-1.57-2.618-3.166-4.016-4.669-.246-.264-.98-.253-1.444-.154-3.197.66-5.826-.198-7.969-2.56-.802-.88-1.69-1.695-2.652-2.653 3.345-1.431 6.107-.06 9.097 1.26-.962-1.535-1.896-3.082-2.916-4.58-.132-.192-.693-.165-1.054-.165-2.893-.016-5.001-1.299-6.44-3.66C1.662 43.412.91 42.107 0 40.56c3.741-.253 6.17 1.426 8.221 3.892l.39-.149c-.499-1.7-.986-3.407-1.53-5.092-.046-.148-.481-.187-.739-.264-2.79-.859-4.497-2.62-5.059-5.428-.2-1.018-.584-1.998-.888-3 1.92-.468 4.48 1.426 6.457 4.41 0-.991-.097-1.999.023-2.979.166-1.304-.762-1.695-1.65-2.262-1.868-1.19-2.876-2.88-2.973-5.065-.058-1.31-.184-2.62-.298-4.228 3.122 1.36 4.514 3.622 5.116 6.474.126.028.252.05.372.077.367-1.497.762-2.989 1.077-4.497.04-.199-.252-.54-.481-.705-2.103-1.492-2.848-3.501-2.269-5.896.258-1.057.338-2.152.544-3.501 1.605.903 2.47 2.147 2.813 3.6.344 1.453.333 2.984.59 4.509.052-.33.098-.666.132-.887.47-.104.871-.137 1.226-.28 1.513-.611 2.985-1.322 4.52-1.872.974-.347 1.146.16.906 1.018-.596 2.114-2.664 3.887-5.036 3.766-1.776-.088-2.435.688-2.699 2.08a69 69 0 0 0-.716 4.856c-.046.38.172.782.27 1.178l-.03-.027z"/><path fill="#fff" d="M12.869 14.384c1.489-1.486 3.397-1.778 5.35-1.943.35-.028.716.094 1.072.143-.063.38-.023.82-.212 1.134-.911 1.558-2.395 2.395-4.194 2.488-.836.044-1.701-.401-2.635-.644-.132.248-.453.837-.7 1.294-.349-.782-.755-1.492-.99-2.246-.361-1.156-.923-2.367-.825-3.507.126-1.442.825-2.835 1.312-4.354 1.432 1.194 2.354 2.02 1.816 7.64zm20.845 50.295c-.069.627.017 1.123-.195 1.426s-.82.677-1.077.578c-2.56-.936-4.394-2.494-4.698-5.324-.103-.952-.384-1.888-.636-2.818-.298-1.085.212-1.222 1.129-.97 3.094.854 5.626 4.245 5.477 7.102zM21.78 61.15c-.005-.045 0-.105-.022-.133-2.275-2.5-1.788-5.521-1.742-8.467.017-.98.459-1.095 1.26-.737 3.444 1.536 4.916 7.085 2.647 10.173-.71-.28-1.438-.567-2.165-.859zM8.308 30.31c.012-3.55 1.937-6.06 5.403-6.963 1.048-.276.917.506.894 1.09-.144 3.033-2.9 5.582-6.325 5.851l.028.028zM20.424 5.323c1.22 0 2.43-.038 3.633.028.292.016.676.324.802.594.074.154-.23.556-.453.743-1.3 1.096-3.162.854-4.509-.137-.996-.732-1.552-1.399-1.392-2.615.206-1.564 1.215-2.576 2.326-3.617.922 1.382.785 2.654-.407 5.004"/><path fill="#fff" d="M16.629 9.353q-.567.464-1.135.936c-2.52-2.12-1.237-5.367 1.192-7.773.922 1.343 1.198 2.736.728 4.261-.27.87-.545 1.734-.814 2.604zm-.022.028c1.49-1.101 3.174-1.349 4.984-1.079 1.031.154 1.232.545.556 1.349-1.06 1.26-3.14 1.888-4.772 1.415-.974-.281-1.375-.788-.745-1.712l-.029.027zm5.792-5.037c-.144-.27-.573-.705-.55-1.112.074-1.294 2.67-3.353 4.004-3.226.246.022.63.423.647.671.104 1.476-2.085 3.606-4.101 3.667"/></svg>