<svg xmlns="http://www.w3.org/2000/svg" width="180" height="180" fill="none" viewBox="0 0 180 180"><path fill="#fff" d="M33.498 92V76.241h6.51q1.77 0 3.055.639 1.292.63 1.992 1.816.7 1.177.7 2.793 0 1.64-.715 2.785-.715 1.14-2.031 1.74-1.316.592-3.117.592h-4.116v-3.001h3.408q.863 0 1.44-.223.584-.231.884-.693.3-.47.3-1.2 0-.732-.3-1.208a1.8 1.8 0 0 0-.885-.724q-.585-.246-1.439-.246h-1.877V92zm8.872-7.202L46.294 92H42.14l-3.847-7.202zm10.767 7.425q-1.854 0-3.201-.73a5.06 5.06 0 0 1-2.062-2.102q-.716-1.37-.716-3.255 0-1.83.723-3.2a5.2 5.2 0 0 1 2.04-2.14q1.315-.77 3.1-.77 1.262 0 2.309.393a5 5 0 0 1 1.808 1.162q.762.77 1.185 1.9.423 1.125.423 2.579v.938H48.475v-2.185h6.771q-.008-.6-.284-1.07a1.93 1.93 0 0 0-.762-.73 2.2 2.2 0 0 0-1.1-.27q-.631 0-1.132.285a2.1 2.1 0 0 0-.792.762q-.293.477-.308 1.085v2.223q0 .724.285 1.27.285.54.808.839.523.3 1.246.3.5 0 .908-.139a1.9 1.9 0 0 0 .7-.407q.293-.27.44-.662l3.454.1a4.3 4.3 0 0 1-.946 2.024q-.724.854-1.901 1.33-1.177.47-2.724.47m11.294-6.964V92h-3.763V80.18h3.578v2.17h.131a3.32 3.32 0 0 1 1.34-1.7q.946-.623 2.254-.623 1.245 0 2.162.562.924.553 1.431 1.554.516.993.508 2.324V92H68.31v-6.794q.008-.985-.5-1.54-.5-.553-1.393-.553-.592 0-1.046.261-.447.254-.693.731-.238.477-.246 1.154m14.287 6.91a4.35 4.35 0 0 1-2.377-.677q-1.07-.677-1.709-2.031-.638-1.355-.638-3.363 0-2.085.662-3.432.661-1.346 1.73-1.993a4.4 4.4 0 0 1 2.317-.646q.93 0 1.593.323.662.315 1.092.816.432.5.655 1.038h.076v-5.963h3.763V92h-3.724v-1.916h-.115a3.7 3.7 0 0 1-.678 1.023 3.3 3.3 0 0 1-1.1.77q-.653.292-1.547.292m1.309-2.931q.684 0 1.17-.385.483-.393.746-1.1.261-.708.261-1.663 0-.97-.261-1.67-.254-.699-.747-1.077-.484-.377-1.17-.377-.7 0-1.184.385-.485.385-.74 1.085-.245.7-.245 1.654t.254 1.662q.253.709.73 1.1.486.386 1.186.386m13.76 2.985q-1.855 0-3.201-.73a5.06 5.06 0 0 1-2.062-2.102q-.716-1.37-.716-3.255 0-1.83.723-3.2a5.2 5.2 0 0 1 2.04-2.14q1.315-.77 3.1-.77 1.263 0 2.309.393a5 5 0 0 1 1.808 1.162q.762.77 1.185 1.9.423 1.125.423 2.579v.938H89.124v-2.185h6.771q-.008-.6-.284-1.07a1.93 1.93 0 0 0-.762-.73 2.2 2.2 0 0 0-1.1-.27q-.631 0-1.132.285a2.1 2.1 0 0 0-.792.762q-.293.477-.308 1.085v2.223q0 .724.285 1.27.285.54.807.839.524.3 1.247.3.5 0 .908-.139a1.9 1.9 0 0 0 .7-.407q.292-.27.439-.662l3.455.1a4.3 4.3 0 0 1-.947 2.024q-.723.854-1.9 1.33-1.177.47-2.724.47m7.531-.223V80.18h3.655v2.155h.123q.324-1.17 1.054-1.739a2.67 2.67 0 0 1 1.701-.577q.261 0 .539.039.276.03.515.1v3.27a3.6 3.6 0 0 0-.708-.146 6 6 0 0 0-.769-.054q-.67 0-1.208.3-.531.293-.839.823-.3.525-.3 1.231V92zm9.12 0V80.18h3.763V92zm1.886-13.197q-.794 0-1.362-.523-.57-.531-.57-1.277 0-.739.57-1.262.569-.531 1.362-.531.8 0 1.362.53.569.524.569 1.263 0 .746-.569 1.277a1.93 1.93 0 0 1-1.362.523m8.035 6.456V92h-3.763V80.18h3.578v2.17h.131a3.32 3.32 0 0 1 1.339-1.7q.946-.623 2.255-.623 1.246 0 2.162.562.922.553 1.431 1.554.516.993.508 2.324V92h-3.763v-6.794q.008-.985-.5-1.54-.5-.553-1.393-.553-.593 0-1.046.261-.447.254-.693.731-.239.477-.246 1.154m15.48 11.42q-1.685 0-2.886-.47-1.2-.47-1.885-1.285a3.56 3.56 0 0 1-.823-1.847l3.563-.2a1.4 1.4 0 0 0 .369.631q.277.27.716.416.446.146 1.046.146.947 0 1.562-.462.623-.453.623-1.593v-2.077h-.13q-.224.546-.678.977a3.2 3.2 0 0 1-1.131.677q-.669.246-1.539.246-1.293 0-2.37-.6-1.07-.607-1.716-1.877-.638-1.278-.638-3.286 0-2.07.661-3.409.663-1.346 1.732-1.993a4.4 4.4 0 0 1 2.316-.646q.931 0 1.593.323.67.315 1.1.816t.654 1.038h.108v-2.023h3.747v11.865q0 1.5-.754 2.532-.754 1.03-2.108 1.562-1.354.538-3.132.538m.115-7.58q.685 0 1.17-.362.485-.36.746-1.038.262-.678.262-1.624 0-.962-.262-1.654-.254-.7-.746-1.078-.484-.377-1.17-.377-.699 0-1.185.385-.485.385-.738 1.085-.246.693-.247 1.639 0 .946.254 1.624.255.677.731 1.038.486.362 1.185.362M62.17 104.14h-1.615a2 2 0 0 0-.255-.704 1.88 1.88 0 0 0-1.092-.85 2.5 2.5 0 0 0-.756-.113q-.72 0-1.278.363-.557.358-.873 1.054-.315.69-.315 1.688 0 1.016.315 1.71.32.691.873 1.045.557.35 1.274.35.397 0 .742-.104.35-.108.626-.315.281-.207.471-.509.195-.303.268-.691l1.615.008a3.5 3.5 0 0 1-.393 1.183 3.48 3.48 0 0 1-1.913 1.633 4.2 4.2 0 0 1-1.438.233q-1.166 0-2.081-.54t-1.443-1.559-.526-2.444q0-1.429.53-2.444.532-1.019 1.447-1.559t2.073-.54q.738 0 1.373.208.634.207 1.132.609.496.397.816.975.324.575.423 1.313m4.291 5.99q-.972 0-1.684-.428a2.9 2.9 0 0 1-1.105-1.196q-.39-.769-.39-1.796 0-1.029.39-1.801a2.9 2.9 0 0 1 1.105-1.201q.712-.427 1.684-.427t1.684.427 1.101 1.201q.393.772.393 1.801 0 1.027-.393 1.796-.389.768-1.1 1.196-.714.428-1.685.428m.009-1.253q.526 0 .88-.289.355-.294.527-.786.177-.492.178-1.097 0-.609-.178-1.101a1.74 1.74 0 0 0-.526-.79q-.354-.294-.881-.294-.54 0-.898.294a1.77 1.77 0 0 0-.532.79 3.3 3.3 0 0 0-.172 1.101q0 .605.172 1.097.177.492.531.786.36.29.899.289M70.966 110v-6.633h1.494v1.127h.078q.207-.57.686-.889.48-.324 1.145-.324.673 0 1.135.328.466.324.657.885h.069q.22-.552.743-.881.526-.332 1.248-.332.915 0 1.494.579.578.578.578 1.688V110h-1.567v-4.21q0-.618-.328-.903a1.17 1.17 0 0 0-.804-.289q-.566 0-.885.354-.315.35-.315.911V110H74.86v-4.275q0-.514-.31-.82-.307-.307-.804-.307-.337 0-.613.173a1.2 1.2 0 0 0-.44.479q-.165.306-.165.717V110zm10.913 2.487v-9.12h1.537v1.097h.091q.12-.241.341-.514.22-.276.596-.47.375-.2.959-.199.768 0 1.386.393.622.388.984 1.153.368.76.368 1.865 0 1.094-.359 1.857-.358.764-.976 1.166a2.5 2.5 0 0 1-1.399.402q-.57 0-.946-.19a1.9 1.9 0 0 1-.604-.458 3 3 0 0 1-.35-.514h-.065v3.532zm1.533-5.803q0 .643.181 1.127.186.483.532.755.35.268.846.268.518 0 .868-.276.35-.28.527-.765.18-.488.181-1.109a3.2 3.2 0 0 0-.177-1.097 1.65 1.65 0 0 0-.527-.752q-.35-.272-.872-.272-.501 0-.85.264-.35.263-.532.738-.177.475-.177 1.119m9.003 3.446q-.997 0-1.723-.415a2.8 2.8 0 0 1-1.11-1.183q-.387-.77-.388-1.81 0-1.023.389-1.796a2.94 2.94 0 0 1 1.097-1.209q.703-.436 1.653-.436.614 0 1.158.199.548.194.967.604.423.41.665 1.045.242.63.242 1.503v.479h-5.437v-1.054h3.938a1.7 1.7 0 0 0-.194-.798 1.4 1.4 0 0 0-.531-.557 1.5 1.5 0 0 0-.786-.203q-.48 0-.842.233-.363.228-.566.604-.198.372-.203.816v.92q0 .579.212.993.212.41.591.631.38.216.89.216a1.9 1.9 0 0 0 .618-.095q.276-.1.479-.29t.306-.47l1.46.164a2.3 2.3 0 0 1-.527 1.01 2.6 2.6 0 0 1-.984.665 3.8 3.8 0 0 1-1.374.234m7.584-6.763v1.209h-3.813v-1.209zm-2.871-1.589h1.563v6.227q0 .315.095.484a.5.5 0 0 0 .259.224 1 1 0 0 0 .354.061q.147 0 .268-.022.125-.021.19-.039l.263 1.222a3 3 0 0 1-.358.095q-.23.052-.562.061a2.6 2.6 0 0 1-1.058-.177 1.65 1.65 0 0 1-.747-.614q-.27-.414-.267-1.036zm4.179 8.222v-6.633h1.563V110zm.786-7.574a.9.9 0 0 1-.64-.246.8.8 0 0 1-.267-.6q0-.355.267-.601a.9.9 0 0 1 .64-.25q.375 0 .639.25a.8.8 0 0 1 .267.601.8.8 0 0 1-.267.6.9.9 0 0 1-.639.246m5.696.941v1.209h-3.813v-1.209zm-2.871-1.589h1.563v6.227q0 .315.095.484a.5.5 0 0 0 .259.224 1 1 0 0 0 .354.061q.147 0 .268-.022.125-.021.19-.039l.263 1.222a3 3 0 0 1-.358.095q-.23.052-.562.061a2.6 2.6 0 0 1-1.058-.177 1.66 1.66 0 0 1-.747-.614q-.272-.414-.267-1.036zm4.179 8.222v-6.633h1.563V110zm.786-7.574a.9.9 0 0 1-.64-.246.8.8 0 0 1-.267-.6q0-.355.267-.601a.9.9 0 0 1 .64-.25q.375 0 .639.25a.8.8 0 0 1 .267.601.8.8 0 0 1-.267.6.9.9 0 0 1-.639.246m5.277 7.704q-.971 0-1.684-.428a2.9 2.9 0 0 1-1.105-1.196q-.389-.769-.389-1.796 0-1.029.389-1.801a2.9 2.9 0 0 1 1.105-1.201q.713-.427 1.684-.427.972 0 1.685.427.712.428 1.101 1.201.393.772.393 1.801 0 1.027-.393 1.796a2.9 2.9 0 0 1-1.101 1.196q-.713.428-1.685.428m.009-1.253q.527 0 .881-.289.354-.294.527-.786.177-.492.177-1.097 0-.609-.177-1.101a1.74 1.74 0 0 0-.527-.79q-.354-.294-.881-.294-.54 0-.898.294a1.8 1.8 0 0 0-.531.79 3.3 3.3 0 0 0-.173 1.101q0 .605.173 1.097.177.492.531.786.358.29.898.289m6.06-2.763V110h-1.564v-6.633h1.494v1.127h.078a1.9 1.9 0 0 1 .73-.885q.505-.328 1.248-.328.686 0 1.196.294.514.293.795.85.285.557.28 1.352V110h-1.563v-3.981q0-.666-.345-1.041-.342-.376-.946-.376-.41 0-.73.182-.315.177-.496.513a1.74 1.74 0 0 0-.177.817"/><path fill="#fff" fill-rule="evenodd" d="M142.261 113c-8.904 20.591-29.4 35-53.261 35s-44.357-14.409-53.26-35h-1.09c8.965 21.158 29.924 36 54.349 36s45.384-14.842 54.349-36zM36.183 66C45.31 45.944 65.527 32 89 32s43.689 13.944 52.817 34h1.097C133.72 45.376 113.039 31 89 31S44.28 45.376 35.086 66z" clip-rule="evenodd"/></svg>