<svg xmlns="http://www.w3.org/2000/svg" width="191" height="63" fill="none"><rect width="6" height="58" y="2.5" fill="#7896FF" rx="2.626"/><path fill="#fff" d="M44.12 13.852q0 1.968-1.357 3.279-1.334 1.29-4.092 1.289h-3.03V25h-2.058V9.24h5.088q2.668 0 4.047 1.288 1.402 1.29 1.402 3.324m-5.45 2.872q1.719 0 2.533-.746t.814-2.126q0-2.916-3.346-2.917h-3.03v5.789zm10.065-2.103a3.97 3.97 0 0 1 1.538-1.65q1.017-.589 2.464-.588v2.125h-.542q-3.46 0-3.46 3.754V25h-2.057V12.609h2.057zm11.782 10.582q-1.74 0-3.166-.79a5.75 5.75 0 0 1-2.216-2.24q-.79-1.47-.791-3.391 0-1.9.814-3.347.837-1.47 2.261-2.238 1.425-.792 3.189-.792 1.763 0 3.188.792a5.56 5.56 0 0 1 2.238 2.216q.837 1.446.837 3.369 0 1.922-.86 3.392a5.8 5.8 0 0 1-2.283 2.238q-1.447.791-3.21.791zm0-1.808a4.35 4.35 0 0 0 2.08-.52q.974-.52 1.56-1.56.612-1.04.611-2.533 0-1.493-.588-2.533t-1.537-1.537a4.2 4.2 0 0 0-2.058-.52 4.26 4.26 0 0 0-2.08.52q-.927.497-1.493 1.537-.565 1.04-.565 2.533 0 1.515.543 2.555.565 1.04 1.492 1.56a4.24 4.24 0 0 0 2.035.498m10.167-12.799q-.587 0-.994-.407a1.4 1.4 0 0 1-.385-.995q0-.588.385-.995.406-.407.995-.407.587 0 .972.407.407.408.407.995c0 .587-.136.724-.407.995a1.28 1.28 0 0 1-.972.407zm1.018 17.095q0 1.65-.837 2.42-.836.768-2.442.768h-1.198v-1.741h.86q.858 0 1.198-.34.36-.338.361-1.152V12.609h2.058zm14.79-9.361q0 .587-.069 1.243H76.52q.113 1.831 1.244 2.872 1.153 1.017 2.781 1.017 1.335 0 2.216-.61a3.33 3.33 0 0 0 1.267-1.673h2.216a5.38 5.38 0 0 1-1.99 2.917q-1.492 1.107-3.709 1.107-1.763 0-3.165-.79a5.64 5.64 0 0 1-2.171-2.24q-.792-1.47-.791-3.391 0-1.923.768-3.37.77-1.447 2.148-2.215 1.402-.792 3.211-.792 1.764 0 3.12.769a5.23 5.23 0 0 1 2.081 2.126q.747 1.334.746 3.03m-2.126-.43q0-1.176-.52-2.013a3.27 3.27 0 0 0-1.425-1.289 4.25 4.25 0 0 0-1.967-.452q-1.56 0-2.668.995-1.085.995-1.244 2.759zm4.073.882q0-1.922.768-3.347.769-1.447 2.126-2.238 1.38-.792 3.143-.792 2.284 0 3.754 1.108 1.492 1.108 1.967 3.075h-2.216a3.16 3.16 0 0 0-1.244-1.786q-.905-.656-2.261-.656-1.764 0-2.85 1.221-1.085 1.199-1.085 3.415 0 2.238 1.086 3.46 1.085 1.22 2.849 1.22 1.356 0 2.261-.633t1.244-1.809h2.216q-.498 1.9-1.99 3.053-1.493 1.13-3.731 1.13-1.764 0-3.143-.79-1.357-.793-2.126-2.24t-.768-3.391m17.013-4.477v7.303q0 .904.385 1.29.384.36 1.334.36h1.515V25h-1.854q-1.719 0-2.578-.791-.86-.792-.859-2.6v-7.304h-1.606v-1.696h1.606v-3.12h2.057v3.12h3.234v1.696zm17.16 10.898q-1.741 0-3.166-.79a5.75 5.75 0 0 1-2.216-2.24q-.792-1.47-.792-3.391 0-1.9.815-3.347.836-1.47 2.261-2.238 1.424-.792 3.188-.792t3.188.792a5.56 5.56 0 0 1 2.239 2.216q.837 1.446.837 3.369 0 1.922-.86 3.392a5.8 5.8 0 0 1-2.284 2.238q-1.447.791-3.21.791m0-1.808q1.107 0 2.08-.52.972-.52 1.56-1.56.61-1.04.611-2.533 0-1.493-.588-2.533t-1.538-1.537a4.2 4.2 0 0 0-2.058-.52 4.26 4.26 0 0 0-2.08.52q-.927.497-1.492 1.537-.566 1.04-.566 2.533 0 1.515.543 2.555.565 1.04 1.492 1.56a4.24 4.24 0 0 0 2.036.498m20.048-10.786V25h-2.057v-1.832q-.588.95-1.651 1.493-1.04.52-2.306.52-1.447 0-2.601-.588-1.153-.61-1.831-1.809-.656-1.198-.656-2.917V12.61h2.035v6.987q0 1.83.927 2.826.927.973 2.533.973 1.65 0 2.6-1.018t.95-2.962V12.61zm5.985 1.696v7.303q0 .904.384 1.29.384.36 1.334.36h1.515V25h-1.854q-1.719 0-2.578-.791-.86-.792-.859-2.6v-7.304h-1.606v-1.696h1.606v-3.12h2.058v3.12h3.233v1.696zm7.784.588q.61-1.064 1.809-1.764 1.221-.724 2.826-.724 1.652 0 2.985.792 1.357.79 2.126 2.238.768 1.425.768 3.324 0 1.877-.768 3.347-.769 1.469-2.126 2.284-1.333.813-2.985.813-1.582 0-2.804-.7-1.197-.724-1.831-1.787v8.163h-2.058V12.61h2.058zm8.412 3.866q0-1.401-.566-2.442-.565-1.04-1.537-1.583a4.16 4.16 0 0 0-2.103-.543 4.1 4.1 0 0 0-2.103.566q-.95.543-1.538 1.605-.565 1.04-.565 2.42 0 1.401.565 2.464.588 1.04 1.538 1.606a4.24 4.24 0 0 0 2.103.543 4.16 4.16 0 0 0 2.103-.543 4.05 4.05 0 0 0 1.537-1.606q.566-1.062.566-2.487m15.8-6.15V25h-2.057v-1.832q-.588.95-1.651 1.493-1.04.52-2.306.52-1.448 0-2.601-.588-1.153-.61-1.831-1.809-.656-1.198-.656-2.917V12.61h2.035v6.987q0 1.83.927 2.826.927.973 2.533.973 1.65 0 2.6-1.018t.95-2.962V12.61zm5.985 1.696v7.303q0 .904.384 1.29.384.36 1.334.36h1.515V25h-1.854q-1.719 0-2.578-.791-.86-.792-.859-2.6v-7.304h-1.606v-1.696h1.606v-3.12h2.058v3.12h3.233v1.696zM39.905 43.945h2.946c.213-.543.407-1.183.581-1.764h-4.148v-1.628h11.067v1.628h-4.787c-.29.62-.562 1.24-.853 1.764h4.497v8.973h-1.822v-7.365h-5.737v7.424h-1.744zm-.834 6.396.233 1.511a249 249 0 0 1-6.435 2.23l-.426-1.9c.717-.194 1.628-.446 2.655-.698v-7.85h-2.345V41.93h6.221v1.706h-2.093v7.326l2.19-.62zm6.396-3.877v4.012c0 2.578-1.008 5.369-6.415 7.036-.233-.388-.756-1.047-1.144-1.376 5.175-1.376 5.757-3.702 5.757-5.68v-3.992zm-.349 7.87 1.124-1.106c1.435.853 3.334 2.152 4.264 3.005l-1.201 1.24c-.892-.892-2.733-2.229-4.187-3.14zm10.912.019h9.575V51.58H56.03v2.772zm9.575-7.269H56.03v2.791h9.575zm0-4.457H56.03v2.752h9.575zm-11.397-1.764h13.296v16.532h-1.9v-1.279H56.03v1.28h-1.822zm33.899 1.047v1.725h-15.35V41.91h6.957c-.27-.563-.64-1.24-1.027-1.745l1.822-.484c.543.678 1.105 1.608 1.376 2.229zm.484 5.058v1.764H74.87v.91c0 2.346-.349 5.796-2.074 8.083-.29-.368-1.105-1.047-1.492-1.28 1.512-2.034 1.686-4.845 1.686-6.84v-2.637h4.167c-.31-.756-.95-1.841-1.531-2.655l1.57-.64c.62.795 1.357 1.92 1.667 2.675l-1.376.62h4.806c.523-.891 1.163-2.229 1.493-3.178l1.996.64c-.562.871-1.124 1.802-1.648 2.538zm16.785 2.365h1.996v8.179h-1.996v-1.066H91.925v-7.113h2.016v5.31h4.69V48.21h-5.776v-6.784h1.9v5.04h3.876v-6.707h1.996v6.706h3.993v-5.039h1.996v6.784h-5.989v6.434h4.749z"/></svg>