<svg xmlns="http://www.w3.org/2000/svg" width="219" height="63" fill="none"><rect width="6" height="58" y="2.5" fill="#7896FF" rx="2.626"/><path fill="#fff" d="M38.58 25.158q-1.56 0-2.803-.542-1.221-.566-1.922-1.538-.702-.995-.724-2.284h2.194q.112 1.108.904 1.877.814.746 2.352.746 1.47 0 2.306-.723.86-.747.86-1.9 0-.905-.498-1.47a3.2 3.2 0 0 0-1.244-.859q-.746-.294-2.012-.633-1.56-.407-2.51-.814a4.2 4.2 0 0 1-1.606-1.266q-.655-.882-.655-2.352 0-1.289.655-2.284.657-.995 1.832-1.537 1.198-.543 2.736-.543 2.215 0 3.618 1.108 1.425 1.108 1.605 2.94h-2.26q-.114-.905-.95-1.583-.837-.701-2.216-.701-1.29 0-2.103.678-.815.656-.815 1.854 0 .86.475 1.402.498.542 1.199.837.723.27 2.012.633 1.56.43 2.51.86a4.05 4.05 0 0 1 1.628 1.288q.679.86.679 2.352a4.15 4.15 0 0 1-.61 2.17q-.611 1.019-1.81 1.651t-2.826.633zm10.332-10.266q.61-1.062 1.81-1.763 1.22-.724 2.826-.724 1.65 0 2.985.792 1.356.79 2.125 2.238.77 1.425.769 3.324 0 1.877-.769 3.347t-2.125 2.284q-1.335.813-2.985.813-1.583 0-2.804-.7-1.199-.724-1.832-1.787v8.163h-2.057V12.61h2.057v2.284zm8.412 3.867q0-1.401-.565-2.442-.566-1.04-1.538-1.583a4.16 4.16 0 0 0-2.103-.543 4.1 4.1 0 0 0-2.103.566q-.95.543-1.537 1.605-.566 1.04-.566 2.42 0 1.401.566 2.464.588 1.04 1.537 1.606.973.543 2.103.543a4.16 4.16 0 0 0 2.103-.543 4.05 4.05 0 0 0 1.538-1.606q.565-1.062.565-2.487m16.117-.43q0 .588-.067 1.244H63.47q.113 1.831 1.243 2.872 1.154 1.017 2.781 1.017 1.335 0 2.216-.61a3.33 3.33 0 0 0 1.267-1.673h2.216a5.38 5.38 0 0 1-1.99 2.917q-1.492 1.107-3.709 1.107-1.763 0-3.165-.79a5.64 5.64 0 0 1-2.171-2.24q-.792-1.47-.791-3.391 0-1.923.768-3.37.77-1.447 2.149-2.215 1.401-.792 3.21-.792 1.764 0 3.12.769a5.23 5.23 0 0 1 2.081 2.126q.746 1.334.746 3.03zm-2.125-.43q0-1.175-.52-2.012a3.27 3.27 0 0 0-1.425-1.289 4.25 4.25 0 0 0-1.967-.452q-1.56 0-2.668.995-1.086.995-1.244 2.759zm4.073.883q0-1.922.768-3.347.77-1.447 2.126-2.238 1.38-.792 3.143-.792 2.284 0 3.754 1.108 1.491 1.108 1.967 3.075H84.93a3.16 3.16 0 0 0-1.244-1.786q-.904-.656-2.261-.656-1.764 0-2.85 1.221-1.084 1.199-1.084 3.415 0 2.238 1.085 3.46 1.085 1.22 2.849 1.22 1.356 0 2.261-.633t1.244-1.809h2.216q-.498 1.9-1.99 3.053-1.493 1.13-3.731 1.13-1.764 0-3.143-.79-1.356-.793-2.126-2.24-.768-1.447-.768-3.391zm15.566-8.186q-.587 0-.995-.407a1.35 1.35 0 0 1-.407-.995q0-.588.407-.995t.995-.407q.566 0 .95.407.407.407.407.995c0 .588-.136.724-.407.995a1.25 1.25 0 0 1-.95.407m.995 2.013V25h-2.058V12.609zm8.55 1.696h-2.6V25h-2.06V14.305h-1.605v-1.696h1.605v-.882q0-2.08 1.063-3.03 1.086-.972 3.46-.973v1.719q-1.357 0-1.922.543-.543.52-.543 1.74v.883h2.601zm3.461-3.709q-.587 0-.994-.407a1.35 1.35 0 0 1-.407-.995q0-.588.407-.995t.994-.407q.566 0 .95.407.407.407.407.995c0 .588-.136.724-.407.995a1.25 1.25 0 0 1-.95.407m.995 2.013V25h-2.057V12.609zm2.739 6.173q0-1.922.768-3.347.769-1.447 2.126-2.238 1.379-.792 3.143-.792 2.284 0 3.753 1.108 1.493 1.108 1.968 3.075h-2.216a3.16 3.16 0 0 0-1.244-1.786q-.905-.656-2.261-.656-1.764 0-2.849 1.221-1.086 1.199-1.086 3.415 0 2.238 1.086 3.46 1.085 1.22 2.849 1.22 1.356 0 2.261-.633t1.244-1.809h2.216q-.498 1.9-1.99 3.053-1.493 1.13-3.731 1.13-1.764 0-3.143-.79-1.357-.793-2.126-2.24t-.768-3.391m22.589-3.89q.61-1.062 1.809-1.763 1.221-.724 2.827-.724 1.65 0 2.985.792 1.356.79 2.125 2.238.77 1.425.769 3.324 0 1.877-.769 3.347t-2.125 2.284q-1.335.813-2.985.813-1.583 0-2.804-.7-1.199-.724-1.832-1.787v8.163h-2.057V12.61h2.057v2.284zm8.412 3.867q0-1.401-.565-2.442-.566-1.04-1.538-1.583a4.16 4.16 0 0 0-2.103-.543 4.1 4.1 0 0 0-2.103.566q-.95.543-1.537 1.605-.566 1.04-.566 2.42 0 1.401.566 2.464.588 1.04 1.537 1.606a4.24 4.24 0 0 0 2.103.543 4.16 4.16 0 0 0 2.103-.543 4.05 4.05 0 0 0 1.538-1.606q.565-1.062.565-2.487m6.869-4.138a3.97 3.97 0 0 1 1.538-1.65q1.017-.589 2.464-.588v2.125h-.542q-3.46 0-3.46 3.754V25h-2.058V12.609h2.058zm11.782 10.582q-1.741 0-3.166-.79a5.76 5.76 0 0 1-2.216-2.24q-.79-1.47-.791-3.391 0-1.9.814-3.347.836-1.47 2.261-2.238 1.425-.792 3.188-.792t3.189.792a5.55 5.55 0 0 1 2.238 2.216q.837 1.446.837 3.369 0 1.922-.859 3.392a5.8 5.8 0 0 1-2.284 2.238q-1.447.791-3.211.791m0-1.808a4.35 4.35 0 0 0 2.08-.52q.973-.52 1.56-1.56.611-1.04.611-2.533t-.588-2.533q-.587-1.04-1.538-1.537a4.2 4.2 0 0 0-2.057-.52q-1.13 0-2.08.52-.928.497-1.493 1.537t-.565 2.533q0 1.515.543 2.555.565 1.04 1.492 1.56a4.24 4.24 0 0 0 2.035.498m10.167-12.799q-.588 0-.995-.407a1.4 1.4 0 0 1-.384-.995q0-.588.384-.995.407-.407.995-.407c.588 0 .716.136.973.407q.407.408.407.995c0 .587-.136.724-.407.995a1.28 1.28 0 0 1-.973.407m1.018 17.095q0 1.65-.837 2.42-.836.768-2.442.768h-1.198v-1.741h.859q.86 0 1.198-.34.362-.338.362-1.152V12.609h2.058zm14.789-9.361q0 .587-.068 1.243h-9.904q.114 1.831 1.244 2.872 1.154 1.017 2.781 1.017 1.334 0 2.216-.61a3.33 3.33 0 0 0 1.266-1.673h2.216a5.38 5.38 0 0 1-1.989 2.917q-1.492 1.107-3.709 1.107-1.764 0-3.165-.79a5.64 5.64 0 0 1-2.171-2.24q-.792-1.47-.792-3.391 0-1.923.769-3.37.77-1.447 2.148-2.215 1.402-.792 3.211-.792 1.764 0 3.121.769a5.23 5.23 0 0 1 2.08 2.126q.746 1.334.746 3.03m-2.125-.43q0-1.176-.52-2.013a3.3 3.3 0 0 0-1.425-1.289 4.25 4.25 0 0 0-1.967-.452q-1.56 0-2.668.995-1.086.995-1.244 2.759zm4.072.882q0-1.922.769-3.347.769-1.447 2.126-2.238 1.379-.792 3.143-.792 2.284 0 3.753 1.108 1.493 1.108 1.968 3.075h-2.216a3.16 3.16 0 0 0-1.244-1.786q-.905-.656-2.261-.656-1.764 0-2.849 1.221-1.086 1.199-1.086 3.415 0 2.238 1.086 3.46 1.085 1.22 2.849 1.22 1.356 0 2.261-.633t1.244-1.809h2.216q-.498 1.9-1.99 3.053-1.493 1.13-3.731 1.13-1.764 0-3.143-.79-1.357-.793-2.126-2.24t-.769-3.391m17.014-4.477v7.303q0 .904.385 1.29.384.36 1.334.36h1.515V25h-1.855q-1.718 0-2.577-.791-.86-.792-.86-2.6v-7.304h-1.605v-1.696h1.605v-3.12h2.058v3.12h3.234v1.696zm10.114 10.898q-1.425 0-2.556-.474-1.13-.498-1.786-1.357a3.7 3.7 0 0 1-.724-2.012h2.126q.09.926.859 1.515.792.587 2.058.587 1.176 0 1.854-.52t.678-1.311q0-.814-.723-1.199-.724-.407-2.239-.791-1.379-.361-2.261-.724a4.3 4.3 0 0 1-1.492-1.108q-.61-.745-.611-1.944 0-.95.565-1.741.566-.792 1.606-1.244 1.04-.475 2.374-.475 2.058 0 3.324 1.04t1.357 2.85h-2.058q-.068-.974-.791-1.56-.702-.59-1.9-.589-1.107 0-1.763.475t-.656 1.244q0 .61.384 1.017.407.386.995.633.61.227 1.673.52 1.334.363 2.171.724a3.6 3.6 0 0 1 1.425 1.04q.61.701.633 1.832a3.14 3.14 0 0 1-.565 1.831q-.565.815-1.606 1.29-1.017.45-2.351.451M37.502 50.244v1.473h8.217v-1.473zm8.217-8.121h-8.217v1.376h8.217zm0 5.388h-8.217v1.395h8.217zm0-1.338v-1.356h-8.217v1.356zm4.536 7.172h-5.543c2.073.872 4.322 2.015 5.66 2.83l-1.396 1.317c-1.318-.872-3.528-2.093-5.621-3.023l1.027-1.124H38.18l1.55 1.046c-1.492 1.163-3.856 2.384-5.814 3.101-.29-.368-.872-.95-1.298-1.318 1.938-.64 4.283-1.821 5.465-2.83H32.89v-1.627h2.81V40.669h11.9v11.048h2.656zm5.64-13.51 1.686.485c-.426 1.318-1.008 2.636-1.628 3.915v13.257h-1.725V47.22a27 27 0 0 1-1.434 1.9c-.175-.427-.698-1.415-1.008-1.822 1.667-1.822 3.179-4.652 4.109-7.462zm13.76 5.311h-4.534c1.104 3.12 3.004 6.241 5 7.927a7 7 0 0 0-1.376 1.435c-1.822-1.803-3.489-4.826-4.632-7.986v5.95h2.868v1.629h-2.868v3.314h-1.764V54.1h-2.888v-1.629h2.888V46.64c-1.182 3.178-2.868 6.105-4.768 7.927-.271-.446-.891-1.066-1.28-1.376 2.055-1.706 3.955-4.865 5.098-8.044h-4.244v-1.705h5.194v-3.605h1.764v3.605h5.543v1.705zm9.013-1.201h2.946c.214-.543.407-1.183.582-1.764h-4.148v-1.628h11.067v1.628h-4.787c-.29.62-.562 1.24-.853 1.764h4.497v8.973H86.15v-7.365h-5.737v7.424h-1.745zm-.833 6.396.233 1.511a249 249 0 0 1-6.435 2.23l-.427-1.9c.718-.194 1.629-.446 2.656-.698v-7.85h-2.346V41.93h6.222v1.706h-2.093v7.326l2.19-.62zm6.396-3.877v4.012c0 2.578-1.008 5.369-6.415 7.036-.233-.388-.756-1.047-1.144-1.376 5.175-1.376 5.756-3.702 5.756-5.68v-3.992zm-.349 7.87 1.124-1.106c1.434.853 3.334 2.152 4.264 3.005l-1.201 1.24c-.892-.892-2.733-2.229-4.187-3.14zm10.912.019h9.574V51.58h-9.574v2.772zm9.574-7.269h-9.574v2.791h9.574zm0-4.457h-9.574v2.752h9.574zm-11.396-1.764h13.296v16.532h-1.9v-1.279h-9.574v1.28h-1.822z"/></svg>