<svg xmlns="http://www.w3.org/2000/svg" width="40" height="72" fill="none" viewBox="0 0 40 72"><path fill="#fff" d="M33.54 34.726c1.513-2.21 3.202-3.97 6.032-4.51-.514 4.367-1.518 7.612-5.826 8.79-.337.093-.747.45-.839.764a35 35 0 0 0-1.05 4.548c2.197-2.348 4.697-3.921 8.143-3.833-2.009 4.163-3.64 8.058-8.919 7.87-.433-.016-1.038.44-1.3.837-.936 1.419-1.758 2.91-2.557 4.262 1.427-.61 2.87-1.32 4.382-1.853 1.598-.567 3.23-.622 4.822.181-2.157 3.9-6.47 5.957-10.688 5.181-.382-.071-.964-.104-1.18.105-1.45 1.413-2.82 2.893-4.235 4.372 3.63-1.457 7.179-1.655 10.728.853-2.14 1.056-3.949 2.035-5.838 2.854-2.67 1.155-5.192.523-7.612-.814-.313-.176-.816-.396-1.06-.275a82 82 0 0 0-5.467 2.96c3.954-.446 7.395.34 9.951 3.536-3.275.093-6.248 2.42-9.592.973-1.152-.5-2.242-1.166-3.264-1.886-.32-.226-.325-.87-.462-1.287-2.3.456-4.867.973-7.435 1.485L0 69.157c9.7-1.837 18.06-5.814 24.234-13.514-1.855-1.562-2.62-3.487-2.5-5.67.098-1.837.81-3.454 2.643-4.846.827 2.706 2.545 5.027 1.54 7.992 1.444-1.502 2.545-3.146 3.03-5.088.074-.297-.388-.847-.742-1.105-2.756-2.019-3.76-5.05-2.573-8.041.171-.43.502-.803.896-1.414 1.735 2.486 4.063 4.367 3.486 7.618l.422-.033c.417-1.42.88-2.833 1.233-4.268.308-1.265.023-2.129-1.42-2.811-3.03-1.42-4.263-4.626-2.968-7.43 2.128 1.682 4.719 2.86 5.056 6.005 0-1.732.005-3.465 0-5.197 0-.363-.063-.726-.109-1.084-.262-2.018-.53-4.031-.793-6.05-.194-1.512-1.09-1.974-2.642-2.002-2.796-.05-4.861-2.046-5.09-4.801 1.923.115 3.698.445 5.256 1.6.496.369 1.09.616 1.917 1.073-.143-2.42-.063-4.433 1.3-6.133.44-.55.982-1.017 1.673-1.44.165 2.315 1.512 4.487.376 6.748-.422.841-1.107 1.562-1.666 2.337-.257.358-.759.754-.719 1.084.16 1.303.485 2.59.776 3.872.029.115.286.176.56.335.65-2.865 1.985-5.148 4.85-6.369 1.09 3.212-.457 7.722-3.264 9.306-1.227.693-1.65 1.496-1.387 2.794.137.688.12 1.403.171 2.107z"/><path fill="#fff" d="M16.39 62.006c-2.157-3.525-.844-8.437 2.694-10.202.274-.138 1.147.192 1.147.291-.04 2.167.034 4.367-.348 6.49-.303 1.683-1.712 2.772-3.493 3.421m-2.933-4.438c-.388 1.804-.594 3.542-1.147 5.17-.696 2.04-2.34 3.289-4.48 3.85-.245.066-.804-.236-.89-.478-1.107-3.169 1.998-8.08 5.438-8.641.297-.05.622.05 1.079.093zM25.71 23.913c.16-.104.702-.616.856-.522 1.786 1.067 3.966 1.677 4.93 3.745.114.248.325.5.325.748 0 .71-.097 1.42-.148 2.129-.628-.072-1.29-.044-1.878-.237-2.282-.753-4.12-3.261-4.085-5.863M29.048 6.83c1.895 3.404 2.62 6.561-.633 9.317-1.427-2.002-1.518-6.793-.023-8.79.131-.17.348-.285.662-.527zm-9.054-1.485c-1.038-1.425-1.46-3.075-.77-4.923 1.7.803 2.955 2.965 2.499 4.554-.4 1.397-1.615 2.31-3.013 2.41-1.016.076-2.22-.402-3.093-.974-.679-.446-.034-1.012.605-1.045 1.238-.072 2.488-.022 3.772-.022m5.221 5.422c-1.934-2.607-3.64-5.131-1.41-8.668.817 1.612 1.85 2.899 2.066 4.301.211 1.392-.4 2.904-.656 4.367m.885 5.561c-2.208-.242-3.829-.902-4.827-2.546-.189-.314-.274-.776-.189-1.117.035-.137.662-.247.993-.198 1.62.237 3.401.088 4.594 1.485.394.462.896 1.172.77 1.612-.114.401-1.015.6-1.34.77zm-4.585-4.752c-1.102-.616-2.248-1.171-3.293-1.875-.525-.352-.673-.968.211-1.2 1.66-.434 3.299-.489 4.708.66.36.292.56.77.827 1.161-.416.27-.816.583-1.266.792-.286.132-.645.1-.976.138-.069.11-.143.214-.211.324"/><path fill="#fff" d="M17.077 4.289C15.86 4.245 13.87 2.386 13.83.714c-.006-.242.605-.765.765-.71 1.62.55 3.223 1.188 3.823 2.965.24.71.32 1.419-1.336 1.32z"/></svg>