<svg xmlns="http://www.w3.org/2000/svg" width="237" height="85" fill="none"><path fill="#fff" d="M1.4 14.865h8.512v1.988H1.4zm3.444-6.496h1.988v18.76H4.844zM1.008 27.94a109 109 0 0 0 2.548-.868q1.428-.532 3.052-1.12a359 359 0 0 1 3.22-1.204l.392 1.932a1117 1117 0 0 1-4.452 1.792 403 403 0 0 0-4.06 1.596zM10.5 9.349h11.732v1.988H10.5zm13.72 7.728h2.1l-.028.196v.448q0 .224-.028.392-.225 3.668-.448 6.244-.224 2.576-.476 4.256-.252 1.652-.56 2.576-.28.924-.672 1.372-.392.505-.84.7-.448.224-1.064.28a13 13 0 0 1-1.316.056q-.785 0-1.68-.056a5 5 0 0 0-.196-1.036 3.2 3.2 0 0 0-.392-.952q.868.084 1.596.084.756.027 1.12.028.336.027.532-.056.225-.084.448-.336.392-.42.728-1.848.337-1.456.616-4.34.308-2.884.56-7.588zM11.508 19.4a6 6 0 0 0-.252-.616 12 12 0 0 0-.308-.728 4 4 0 0 0-.336-.644q.532-.084 1.26-.448a18 18 0 0 0 1.568-.924q.42-.28 1.288-.868.896-.616 1.988-1.456a48 48 0 0 0 2.268-1.876 34 34 0 0 0 2.184-2.1v-.168l1.036-.392 1.568 1.176A82 82 0 0 1 18.2 14.92q-2.715 2.016-5.236 3.416v.056l-.224.112a3 3 0 0 0-.504.252 3.3 3.3 0 0 0-.504.308q-.224.168-.224.336m0 0v-1.764l1.176-.56h12.292l-.028 1.988H13.944q-.98 0-1.624.084-.615.084-.812.252m9.016-1.204 1.848.364q-1.428 5.124-3.976 8.96-2.52 3.808-6.16 6.244-.168-.195-.476-.42-.28-.225-.588-.448-.308-.196-.56-.336a19.2 19.2 0 0 0 6.16-5.908q2.464-3.668 3.752-8.456m-4.312.028 1.876.364q-.924 2.885-2.632 5.18-1.68 2.296-3.78 3.836a2.6 2.6 0 0 0-.448-.392 7 7 0 0 0-.588-.476 4 4 0 0 0-.532-.336 14.2 14.2 0 0 0 3.696-3.472 15.2 15.2 0 0 0 2.408-4.704m18.676-4.592v1.792h14.168v-1.792zm0-3.164v1.764h14.168v-1.764zM32.844 9.04h18.312v7.84H32.844zm-3.276 9.604h24.78v1.708h-24.78zm5.936 4.732v2.772h13.02v-2.772zm-2.016-1.568h17.136v5.908H33.488zm7.392-5.236h2.128v2.968H40.88zm.056 10.192h2.128v5.012q0 .755-.224 1.148-.225.42-.868.588-.588.195-1.596.224-1.008.056-2.492.056a3.7 3.7 0 0 0-.252-.868 4.7 4.7 0 0 0-.392-.812q.728.028 1.372.028.672.029 1.176 0h.672q.308-.028.392-.112t.084-.308zm4.648 2.716 1.372-1.176q1.232.448 2.632 1.092 1.4.616 2.66 1.288 1.26.644 2.1 1.232l-1.456 1.344q-.785-.589-2.016-1.288a43 43 0 0 0-2.632-1.316q-1.4-.672-2.66-1.176m-9.436-1.148 1.904.756a16.6 16.6 0 0 1-2.184 1.596 31 31 0 0 1-2.548 1.456 37 37 0 0 1-2.52 1.176 10 10 0 0 0-.476-.504l-.56-.56a3.6 3.6 0 0 0-.532-.448q1.232-.42 2.492-.98 1.288-.56 2.436-1.176a15 15 0 0 0 1.988-1.316m21.364-3.164h25.004v1.764H57.512zm4.704-10.248H79.52v1.512H62.216zm0 3.388h17.388v1.512H62.216zm-.336-6.972h18.788v1.736H61.88zm7.56 1.008h2.016v10.024H69.44V12.345zm-.56 10.584h2.1v10.836h-2.1zm-.448 2.884 1.652.812q-1.064 1.092-2.464 2.128a33 33 0 0 1-2.968 1.932 33 33 0 0 1-3.248 1.596 30 30 0 0 1-3.192 1.204q-.252-.392-.644-.924a5 5 0 0 0-.756-.84 42 42 0 0 0 3.22-1.008 31 31 0 0 0 3.192-1.4 35 35 0 0 0 2.912-1.68q1.344-.896 2.296-1.82m3.052-.028q.952.924 2.268 1.82 1.344.868 2.912 1.624a45 45 0 0 0 3.22 1.344q1.652.588 3.22.952-.225.225-.476.532-.252.307-.476.616-.225.308-.392.588a30 30 0 0 1-3.248-1.148 32 32 0 0 1-3.248-1.54 31 31 0 0 1-2.996-1.848 17 17 0 0 1-2.436-2.1zm-.756-17.752 2.352.308a44 44 0 0 1-1.204 2.24 21 21 0 0 1-1.176 1.876l-1.848-.392q.504-.84 1.036-1.988a15 15 0 0 0 .84-2.044m-7.308-.056 2.184.42a39 39 0 0 1-1.876 3.164 31 31 0 0 1-2.436 3.164 24 24 0 0 1-3.024 2.94 5 5 0 0 0-.448-.504 4.5 4.5 0 0 0-.532-.504 3 3 0 0 0-.532-.392 21.4 21.4 0 0 0 2.828-2.66 23.6 23.6 0 0 0 2.24-2.884 22 22 0 0 0 1.596-2.744m-2.548 4.536h2.016v9.24H81.76v1.68H60.872zm30.072 4.676h14.14v1.876h-14.14zm-.504 13.58h15.008v1.876H90.44zm-.952-8.176h17.136V33.82h-2.128v-9.324H91.56v9.324h-2.072V22.593zm8.456-12.432q-1.148 1.708-2.996 3.528a38 38 0 0 1-4.06 3.5 35 35 0 0 1-4.62 2.968 9 9 0 0 0-.364-.532q-.225-.308-.476-.616a4 4 0 0 0-.476-.504 31 31 0 0 0 4.732-2.996A33 33 0 0 0 93.8 11.84q1.848-1.932 2.94-3.752h2.156a27 27 0 0 0 2.548 3.052q1.456 1.484 3.08 2.8a40 40 0 0 0 3.36 2.408 28.5 28.5 0 0 0 3.388 1.792 9 9 0 0 0-.728.896q-.364.504-.672.98A43 43 0 0 1 106.54 18a45 45 0 0 1-3.276-2.408 42 42 0 0 1-2.968-2.688 25 25 0 0 1-2.352-2.744m-89.6 63.589q-1.932 0-3.472-.672-1.512-.7-2.38-1.904-.868-1.232-.896-2.828h2.716q.14 1.373 1.12 2.324 1.008.924 2.912.924 1.82 0 2.856-.896 1.064-.924 1.064-2.352 0-1.12-.616-1.82a3.94 3.94 0 0 0-1.54-1.064q-.924-.364-2.492-.784-1.932-.504-3.108-1.008-1.148-.504-1.988-1.568-.812-1.092-.812-2.912 0-1.596.812-2.828.812-1.233 2.268-1.904 1.485-.672 3.388-.672 2.745 0 4.48 1.372 1.764 1.372 1.988 3.64h-2.8q-.14-1.12-1.176-1.96-1.035-.868-2.744-.868-1.596 0-2.604.84-1.008.811-1.008 2.296 0 1.065.588 1.736.615.672 1.484 1.036.896.336 2.492.784 1.932.533 3.108 1.064 1.176.504 2.016 1.596.84 1.064.84 2.912 0 1.428-.756 2.688t-2.24 2.044-3.5.784m9.294-7.896q0-2.38.952-4.144.951-1.793 2.632-2.772 1.707-.98 3.892-.98 2.827 0 4.648 1.372 1.848 1.371 2.436 3.808h-2.744q-.393-1.4-1.54-2.212-1.12-.812-2.8-.812-2.184 0-3.528 1.512-1.344 1.484-1.344 4.228 0 2.772 1.344 4.284t3.528 1.512q1.68 0 2.8-.784 1.12-.785 1.54-2.24h2.744q-.616 2.352-2.464 3.78-1.848 1.4-4.62 1.4-2.184 0-3.892-.98-1.68-.981-2.632-2.772-.952-1.792-.952-4.2m31.96-.56q0 .727-.085 1.54H37.25q.14 2.268 1.54 3.556 1.428 1.26 3.444 1.26 1.652 0 2.744-.756a4.12 4.12 0 0 0 1.568-2.072h2.744q-.615 2.212-2.464 3.612-1.847 1.371-4.592 1.372-2.184 0-3.92-.98-1.707-.981-2.688-2.772-.98-1.82-.98-4.2t.952-4.172q.953-1.793 2.66-2.744 1.737-.98 3.976-.98 2.184 0 3.864.952a6.47 6.47 0 0 1 2.576 2.632q.924 1.652.924 3.752m-2.633-.532q0-1.455-.644-2.492a4.05 4.05 0 0 0-1.764-1.596q-1.092-.56-2.436-.56-1.932 0-3.304 1.232-1.344 1.232-1.54 3.416zm13.472-6.832q2.799 0 4.536 1.708 1.736 1.68 1.736 4.872v9.044h-2.52v-8.68q0-2.296-1.148-3.5-1.149-1.233-3.136-1.232-2.017 0-3.22 1.26-1.176 1.26-1.176 3.668v8.484H52.96V58.209h2.548v2.184a5.1 5.1 0 0 1 2.044-1.82q1.315-.645 2.884-.644zm24.434 7.364q0 .727-.084 1.54H72.523q.14 2.268 1.54 3.556 1.428 1.26 3.444 1.26 1.652 0 2.744-.756a4.12 4.12 0 0 0 1.568-2.072h2.744q-.615 2.212-2.464 3.612-1.848 1.371-4.592 1.372-2.184 0-3.92-.98-1.709-.981-2.688-2.772-.98-1.82-.98-4.2t.952-4.172q.952-1.793 2.66-2.744 1.735-.98 3.976-.98 2.184 0 3.864.952a6.47 6.47 0 0 1 2.576 2.632q.924 1.652.924 3.752m-2.632-.532q0-1.455-.644-2.492a4.05 4.05 0 0 0-1.764-1.596q-1.092-.56-2.436-.56-1.933 0-3.304 1.232-1.345 1.232-1.54 3.416zm12.508-.98q0-2.856 1.288-5.124 1.288-2.295 3.5-3.584 2.24-1.288 4.956-1.288 3.192 0 5.572 1.54 2.38 1.539 3.472 4.368h-3.052q-.811-1.764-2.352-2.716-1.512-.952-3.64-.952-2.044 0-3.668.952t-2.548 2.716q-.924 1.736-.924 4.088 0 2.325.924 4.088.924 1.736 2.548 2.688t3.668.952q2.128 0 3.64-.924 1.54-.952 2.352-2.716h3.052q-1.092 2.8-3.472 4.34-2.38 1.512-5.572 1.512-2.716 0-4.956-1.26a9.4 9.4 0 0 1-3.5-3.556q-1.288-2.268-1.288-5.124m29.273 10.024q-2.156 0-3.92-.98-1.736-.981-2.744-2.772-.98-1.82-.98-4.2 0-2.352 1.008-4.144 1.036-1.821 2.8-2.772 1.764-.98 3.948-.98c2.184 0 2.772.326 3.948.98q1.764.953 2.772 2.744 1.036 1.792 1.036 4.172t-1.064 4.2a7.2 7.2 0 0 1-2.828 2.772q-1.792.98-3.976.98m0-2.24a5.4 5.4 0 0 0 2.576-.644q1.204-.645 1.932-1.932.756-1.288.756-3.136t-.728-3.136c-.728-1.288-1.12-1.493-1.904-1.904a5.2 5.2 0 0 0-2.548-.644 5.3 5.3 0 0 0-2.576.644q-1.147.615-1.848 1.904-.7 1.287-.7 3.136 0 1.875.672 3.164.7 1.288 1.848 1.932a5.25 5.25 0 0 0 2.52.616m13.766-18.732v20.72h-2.548v-20.72zm6.891 0v20.72h-2.548v-20.72zm18.342 12.46q0 .727-.084 1.54h-12.264q.14 2.268 1.54 3.556 1.428 1.26 3.444 1.26 1.652 0 2.744-.756a4.12 4.12 0 0 0 1.568-2.072h2.744q-.615 2.212-2.464 3.612-1.847 1.371-4.592 1.372-2.183 0-3.92-.98-1.707-.981-2.688-2.772-.98-1.82-.98-4.2t.952-4.172q.953-1.793 2.66-2.744 1.737-.98 3.976-.98 2.184 0 3.864.952a6.47 6.47 0 0 1 2.576 2.632q.924 1.652.924 3.752m-2.632-.532q0-1.455-.644-2.492a4.05 4.05 0 0 0-1.764-1.596q-1.092-.56-2.436-.56-1.932 0-3.304 1.232-1.344 1.232-1.54 3.416zm5.044 1.092q0-2.38.952-4.144.951-1.792 2.632-2.772 1.708-.98 3.892-.98 2.827 0 4.648 1.372 1.848 1.372 2.436 3.808h-2.744q-.393-1.4-1.54-2.212-1.12-.812-2.8-.812-2.184 0-3.528 1.512-1.344 1.484-1.344 4.228 0 2.772 1.344 4.284t3.528 1.512q1.68 0 2.8-.784 1.12-.785 1.54-2.24h2.744q-.616 2.352-2.464 3.78-1.848 1.4-4.62 1.4-2.184 0-3.892-.98-1.68-.981-2.632-2.772-.952-1.792-.952-4.2m21.067-5.544v9.044q0 1.12.476 1.596.477.448 1.652.448h1.876v2.156h-2.296q-2.127 0-3.192-.98-1.064-.98-1.064-3.22v-9.044h-1.988v-2.1h1.988v-3.864h2.548v3.864h4.004v2.1zm8.408-4.592q-.728 0-1.232-.504a1.68 1.68 0 0 1-.504-1.232q0-.728.504-1.232a1.68 1.68 0 0 1 1.232-.504q.699 0 1.176.504.504.504.504 1.232t-.504 1.232q-.477.504-1.176.504m1.232 2.492v15.344h-2.548V58.209zm11.034 15.596q-2.156 0-3.92-.98-1.736-.981-2.744-2.772-.98-1.82-.98-4.2 0-2.353 1.008-4.144 1.036-1.821 2.8-2.772 1.764-.98 3.948-.98c2.184 0 2.772.326 3.948.98q1.764.953 2.772 2.744 1.036 1.792 1.036 4.172t-1.064 4.2a7.2 7.2 0 0 1-2.828 2.772q-1.791.98-3.976.98m0-2.24q1.373 0 2.576-.644 1.204-.645 1.932-1.932.756-1.288.756-3.136t-.728-3.136-1.904-1.904a5.2 5.2 0 0 0-2.548-.644 5.3 5.3 0 0 0-2.576.644q-1.148.615-1.848 1.904-.7 1.287-.7 3.136 0 1.875.672 3.164.7 1.288 1.848 1.932a5.25 5.25 0 0 0 2.52.616m18.694-13.636q2.8 0 4.536 1.708 1.736 1.68 1.736 4.872v9.044h-2.52v-8.68q0-2.296-1.148-3.5-1.147-1.233-3.136-1.232-2.016 0-3.22 1.26-1.176 1.26-1.176 3.668v8.484h-2.548V58.209h2.548v2.184a5.1 5.1 0 0 1 2.044-1.82q1.317-.645 2.884-.644"/></svg>