<svg xmlns="http://www.w3.org/2000/svg" width="101" height="46" fill="none"><g fill="#fff" filter="url(#a)"><path d="M13.25 14.749h3.775v-2.064H13.25zm-4.817 0h3.632v-2.064H8.561c0 .64-.032 1.344-.128 2.064m5.872-7.808H9.841c-.4.544-.848 1.072-1.328 1.6h4.512c.464-.464.928-1.056 1.28-1.6M8.561 9.629v2.016h3.504V9.629zm8.464 2.016V9.629H13.25v2.016h3.776zm1.2-3.104v9.408c0 .704-.176 1.056-.672 1.264-.512.192-1.392.208-2.704.208-.048-.336-.256-.848-.432-1.168 1.008.032 1.968.016 2.24.016.272-.016.368-.096.368-.336V15.82H13.25v3.312h-1.184V15.82H8.257c-.32 1.376-.896 2.736-1.968 3.792-.16-.24-.656-.704-.896-.848 1.76-1.776 1.968-4.272 1.968-6.224V9.677c-.4.352-.8.672-1.232.992a4 4 0 0 0-.88-.848c2.128-1.456 3.648-3.392 4.448-4.992l1.312.24c-.16.288-.32.56-.496.864h4.512l.192-.064.784.56c-.4.688-.992 1.456-1.616 2.112zm11.616-1.216h-4.176c-.512.688-1.12 1.344-1.728 1.952h4.224a12.3 12.3 0 0 0 1.68-1.952m2.992 5.84V10.38H29.01v2.784h3.824zm-8.656-2.784v2.784h3.68V10.38zm2.064 7.744h6.224c1.584 0 1.824-.448 2.016-2.544.304.192.784.368 1.136.432-.272 2.48-.752 3.2-3.152 3.2h-6.144c-2.512 0-3.296-.448-3.296-2.288v-6.816a15 15 0 0 1-1.424 1.104c-.096-.272-.448-.848-.64-1.12 1.936-1.184 3.888-3.136 4.992-5.28l1.056.4c-.192.352-.384.688-.592 1.04h4.208l.24-.064.784.56c-.56.848-1.296 1.76-2.048 2.528h4.4v5.728h-1.168V14.3h-8.656v2.64c0 .944.336 1.184 2.064 1.184zm23.04-11.456h-9.52V8.3h9.52zm1.184 2.672H39.761v.944c0 2.72-.24 6.608-1.872 9.216-.224-.192-.752-.512-1.04-.608 1.6-2.512 1.728-6.048 1.728-8.608V5.629h11.888zm-6.672 2.624v1.68h3.184v-1.68zm5.888 2.816.896.608a19.5 19.5 0 0 1-2.544 1.616c.976.72 2.16 1.216 3.568 1.504-.272.24-.576.672-.736.992-2.832-.72-4.864-2.352-5.952-4.816h-2.208v3.264l3.44-.768c-.048.288-.08.752-.048.992-4 .976-4.512 1.12-4.816 1.328-.048-.288-.304-.784-.464-1.008.288-.16.768-.512.768-1.216v-2.592h-1.728v-1.04h2.816v-1.68H40.29V10.94h2.384V9.5h1.12v1.44h3.184V9.5h1.12v1.44h2.688v1.024h-2.688v1.68h3.328v1.04h-5.408c.336.624.752 1.2 1.28 1.696.8-.48 1.792-1.12 2.384-1.6zm16.192-8.72v1.168H54.705V6.06h11.168zm-9.808 6.576 1.216.32c-.784 1.952-2.032 3.856-3.312 5.072a8 8 0 0 0-1.072-.72c1.296-1.12 2.464-2.864 3.168-4.672m7.12.464 1.088-.448c1.168 1.488 2.416 3.52 2.88 4.864l-1.168.512c-.448-1.312-1.632-3.376-2.8-4.928m-9.904-3.184h14v1.168H60.93v6.848c0 .752-.192 1.12-.752 1.312s-1.504.208-2.896.208c-.064-.352-.256-.88-.432-1.232 1.088.032 2.128.032 2.416.016.304 0 .4-.08.4-.336v-6.816h-6.384zM4.79 33.065q0-1.224.551-2.196a4 4 0 0 1 1.5-1.536 4.2 4.2 0 0 1 2.124-.552q1.368 0 2.388.66t1.488 1.872h-1.308a2.6 2.6 0 0 0-1.008-1.164q-.648-.408-1.56-.408a3.05 3.05 0 0 0-1.572.408q-.696.408-1.092 1.164-.396.744-.396 1.752 0 .996.396 1.752.396.744 1.092 1.152a3.05 3.05 0 0 0 1.572.408q.912 0 1.56-.396.66-.408 1.008-1.164h1.308q-.468 1.2-1.488 1.86-1.02.648-2.388.648-1.164 0-2.124-.54a4.04 4.04 0 0 1-1.5-1.524q-.552-.972-.552-2.196zm12.941-2.508q.744 0 1.344.324.6.312.936.948.348.636.348 1.548v3.876h-1.08v-3.72q0-.984-.492-1.5-.492-.528-1.344-.528-.864 0-1.38.54-.504.54-.504 1.572v3.636h-1.092v-8.88h1.092v3.24a2.16 2.16 0 0 1 .888-.78 2.9 2.9 0 0 1 1.284-.276m4.004 3.384q0-1.008.408-1.764a2.96 2.96 0 0 1 1.116-1.188 3.1 3.1 0 0 1 1.596-.42q.864 0 1.5.372t.948.936v-1.2h1.104v6.576h-1.104v-1.224q-.324.576-.972.96-.636.372-1.488.372a3 3 0 0 1-1.584-.432 3.03 3.03 0 0 1-1.116-1.212q-.408-.78-.408-1.776m5.568.012q0-.744-.3-1.296a2.07 2.07 0 0 0-.816-.84 2.14 2.14 0 0 0-1.116-.3q-.612 0-1.116.288a2.1 2.1 0 0 0-.804.84q-.3.552-.3 1.296 0 .756.3 1.32.3.552.804.852a2.2 2.2 0 0 0 1.116.288q.612 0 1.116-.288.516-.3.816-.852.3-.564.3-1.308m4.041-2.208q.288-.564.816-.876.54-.312 1.308-.312v1.128h-.288q-1.836 0-1.836 1.992v3.576h-1.092v-6.576h1.092zm2.977 2.196q0-1.008.408-1.764a2.96 2.96 0 0 1 1.116-1.188 3.1 3.1 0 0 1 1.596-.42q.864 0 1.5.372t.948.936v-1.2h1.104v6.576h-1.104v-1.224q-.324.576-.972.96-.636.372-1.488.372a3 3 0 0 1-1.584-.432 3.03 3.03 0 0 1-1.116-1.212q-.408-.78-.408-1.776m5.568.012q0-.744-.3-1.296a2.07 2.07 0 0 0-.816-.84 2.14 2.14 0 0 0-1.116-.3q-.612 0-1.116.288a2.1 2.1 0 0 0-.804.84q-.3.552-.3 1.296 0 .756.3 1.32.3.552.804.852a2.2 2.2 0 0 0 1.116.288q.612 0 1.116-.288.516-.3.816-.852.3-.564.3-1.308m2.541 0q0-1.02.408-1.776a2.94 2.94 0 0 1 1.128-1.188q.732-.42 1.668-.42 1.212 0 1.992.588.792.588 1.044 1.632h-1.176a1.68 1.68 0 0 0-.66-.948q-.48-.348-1.2-.348-.936 0-1.512.648-.576.636-.576 1.812 0 1.188.576 1.836t1.512.648q.72 0 1.2-.336t.66-.96h1.176a2.92 2.92 0 0 1-1.056 1.62q-.792.6-1.98.6-.936 0-1.668-.42a2.94 2.94 0 0 1-1.128-1.188q-.408-.768-.408-1.8m9.03-2.376v3.876q0 .48.203.684.204.192.708.192h.804v.924h-.984q-.912 0-1.368-.42t-.456-1.38v-3.876h-.852v-.9h.852V29.02h1.092v1.656h1.716v.9H51.46zm9.038 2.136q0 .312-.036.66h-5.256q.06.972.66 1.524.612.54 1.476.54.708 0 1.176-.324.48-.336.672-.888h1.176a2.86 2.86 0 0 1-1.056 1.548q-.792.588-1.968.588-.936 0-1.68-.42a3 3 0 0 1-1.152-1.188q-.42-.78-.42-1.8t.408-1.788a2.84 2.84 0 0 1 1.14-1.176q.744-.42 1.704-.42.936 0 1.656.408t1.104 1.128q.396.708.396 1.608m-1.128-.228q0-.624-.276-1.068a1.74 1.74 0 0 0-.756-.684q-.468-.24-1.044-.24-.828 0-1.416.528-.576.528-.66 1.464zm3.662-1.74q.288-.564.816-.876.54-.312 1.308-.312v1.128h-.288q-1.836 0-1.836 1.992v3.576H61.94v-6.576h1.092z"/></g><defs><filter id="a" width="103.805" height="50" x=".273" y=".253" color-interpolation-filters="sRGB" filterUnits="userSpaceOnUse"><feFlood flood-opacity="0" result="BackgroundImageFix"/><feColorMatrix in="SourceAlpha" result="hardAlpha" values="0 0 0 0 0 0 0 0 0 0 0 0 0 0 0 0 0 0 127 0"/><feOffset dy="4"/><feGaussianBlur stdDeviation="2"/><feComposite in2="hardAlpha" operator="out"/><feColorMatrix values="0 0 0 0 0 0 0 0 0 0 0 0 0 0 0 0 0 0 0.25 0"/><feBlend in2="BackgroundImageFix" result="effect1_dropShadow_43_8340"/><feBlend in="SourceGraphic" in2="effect1_dropShadow_43_8340" result="shape"/></filter></defs></svg>