<svg xmlns="http://www.w3.org/2000/svg" width="228" height="63" fill="none"><rect width="6" height="58" y="2.5" fill="#7896FF" rx="2.626"/><path fill="#fff" d="M53.391 9.24 48.824 25h-2.307l-3.663-12.685L39.055 25l-2.283.023-4.41-15.784h2.194l3.437 13.364L41.79 9.24h2.307l3.618 13.319 3.46-13.319zm8.403 3.143q1.402 0 2.532.61 1.131.588 1.764 1.786.656 1.2.656 2.917V25H64.71v-7.01q0-1.854-.928-2.826-.927-.995-2.532-.995-1.628 0-2.6 1.017-.95 1.018-.95 2.963V25h-2.058V8.267H57.7v6.105a4.07 4.07 0 0 1 1.673-1.47q1.086-.52 2.42-.52zm7.544 6.376q0-1.899.769-3.324.768-1.447 2.103-2.238 1.356-.792 3.007-.792 1.629 0 2.827.701 1.198.7 1.786 1.764v-2.261h2.08V25h-2.08v-2.306q-.61 1.084-1.831 1.809-1.2.7-2.804.7-1.65 0-2.985-.813-1.334-.815-2.103-2.284-.77-1.47-.769-3.347m10.492.023q0-1.402-.565-2.442a3.9 3.9 0 0 0-1.538-1.583 4.03 4.03 0 0 0-2.103-.566 4.16 4.16 0 0 0-2.103.543q-.95.543-1.515 1.583t-.565 2.442q0 1.425.565 2.487.566 1.04 1.515 1.606a4.16 4.16 0 0 0 2.103.543 4.16 4.16 0 0 0 2.103-.543 4.05 4.05 0 0 0 1.538-1.606q.565-1.062.565-2.464m8.067-4.477v7.303q0 .905.385 1.29.384.36 1.334.36h1.515V25h-1.854q-1.719 0-2.578-.791-.86-.792-.86-2.6v-7.304h-1.605v-1.696h1.606v-3.12h2.057v3.12h3.234v1.696zm10.987 4.477q0-1.922.769-3.347.769-1.447 2.125-2.238 1.38-.792 3.143-.792 2.284 0 3.754 1.108 1.492 1.108 1.967 3.075h-2.216a3.16 3.16 0 0 0-1.244-1.786q-.904-.656-2.261-.656-1.763 0-2.849 1.221-1.086 1.199-1.085 3.415 0 2.238 1.085 3.46 1.086 1.22 2.849 1.22 1.357 0 2.261-.633t1.244-1.809h2.216q-.498 1.9-1.99 3.053-1.492 1.13-3.731 1.13-1.763 0-3.143-.79-1.357-.793-2.125-2.24-.77-1.447-.77-3.391zm13.735-.023q0-1.899.769-3.324.768-1.447 2.102-2.238 1.357-.792 3.008-.792 1.627 0 2.826.701 1.199.7 1.787 1.764v-2.261h2.08V25h-2.08v-2.306q-.61 1.084-1.832 1.809-1.198.7-2.804.7-1.65 0-2.985-.813-1.334-.815-2.102-2.284-.77-1.47-.769-3.347m10.492.023q0-1.402-.566-2.442a3.9 3.9 0 0 0-1.537-1.583 4.03 4.03 0 0 0-2.103-.566 4.16 4.16 0 0 0-2.103.543q-.95.543-1.515 1.583t-.565 2.442q0 1.425.565 2.487.566 1.04 1.515 1.606a4.16 4.16 0 0 0 2.103.543 4.16 4.16 0 0 0 2.103-.543 4.04 4.04 0 0 0 1.537-1.606q.566-1.062.566-2.464m11.595-6.4q2.26 0 3.663 1.38 1.401 1.357 1.402 3.934V25h-2.035v-7.01q0-1.854-.927-2.826-.928-.995-2.533-.995-1.628 0-2.6 1.017-.95 1.018-.95 2.963V25h-2.058V12.609h2.058v1.763a4.1 4.1 0 0 1 1.651-1.47 5.2 5.2 0 0 1 2.329-.52m30.961.227L161.8 25h-2.125l-2.985-9.836L153.705 25h-2.125l-3.889-12.391h2.102l2.85 10.401 3.075-10.401h2.103l3.007 10.424 2.804-10.424zm13.348 5.72q0 .588-.068 1.244h-9.904q.114 1.831 1.244 2.872 1.154 1.017 2.781 1.017 1.334 0 2.216-.61a3.33 3.33 0 0 0 1.266-1.673h2.216a5.38 5.38 0 0 1-1.989 2.917q-1.492 1.107-3.709 1.107-1.764 0-3.165-.79a5.64 5.64 0 0 1-2.171-2.24q-.792-1.47-.792-3.391 0-1.923.769-3.37.77-1.447 2.148-2.215 1.402-.792 3.211-.792 1.764 0 3.121.769a5.23 5.23 0 0 1 2.08 2.126q.746 1.334.746 3.03zm-2.125-.43q0-1.175-.52-2.012a3.3 3.3 0 0 0-1.425-1.289 4.25 4.25 0 0 0-1.967-.452q-1.56 0-2.668.995-1.086.995-1.244 2.759zm10.101.86q0-1.899.769-3.324.768-1.447 2.102-2.238 1.357-.792 3.03-.792a5.5 5.5 0 0 1 2.691.679q1.244.655 1.9 1.74V8.268h2.08V25h-2.08v-2.329q-.61 1.109-1.809 1.832-1.199.7-2.804.7-1.651 0-3.008-.813-1.334-.815-2.102-2.284-.77-1.47-.769-3.347m10.492.023q0-1.402-.566-2.442a3.9 3.9 0 0 0-1.537-1.583 4.03 4.03 0 0 0-2.103-.566 4.16 4.16 0 0 0-2.103.543q-.95.543-1.515 1.583t-.565 2.442q0 1.425.565 2.487.566 1.04 1.515 1.606a4.16 4.16 0 0 0 2.103.543 4.16 4.16 0 0 0 2.103-.543 4.04 4.04 0 0 0 1.537-1.606q.566-1.062.566-2.464m10.962 6.421q-1.741 0-3.166-.79a5.75 5.75 0 0 1-2.216-2.24q-.792-1.47-.792-3.391 0-1.9.815-3.347.836-1.47 2.261-2.238 1.424-.792 3.188-.792t3.188.792a5.56 5.56 0 0 1 2.239 2.216q.837 1.446.837 3.369 0 1.922-.86 3.392a5.8 5.8 0 0 1-2.284 2.238q-1.447.791-3.21.791m0-1.808q1.107 0 2.08-.52.972-.52 1.56-1.56.61-1.04.611-2.533 0-1.493-.588-2.533t-1.538-1.537a4.2 4.2 0 0 0-2.058-.52 4.26 4.26 0 0 0-2.08.52q-.927.497-1.492 1.537-.566 1.04-.566 2.533 0 1.515.543 2.555.565 1.04 1.492 1.56a4.24 4.24 0 0 0 2.036.498m13.084-14.359q2.238 0 3.618 1.266t1.379 3.392q0 2.375-1.47 3.527-1.469 1.131-3.979 1.131l-.068 2.148h-1.787l-.09-3.573h.656q2.238 0 3.505-.678t1.266-2.555q0-1.356-.814-2.148-.814-.791-2.193-.791-1.403 0-2.216.768-.792.747-.792 2.058H216.6q0-1.357.61-2.374a4.1 4.1 0 0 1 1.719-1.606q1.13-.565 2.6-.565m-1.425 16.1q-.588 0-.995-.407a1.36 1.36 0 0 1-.407-.995q0-.588.407-.995t.995-.407q.566 0 .95.407.407.407.407.995c0 .588-.136.723-.407.995a1.25 1.25 0 0 1-.95.407M49.79 43.421l-1.454 1.047c-.543-.911-1.803-2.307-2.888-3.276l1.357-.93c1.085.93 2.384 2.248 2.985 3.16zm-2.055 4.38 1.609.679a19.5 19.5 0 0 1-3.276 4.4c.64 1.802 1.396 2.887 2.19 2.887.466 0 .698-.95.795-3.353.407.427 1.027.853 1.512 1.008-.31 3.295-.911 4.187-2.481 4.187-1.473 0-2.617-1.28-3.47-3.353a21 21 0 0 1-3.837 2.616c-.29-.446-.775-1.046-1.24-1.453 1.589-.737 3.1-1.764 4.477-2.966-.465-1.57-.795-3.43-1.027-5.427h-4.284v2.714l3.237-.64.136 1.609c-1.105.252-2.248.523-3.373.756v3.857c0 1.066-.252 1.589-.93 1.88s-1.764.349-3.314.349c-.097-.504-.407-1.338-.679-1.822 1.183.038 2.307.038 2.636.019.35-.02.465-.116.465-.426v-3.45c-1.376.29-2.636.562-3.74.794l-.504-1.802a202 202 0 0 0 4.244-.775v-3.063h-3.915v-1.705h3.915v-2.675a87 87 0 0 1-3.333.485c-.097-.407-.33-1.105-.562-1.493 2.694-.407 5.776-1.027 7.656-1.686l1.26 1.512c-.95.31-2.055.581-3.199.814v3.043h4.11a70 70 0 0 1-.253-5.408h1.86a54 54 0 0 0 .214 5.408h5.505v1.705h-5.311c.194 1.454.407 2.752.698 3.935a16.3 16.3 0 0 0 2.21-3.16zm7.714-7.946 1.686.465c-.426 1.376-.91 2.791-1.511 4.148V57.53h-1.706V47.8a13 13 0 0 1-1.085 1.61c-.155-.447-.62-1.454-.93-1.92 1.492-1.899 2.77-4.787 3.546-7.636zm2.19 17.676v-13.76h1.764v13.76zm.814-16.998 1.396-.775c.833 1.105 1.86 2.675 2.326 3.644l-1.473.892c-.427-.989-1.415-2.598-2.249-3.76zm10.64-.116V55.42c0 .969-.213 1.473-.852 1.744-.62.29-1.628.33-3.14.33-.058-.466-.33-1.241-.562-1.687 1.008.058 2.055.039 2.345.02.33 0 .427-.117.427-.427V42.045h-4.962v-1.628zm17.696 7.811h-3.043c-2.015 0-2.5-.523-2.5-2.306v-6.144h1.764v3.043c1.511-.524 3.043-1.183 4.07-1.725l1.163 1.298c-1.473.717-3.45 1.357-5.233 1.88v1.628c0 .62.135.737.95.737h2.655c.698 0 .833-.31.91-2.113.369.29 1.105.562 1.59.678-.213 2.384-.698 3.024-2.326 3.024m-12.56 4.109h3.567v-1.454H74.23v1.454zm3.567-4.225H74.23v1.376h3.566zM79.58 46.6v8.993c0 .853-.174 1.318-.736 1.59-.601.29-1.454.31-2.636.31-.097-.466-.35-1.183-.601-1.629.814.04 1.609.04 1.88.02.252 0 .31-.078.31-.31v-1.842H74.23v3.78h-1.686V46.6zm-2.946-5.117 1.512-.581c.95 1.298 1.958 3.023 2.345 4.206l-1.608.678a8 8 0 0 0-.407-1.008c-4.982.388-5.68.485-6.144.678-.097-.368-.369-1.22-.601-1.705.31-.058.6-.35.91-.756.33-.388 1.3-1.841 1.9-3.314l1.88.542a22 22 0 0 1-2.229 3.43l3.624-.232a19 19 0 0 0-1.182-1.938m7.385 14.323h2.694c.736 0 .872-.368.969-2.442.387.271 1.105.562 1.589.678-.213 2.636-.698 3.334-2.403 3.334h-3.063c-2.035 0-2.558-.523-2.558-2.326v-6.318h1.783v2.888c1.59-.562 3.198-1.26 4.225-1.958L88.437 51c-1.473.853-3.547 1.551-5.408 2.113v1.938c0 .64.155.756.989.756zm10.35-15.97 1.686.465a37 37 0 0 1-1.57 3.896V57.53h-1.648V47.2a17 17 0 0 1-1.53 2.132 19 19 0 0 0-.912-1.9c1.609-1.86 3.082-4.71 3.973-7.597zm11.745 5.097h-2.21c-.039.155-.077.31-.135.465.193 1.745.542 3.644 1.143 5.388.62-1.666.969-3.624 1.202-5.853m-6.125 8.935v-3.876h-2.616v3.876zm8.567-8.935h-.872c-.349 3.12-.911 5.698-1.919 7.83.717 1.357 1.667 2.5 2.946 3.315-.33.329-.853.988-1.086 1.434-1.143-.834-2.035-1.938-2.752-3.16a11.3 11.3 0 0 1-3.236 3.18c-.214-.311-.776-.95-1.125-1.241 1.551-.911 2.714-2.093 3.547-3.605-.62-1.531-1.027-3.179-1.298-4.788q-.379.757-.814 1.396a3.5 3.5 0 0 0-.369-.562v6.687h-4.205v1.298h-1.57v-8.276h2.054v-3.43h-2.48v-1.629h2.48v-3.391h1.706v3.392h2.306v1.628h-2.306v3.43h1.822a11 11 0 0 0-.485-.6c1.299-1.958 2.054-4.982 2.481-8.083l1.628.29c-.194 1.125-.388 2.269-.678 3.354h4.225zm16.862 4.73h-2.985c-2.016 0-2.52-.563-2.52-2.52v-7.404h1.803v3.605c1.512-.504 2.985-1.144 3.954-1.745l1.395 1.435c-1.531.736-3.527 1.415-5.349 1.957v2.152c0 .697.136.814.93.814h2.636c.698 0 .814-.369.911-2.423.407.29 1.144.6 1.648.698-.233 2.674-.718 3.43-2.423 3.43zm-12.773 3.236v-1.725h13.025v1.725zm6.513-5.407.038 1.666c-3.14.407-6.473.814-8.799 1.086l-.213-1.783 1.202-.097v-6.57h1.666v6.395l1.454-.155V39.74h1.783v3.14h2.714v1.608h-2.714v3.334zm-8.683 9.593v-1.783h17.191v1.783zm23.684-17.25 1.686.505c-.484 1.318-1.124 2.616-1.802 3.876v13.296h-1.745V47.007a21 21 0 0 1-1.822 2.229c-.174-.446-.678-1.415-1.007-1.841 1.86-1.822 3.624-4.671 4.69-7.56m13.063 6.435v1.764h-5v9.497h-1.861v-9.497h-5.194V46.27h5.194v-6.28h1.861v6.28zm9.323-6.357 1.86.679c-1.899 3.023-4.826 6.376-7.713 8.547-.349-.368-.989-.989-1.415-1.299 2.829-1.996 5.756-5.272 7.268-7.927m9.981 16.417-1.725.95c-.252-.563-.6-1.241-1.007-1.958-10.796.91-12.056.91-12.889 1.22-.136-.387-.485-1.298-.756-1.821.639-.155 1.434-.795 2.636-1.841 1.318-1.086 5.233-5.098 8.121-9.342l1.88.91c-2.849 3.935-5.97 7.269-8.955 9.866l8.955-.66a36 36 0 0 0-2.384-3.43l1.647-.794c1.725 2.151 3.605 5 4.477 6.9m4.594-5.137c-.524-3.198 3.256-4.012 3.256-6.124 0-1.163-.717-1.977-2.132-1.977-1.027 0-1.938.484-2.81 1.434l-1.28-1.182c1.125-1.24 2.501-2.093 4.342-2.093 2.403 0 4.031 1.337 4.031 3.643 0 2.946-3.837 3.45-3.43 6.3h-1.977zm-.737 3.237c0-1.027.756-1.686 1.745-1.686.988 0 1.763.659 1.763 1.686s-.775 1.706-1.763 1.706c-.989 0-1.745-.679-1.745-1.706"/></svg>