<svg xmlns="http://www.w3.org/2000/svg" width="100" height="49" fill="none" viewBox="0 0 100 49"><g fill="#fff" filter="url(#a)"><path d="m13.252 9.283-.032.064c.352 1.952.912 3.76 1.712 5.28.816-1.456 1.344-3.216 1.68-5.344zM9.62 16.9v-3.44H6.196v3.44zm9.36-7.616h-1.168c-.432 2.656-1.136 4.768-2.224 6.48.912 1.344 2.048 2.4 3.504 3.056-.272.24-.64.688-.832 1.008-1.408-.704-2.512-1.744-3.408-3.056-1.056 1.28-2.416 2.288-4.176 3.072-.128-.288-.48-.816-.688-1.056 1.84-.736 3.2-1.744 4.224-3.072-.736-1.344-1.312-2.912-1.728-4.656-.336.672-.704 1.28-1.12 1.824a6 6 0 0 0-.608-.512v5.648h-4.56v1.12H5.092v-6.8h2.256V9.427H4.42v-1.12h2.928V5.203h1.168v3.104h2.864v1.12H8.516v2.912h2.192c-.128-.096-.256-.176-.352-.24 1.376-1.616 2.272-4.192 2.784-6.896l1.184.192a22 22 0 0 1-.704 2.752h5.36zm13.088 7.2v-1.2h-3.84v1.2zm-3.84-3.264v1.12h3.84v-1.12zm-4.624-2.832h3.44V9.235h-3.44zm8.208-1.152h-3.584v1.152h3.584zM34.9 14.34v.944h-1.648v2.832h-1.184v-.72h-3.84V18.5c0 .736-.224 1.008-.704 1.184-.496.176-1.328.192-2.656.192-.064-.304-.256-.736-.416-1.008.96.032 1.92.016 2.192.016.304-.016.4-.112.4-.384v-1.104h-5.168v-.912h5.168v-1.2H20.5v-.944h6.544v-1.12H22.02v-.88h5.024v-1.12h-4.576V8.403h4.576v-.928h-6.24V6.5h6.24V5.22h1.184V6.5h6.368v.976h-6.368v.928h4.768v2.816h-4.768v1.12h5.024v2zM7.26 37.68a3.7 3.7 0 0 1-1.488-.289 2.54 2.54 0 0 1-1.02-.816 2.1 2.1 0 0 1-.384-1.212h1.164q.06.588.48.996.432.396 1.248.396.78 0 1.224-.384.456-.396.456-1.008 0-.48-.264-.78a1.7 1.7 0 0 0-.66-.456q-.396-.156-1.068-.336a10 10 0 0 1-1.332-.432 2.2 2.2 0 0 1-.852-.672q-.348-.468-.348-1.248 0-.684.348-1.212t.972-.816q.636-.288 1.452-.288 1.176 0 1.92.588.756.588.852 1.56h-1.2q-.06-.48-.504-.84-.444-.372-1.176-.372-.684 0-1.116.36-.432.348-.432.984 0 .456.252.744.264.288.636.444.384.144 1.068.336.828.228 1.332.456.504.216.864.684.36.456.36 1.248 0 .612-.324 1.152t-.96.876-1.5.336m5.723-5.76v3.875q0 .48.204.684.204.192.708.192h.804v.924h-.984q-.912 0-1.368-.42t-.456-1.38V31.92h-.852v-.9h.852v-1.656h1.092v1.656h1.716v.9zm5.907 5.783a3.4 3.4 0 0 1-1.68-.42 3.05 3.05 0 0 1-1.176-1.188q-.42-.78-.42-1.8 0-1.008.432-1.776.444-.78 1.2-1.188a3.4 3.4 0 0 1 1.692-.42q.936 0 1.692.42.756.408 1.188 1.176.444.768.444 1.788t-.456 1.8a3.1 3.1 0 0 1-1.212 1.188q-.768.42-1.704.42m0-.96q.588 0 1.104-.276t.828-.828q.324-.552.324-1.344t-.312-1.344a2 2 0 0 0-.816-.816 2.24 2.24 0 0 0-1.092-.276q-.6 0-1.104.276a1.95 1.95 0 0 0-.792.816q-.3.552-.3 1.344 0 .804.288 1.356.3.552.792.828.492.264 1.08.264m5.9-4.656q.287-.564.815-.876.54-.312 1.308-.312v1.128h-.288q-1.836 0-1.836 1.992v3.576h-1.092V31.02h1.092zm9.048-1.068-3.96 9.672H28.75l1.296-3.168-2.652-6.504h1.212l2.064 5.328 2.04-5.328z"/></g><defs><filter id="a" width="103.805" height="50" x="-0.316406" y="0.595215" color-interpolation-filters="sRGB" filterUnits="userSpaceOnUse"><feFlood flood-opacity="0" result="BackgroundImageFix"/><feColorMatrix in="SourceAlpha" result="hardAlpha" values="0 0 0 0 0 0 0 0 0 0 0 0 0 0 0 0 0 0 127 0"/><feOffset dy="4"/><feGaussianBlur stdDeviation="2"/><feComposite in2="hardAlpha" operator="out"/><feColorMatrix values="0 0 0 0 0 0 0 0 0 0 0 0 0 0 0 0 0 0 0.25 0"/><feBlend in2="BackgroundImageFix" result="effect1_dropShadow_43_8305"/><feBlend in="SourceGraphic" in2="effect1_dropShadow_43_8305" result="shape"/></filter></defs></svg>