<svg xmlns="http://www.w3.org/2000/svg" width="178" height="48" fill="none"><path fill="#fff" d="M1.733 22V7.907h2.819v6.113h.057l4.666-6.113h3.104l-4.304 5.542L13.14 22h-3.104l-3.638-6.323-1.847 2.362V22zm18.097.267c-3.733 0-6.304-2.8-6.304-7.37 0-4.59 2.571-7.257 6.304-7.257s6.304 2.686 6.304 7.256-2.571 7.37-6.304 7.37zm0-2.438c2.095 0 3.428-1.924 3.428-4.933 0-3.028-1.333-4.837-3.428-4.837s-3.428 1.81-3.428 4.837c0 3.01 1.333 4.933 3.428 4.933M28.886 22V7.907h2.876l4.095 7.504 1.409 3.047h.095C37.21 16.99 37 15.125 37 13.525V7.907h2.667V22H36.81l-4.076-7.542-1.428-3.028h-.095c.133 1.524.343 3.295.343 4.914V22h-2.667zm20.321.267c-3.847 0-6.76-2.552-6.76-7.256 0-4.647 3.009-7.37 6.76-7.37 2.038 0 3.447.875 4.362 1.809l-1.505 1.79c-.685-.667-1.485-1.18-2.761-1.18-2.343 0-3.98 1.827-3.98 4.855 0 3.067 1.409 4.914 4.17 4.914.686 0 1.371-.19 1.771-.533v-2.78H48.77V14.21h5.01v6.36c-.953.934-2.61 1.696-4.572 1.696zM63.593 22 59.289 7.907h2.952l1.866 6.856c.438 1.562.724 2.971 1.18 4.552h.096c.438-1.581.762-2.99 1.2-4.552l1.828-6.856h2.857L66.945 22zm9.068 0V11.335h2.78V22zm1.41-12.379c-.972 0-1.676-.647-1.676-1.524 0-.914.704-1.523 1.676-1.523.952 0 1.656.61 1.656 1.523 0 .877-.704 1.524-1.656 1.524m7.421 12.646c-1.428 0-3.009-.629-4.056-1.505l1.276-1.752c.952.743 1.866 1.162 2.857 1.162 1.066 0 1.542-.457 1.542-1.124 0-.8-1.104-1.162-2.228-1.6-1.352-.514-2.914-1.333-2.914-3.104 0-1.923 1.562-3.276 3.962-3.276 1.561 0 2.742.648 3.637 1.315l-1.257 1.695c-.762-.534-1.505-.915-2.304-.915-.953 0-1.41.42-1.41 1.029 0 .78 1.048 1.066 2.171 1.485 1.41.534 2.971 1.238 2.971 3.219 0 1.866-1.466 3.37-4.247 3.37zm9.544 0c-2.285 0-3.276-1.6-3.276-4.266v-6.666h2.8v6.304c0 1.657.457 2.228 1.485 2.228.876 0 1.448-.38 2.171-1.333v-7.199h2.8V22h-2.285l-.21-1.524h-.076c-.914 1.086-1.943 1.79-3.409 1.79zm11.593 0c-1.905 0-3.162-1.352-3.162-3.162 0-2.285 1.848-3.485 6.133-3.942-.038-1.047-.495-1.847-1.81-1.847-.99 0-1.942.438-2.932 1.009l-1.01-1.847c1.257-.781 2.781-1.41 4.457-1.41 2.704 0 4.094 1.62 4.094 4.704V22h-2.285l-.21-1.143h-.057c-.933.8-1.999 1.41-3.218 1.41m.914-2.19c.8 0 1.39-.381 2.057-1.048v-2.152c-2.59.343-3.466 1.047-3.466 2 0 .838.59 1.2 1.409 1.2m10.338 2.19c-1.943 0-2.628-1.276-2.628-3.257V6.802h2.78v12.341c0 .629.305.838.571.838.115 0 .191 0 .381-.038l.343 2.076c-.324.133-.8.248-1.447.248m7.816 0a7.5 7.5 0 0 1-5.142-2.057l1.619-1.943c1.009.933 2.342 1.562 3.58 1.562 1.467 0 2.248-.629 2.248-1.619 0-1.047-.857-1.371-2.114-1.904l-1.886-.8c-1.428-.59-2.857-1.733-2.857-3.79 0-2.304 2.019-4.076 4.876-4.076 1.638 0 3.276.648 4.418 1.81l-1.428 1.77c-.895-.742-1.828-1.16-2.99-1.16-1.238 0-2.038.551-2.038 1.484 0 1.01 1.009 1.372 2.209 1.848l1.848.78c1.714.705 2.837 1.79 2.837 3.829 0 2.304-1.923 4.266-5.18 4.266m10.756 0c-2.533 0-3.504-1.6-3.504-4v-4.723h-1.505v-2.076l1.638-.133.324-2.857h2.342v2.857h2.629v2.21h-2.629v4.722c0 1.22.496 1.79 1.448 1.79.343 0 .762-.114 1.047-.228l.457 2.038c-.571.19-1.314.4-2.247.4m7.254 0c-2.285 0-3.275-1.6-3.275-4.266v-6.666h2.799v6.304c0 1.657.457 2.228 1.486 2.228.876 0 1.447-.38 2.171-1.333v-7.199h2.799V22h-2.285l-.209-1.524h-.077c-.914 1.086-1.942 1.79-3.409 1.79zm12.717 0c-2.647 0-4.361-2.095-4.361-5.58 0-3.486 2.171-5.619 4.475-5.619 1.2 0 1.943.457 2.704 1.162l-.114-1.676V6.802h2.8V22h-2.267l-.228-1.105h-.057c-.781.762-1.848 1.372-2.952 1.372m.724-2.305c.742 0 1.371-.305 1.98-1.104v-4.685c-.647-.59-1.314-.8-1.98-.8-1.2 0-2.21 1.143-2.21 3.275 0 2.21.8 3.314 2.21 3.314m7.78 2.038V11.335h2.781V22zm1.41-12.379c-.972 0-1.676-.647-1.676-1.524 0-.914.704-1.523 1.676-1.523.952 0 1.657.61 1.657 1.523 0 .877-.705 1.524-1.657 1.524m8.831 12.646c-2.666 0-5.123-2.057-5.123-5.58 0-3.562 2.457-5.619 5.123-5.619s5.123 2.057 5.123 5.619c0 3.523-2.457 5.58-5.123 5.58m0-2.286c1.447 0 2.266-1.295 2.266-3.294 0-2.02-.819-3.333-2.266-3.333s-2.266 1.314-2.266 3.333c0 2 .818 3.294 2.266 3.294"/><path fill="#fff" d="M1.472 44V32.92h1.011v5.967h.098l5.41-5.968h1.331l-4.734 5.124L9.3 44H8.067L3.96 38.746l-1.477 1.656V44zm12.18.173q-1.077 0-1.905-.546-.822-.547-1.287-1.51-.465-.968-.466-2.234 0-1.277.466-2.246.466-.974 1.287-1.514.828-.547 1.905-.547c1.077 0 1.35.182 1.899.547q.822.546 1.287 1.514.471.97.471 2.246 0 1.265-.465 2.234a3.7 3.7 0 0 1-1.293 1.51q-.822.546-1.9.546zm0-.882q.866 0 1.466-.465t.909-1.239a4.5 4.5 0 0 0 .314-1.704q0-.93-.314-1.71a2.9 2.9 0 0 0-.909-1.25q-.601-.47-1.466-.47-.861 0-1.466.47-.6.47-.915 1.25a4.6 4.6 0 0 0-.308 1.71q0 .93.308 1.704.315.774.914 1.239.6.465 1.467.465m6.734-4.485V44h-.963v-8.31h.936v1.303h.087a2.33 2.33 0 0 1 .909-1.022q.622-.39 1.536-.39.84 0 1.472.352.639.347.99 1.023.357.675.357 1.66V44h-.963v-5.324q0-1.022-.573-1.617-.57-.596-1.526-.596-.655 0-1.163.282a2.05 2.05 0 0 0-.806.811q-.293.525-.293 1.25m11.03 8.483q-.848 0-1.487-.221a3.2 3.2 0 0 1-1.077-.596 2.9 2.9 0 0 1-.681-.849l.79-.52q.178.315.476.617.303.304.784.504.487.2 1.196.2 1.104 0 1.78-.552.681-.552.681-1.715v-1.872h-.086a3.3 3.3 0 0 1-.482.757q-.314.375-.822.623-.503.248-1.25.248-.995 0-1.769-.492-.768-.492-1.212-1.407-.438-.92-.438-2.19 0-1.26.427-2.22.433-.956 1.207-1.492.773-.536 1.802-.536.762 0 1.265.27.504.266.807.66.308.396.481.769h.098V35.69h.941v8.526q0 1.056-.45 1.737-.447.682-1.222 1.006-.774.33-1.758.33zm-.064-4.258q.8 0 1.369-.384.568-.389.87-1.114.304-.725.304-1.726 0-.975-.298-1.726-.297-.758-.866-1.19-.562-.438-1.38-.438-.832 0-1.406.449-.572.449-.866 1.212a4.7 4.7 0 0 0-.292 1.693q0 .953.298 1.683.298.725.871 1.136.574.405 1.396.406zM46.226 32.92V44h-.984l-6.547-9.279h-.087V44h-1.011V32.92h.98l6.567 9.29h.087v-9.29zM48.983 44v-8.31h.968V44zm.492-9.739a.7.7 0 0 1-.508-.2.66.66 0 0 1-.211-.492q0-.287.21-.487a.7.7 0 0 1 .51-.206q.297 0 .508.206.21.2.21.487 0 .286-.21.492-.21.2-.509.2m5.344 9.928a3.2 3.2 0 0 1-1.374-.292 2.4 2.4 0 0 1-.99-.855q-.368-.563-.368-1.363 0-.617.233-1.039.232-.422.66-.692.427-.27 1.012-.428a9.4 9.4 0 0 1 1.287-.243q.699-.086 1.18-.152.486-.065.741-.205.255-.141.254-.455v-.195q0-.849-.508-1.336-.505-.492-1.45-.492-.9 0-1.467.395-.562.395-.79.93l-.914-.33q.281-.681.78-1.087a3.1 3.1 0 0 1 1.114-.59 4.4 4.4 0 0 1 1.25-.184q.475 0 .99.124.519.125.963.433.443.303.72.85.275.54.275 1.374V44h-.963v-1.315h-.06a2.66 2.66 0 0 1-1.369 1.282q-.513.222-1.206.222m.13-.882q.768 0 1.331-.34.563-.342.866-.904.308-.568.308-1.25v-1.2q-.108.102-.362.183a5 5 0 0 1-.58.146q-.324.06-.648.103l-.585.076a5.4 5.4 0 0 0-1.2.27q-.499.184-.764.509-.264.32-.265.822 0 .757.541 1.174.541.411 1.358.411m9.26.866q-1.077 0-1.904-.546-.823-.547-1.288-1.51-.465-.968-.465-2.234 0-1.278.465-2.246.466-.974 1.288-1.514.827-.547 1.904-.547c1.077 0 1.35.182 1.9.547q.821.546 1.287 1.514.47.97.47 2.246 0 1.266-.465 2.234a3.7 3.7 0 0 1-1.293 1.51q-.822.546-1.899.546m0-.882q.866 0 1.466-.465t.91-1.239a4.5 4.5 0 0 0 .313-1.704q0-.93-.314-1.71a2.9 2.9 0 0 0-.909-1.25q-.6-.47-1.466-.47-.86 0-1.466.47-.6.47-.914 1.25a4.6 4.6 0 0 0-.309 1.71q0 .93.309 1.704.314.774.914 1.239t1.466.465m18.935-6.909h-1.017a3.2 3.2 0 0 0-.411-1.05 3.3 3.3 0 0 0-.736-.849 3.4 3.4 0 0 0-1.006-.563 3.6 3.6 0 0 0-1.218-.2q-1.05 0-1.915.547-.86.546-1.38 1.607-.513 1.055-.514 2.586 0 1.541.514 2.597.52 1.055 1.38 1.601.866.54 1.915.541.656 0 1.218-.2t1.006-.557a3.3 3.3 0 0 0 .736-.85q.297-.486.411-1.055h1.017q-.135.763-.509 1.423a4.2 4.2 0 0 1-.94 1.147 4.2 4.2 0 0 1-1.31.769 4.6 4.6 0 0 1-1.629.276q-1.395 0-2.478-.698-1.081-.705-1.699-1.98-.61-1.277-.61-3.014t.61-3.014q.618-1.277 1.7-1.975 1.081-.703 2.477-.703.888 0 1.629.276.74.27 1.31.768a4.38 4.38 0 0 1 1.45 2.57zm7.457 4.442V35.69h.963V44h-.963v-1.38h-.076a2.57 2.57 0 0 1-.925 1.066q-.633.422-1.547.422-.795 0-1.412-.346a2.45 2.45 0 0 1-.969-1.028q-.351-.676-.352-1.661V35.69h.964v5.324q0 .974.573 1.569.573.59 1.472.59a2.3 2.3 0 0 0 1.082-.271 2.24 2.24 0 0 0 .855-.79q.335-.526.335-1.288m4.476-7.904V44h-.963V32.92zm5.821 2.77v.838h-3.965v-.838zm-2.727-1.991h.969v8.131q0 .52.178.817.18.293.466.417.286.12.611.119a2 2 0 0 0 .325-.022 4 4 0 0 0 .238-.054l.205.871a2 2 0 0 1-.346.098 2.2 2.2 0 0 1-.508.048q-.531 0-1.023-.232a2 2 0 0 1-.8-.693q-.315-.46-.315-1.141zm10.195 7.125V35.69h.963V44h-.963v-1.38h-.076a2.57 2.57 0 0 1-.925 1.066q-.633.422-1.547.422-.796 0-1.412-.346a2.45 2.45 0 0 1-.969-1.028q-.351-.676-.352-1.661V35.69h.964v5.324q0 .974.573 1.569.573.59 1.472.59a2.3 2.3 0 0 0 1.082-.271q.519-.27.855-.79.335-.526.335-1.288M111.879 44v-8.31h.936v1.277h.07q.248-.628.866-1.012.621-.39 1.406-.39a14 14 0 0 1 .509.016v.98l-.227-.033a3 3 0 0 0-.352-.021 2.4 2.4 0 0 0-1.158.276q-.502.27-.795.752a2.07 2.07 0 0 0-.292 1.098V44zm8.537.173q-1.163 0-2.012-.54a3.6 3.6 0 0 1-1.315-1.51q-.46-.97-.46-2.23 0-1.255.46-2.229.466-.979 1.282-1.53.822-.558 1.899-.558.677 0 1.304.249a3.15 3.15 0 0 1 1.125.752q.504.504.796 1.271.292.763.292 1.808v.476h-6.493v-.85h5.508q0-.8-.324-1.439a2.53 2.53 0 0 0-.893-1.017 2.34 2.34 0 0 0-1.315-.373q-.79 0-1.39.421a2.9 2.9 0 0 0-.942 1.115 3.5 3.5 0 0 0-.341 1.515v.509q0 .99.341 1.73.347.737.98 1.142.633.406 1.498.406.59 0 1.034-.184a2.2 2.2 0 0 0 1.217-1.18l.914.298q-.189.525-.622.969a3.2 3.2 0 0 1-1.071.714q-.638.265-1.472.265" opacity=".59"/></svg>