<svg xmlns="http://www.w3.org/2000/svg" width="100" height="49" fill="none"><g fill="#fff" filter="url(#a)"><path d="M15.337 12.318v-1.584h-8.16v1.584zm-8.16 5.232h8.16v-1.696h-8.16zm8.16-2.64v-1.632h-8.16v1.632zm3.056-6.704h-6.4c-.176.512-.336 1.024-.528 1.472h5.088v9.84h-1.216v-.912h-8.16v.912H6.01v-9.84h4.192c.144-.464.288-1.008.384-1.472h-6.4V7.102h4.128c-.32-.544-.864-1.264-1.36-1.808l1.04-.448c.576.56 1.216 1.344 1.504 1.888l-.688.368h4.224a17.6 17.6 0 0 0 1.456-2.224l1.296.336a16 16 0 0 1-1.424 1.888h4.032zm8.32 5.568V10.91h1.2v2.88c0 2.176-.88 4.384-7.056 5.744-.128-.288-.464-.72-.72-.992 5.904-1.184 6.576-3.056 6.576-4.768m1.28 2.736.672-.816c1.824.8 4.24 2.048 5.456 2.928l-.736.944c-1.168-.896-3.536-2.224-5.392-3.056M20.505 5.774H34.17v1.12h-6.352a27 27 0 0 1-.88 1.904h5.712v7.392h-1.248V9.902h-8.144v6.32h-1.184V8.798h3.664c.256-.56.544-1.28.736-1.904h-5.968v-1.12zm-9.864 23.148v8.364H9.55v-3.792H5.29v3.792H4.197v-8.364H5.29v3.672h4.26v-3.672h1.092zm4.733 8.472a3.4 3.4 0 0 1-1.68-.42 3.05 3.05 0 0 1-1.176-1.188q-.42-.78-.42-1.8 0-1.008.432-1.776.444-.78 1.2-1.188a3.4 3.4 0 0 1 1.692-.42q.936 0 1.692.42.756.408 1.188 1.176.444.768.444 1.788t-.456 1.8a3.1 3.1 0 0 1-1.212 1.188q-.768.42-1.704.42m0-.96q.588 0 1.104-.276t.828-.828q.324-.552.324-1.344t-.312-1.344a2 2 0 0 0-.816-.816 2.24 2.24 0 0 0-1.092-.276q-.6 0-1.104.276a1.95 1.95 0 0 0-.792.816q-.3.552-.3 1.344 0 .804.288 1.356.3.552.792.828.492.264 1.08.264M28.09 30.59q.768 0 1.368.324.6.312.948.948t.348 1.548v3.876h-1.08v-3.72q0-.984-.492-1.5-.48-.528-1.308-.528-.852 0-1.356.552-.504.54-.504 1.572v3.624h-1.08v-3.72q0-.984-.492-1.5-.48-.528-1.308-.528-.852 0-1.356.552-.504.54-.504 1.572v3.624h-1.092V30.71h1.092v.948q.324-.516.864-.792a2.7 2.7 0 0 1 1.212-.276q.828 0 1.464.372t.948 1.092q.276-.696.912-1.08a2.7 2.7 0 0 1 1.416-.384m10.455 3.156q0 .312-.036.66h-5.256q.06.972.66 1.524.612.54 1.476.54.708 0 1.176-.324.48-.336.672-.888h1.176a2.86 2.86 0 0 1-1.056 1.548q-.792.588-1.968.588-.936 0-1.68-.42a3 3 0 0 1-1.152-1.188q-.42-.78-.42-1.8t.408-1.788a2.84 2.84 0 0 1 1.14-1.176q.744-.42 1.704-.42.936 0 1.656.408t1.104 1.128q.396.708.396 1.608m-1.128-.228q0-.624-.276-1.068a1.74 1.74 0 0 0-.756-.684q-.468-.24-1.044-.24-.828 0-1.416.528-.576.528-.66 1.464zm6.86-1.596q.326-.564.96-.936.65-.384 1.5-.384.877 0 1.585.42.72.42 1.128 1.188.408.756.408 1.764 0 .996-.408 1.776a3 3 0 0 1-2.712 1.644q-.84 0-1.488-.372a2.76 2.76 0 0 1-.972-.948v4.332h-1.092V30.71h1.092zm4.465 2.052q0-.744-.3-1.296a2.07 2.07 0 0 0-.816-.84 2.2 2.2 0 0 0-1.116-.288q-.6 0-1.116.3a2.15 2.15 0 0 0-.816.852q-.3.552-.3 1.284 0 .744.3 1.308.312.552.816.852.516.288 1.116.288.612 0 1.116-.288.516-.3.816-.852.3-.564.3-1.32m2.145 0q0-1.008.408-1.764a2.96 2.96 0 0 1 1.116-1.188 3.1 3.1 0 0 1 1.596-.42q.864 0 1.5.372t.948.936v-1.2h1.104v6.576h-1.104v-1.224q-.324.576-.972.96-.636.372-1.488.372a3 3 0 0 1-1.584-.432 3.03 3.03 0 0 1-1.116-1.212q-.408-.78-.408-1.776m5.568.012q0-.744-.3-1.296a2.07 2.07 0 0 0-.816-.84 2.14 2.14 0 0 0-1.116-.3q-.612 0-1.116.288a2.1 2.1 0 0 0-.804.84q-.3.552-.3 1.296 0 .756.3 1.32.3.552.804.852a2.2 2.2 0 0 0 1.116.288q.612 0 1.116-.288.516-.3.816-.852.3-.564.3-1.308m5.662-3.384q.852 0 1.488.372.648.372.96.936v-1.2h1.103v6.72q0 .9-.384 1.596-.384.708-1.104 1.104-.708.396-1.656.396-1.296 0-2.16-.612a2.4 2.4 0 0 1-1.02-1.668h1.08q.18.6.745.96.564.372 1.356.372.9 0 1.464-.564.575-.564.575-1.584v-1.38a2.6 2.6 0 0 1-.96.96q-.636.384-1.487.384a3.04 3.04 0 0 1-1.596-.432 3.03 3.03 0 0 1-1.117-1.212q-.408-.78-.408-1.776 0-1.008.408-1.764a2.96 2.96 0 0 1 1.116-1.188 3.1 3.1 0 0 1 1.596-.42zm2.447 3.384q0-.744-.3-1.296a2.07 2.07 0 0 0-.815-.84 2.14 2.14 0 0 0-1.116-.3q-.612 0-1.116.288a2.1 2.1 0 0 0-.804.84q-.3.552-.3 1.296 0 .756.3 1.32.3.552.804.852a2.2 2.2 0 0 0 1.116.288q.611 0 1.116-.288.514-.3.816-.852.3-.564.3-1.308zm8.95-.24q0 .312-.036.66h-5.256q.06.972.66 1.524.612.54 1.476.54.708 0 1.176-.324.48-.336.672-.888h1.176a2.86 2.86 0 0 1-1.056 1.548q-.792.588-1.968.588-.936 0-1.68-.42a3 3 0 0 1-1.152-1.188q-.42-.78-.42-1.8t.408-1.788a2.84 2.84 0 0 1 1.14-1.176q.744-.42 1.704-.42.936 0 1.656.408t1.104 1.128q.396.708.396 1.608m-1.128-.228q0-.624-.276-1.068a1.74 1.74 0 0 0-.756-.684q-.468-.24-1.044-.24-.828 0-1.416.528-.576.528-.66 1.464z"/></g><defs><filter id="a" width="103.805" height="50" x="-.727" y=".286" color-interpolation-filters="sRGB" filterUnits="userSpaceOnUse"><feFlood flood-opacity="0" result="BackgroundImageFix"/><feColorMatrix in="SourceAlpha" result="hardAlpha" values="0 0 0 0 0 0 0 0 0 0 0 0 0 0 0 0 0 0 127 0"/><feOffset dy="4"/><feGaussianBlur stdDeviation="2"/><feComposite in2="hardAlpha" operator="out"/><feColorMatrix values="0 0 0 0 0 0 0 0 0 0 0 0 0 0 0 0 0 0 0.25 0"/><feBlend in2="BackgroundImageFix" result="effect1_dropShadow_43_8295"/><feBlend in="SourceGraphic" in2="effect1_dropShadow_43_8295" result="shape"/></filter></defs></svg>