<svg xmlns="http://www.w3.org/2000/svg" width="343" height="65" fill="none"><path fill="#fff" d="m32.038 26-8.128-9.952V26h-4.48V3.664h4.48V13.68l8.128-10.016h5.408L28.23 14.736 37.702 26zm18.979.224q-3.135 0-5.76-1.472a11 11 0 0 1-4.16-4.064q-1.536-2.625-1.536-5.92 0-3.264 1.536-5.856a10.96 10.96 0 0 1 4.16-4.096q2.625-1.472 5.76-1.472 3.168 0 5.76 1.472a10.7 10.7 0 0 1 4.128 4.096q1.536 2.592 1.536 5.856 0 3.295-1.536 5.92a10.8 10.8 0 0 1-4.128 4.064q-2.625 1.472-5.76 1.472m0-4q2.016 0 3.552-.896 1.536-.928 2.4-2.624t.864-3.936-.864-3.904q-.864-1.696-2.4-2.592c-1.536-.896-2.208-.896-3.552-.896q-2.016 0-3.584.896-1.536.896-2.4 2.592-.864 1.664-.864 3.904t.864 3.936 2.4 2.624q1.568.896 3.584.896M84.877 26h-4.48L70.255 10.672V26h-4.48V3.632h4.48l10.144 15.36V3.632h4.48V26zm19.98-15.616q-.768-1.408-2.112-2.144-1.344-.735-3.136-.736-1.983 0-3.52.896c-1.537.896-1.824 1.45-2.4 2.56q-.864 1.665-.864 3.84 0 2.24.864 3.904.897 1.665 2.464 2.56c1.567.895 2.261.896 3.648.896q2.56 0 4.192-1.344 1.632-1.376 2.144-3.808h-7.68v-3.424h12.096v3.904q-.447 2.335-1.92 4.32-1.471 1.985-3.808 3.2-2.304 1.184-5.184 1.184-3.232 0-5.856-1.44a10.86 10.86 0 0 1-4.096-4.064q-1.472-2.591-1.472-5.888t1.472-5.888q1.504-2.625 4.096-4.064 2.624-1.472 5.824-1.472 3.776 0 6.56 1.856 2.784 1.824 3.84 5.152zm36.23-6.688L132.671 26h-3.36l-8.416-22.304h3.104l7.008 19.232 7.008-19.232zm4.697 1.92a1.92 1.92 0 0 1-1.408-.576 1.92 1.92 0 0 1-.576-1.408q0-.832.576-1.408a1.92 1.92 0 0 1 1.408-.576q.8 0 1.344.576.576.576.576 1.408t-.576 1.408a1.78 1.78 0 0 1-1.344.576m1.408 2.848V26h-2.912V8.464zm11.171 17.824q-2.016 0-3.616-.672-1.6-.705-2.528-1.92a5.2 5.2 0 0 1-1.024-2.848h3.008q.128 1.313 1.216 2.144 1.12.832 2.912.832 1.664 0 2.624-.736t.96-1.856q0-1.152-1.024-1.696-1.024-.576-3.168-1.12-1.952-.512-3.2-1.024a6.1 6.1 0 0 1-2.112-1.568q-.864-1.056-.864-2.752 0-1.344.8-2.464t2.272-1.76q1.471-.672 3.36-.672 2.911 0 4.704 1.472t1.92 4.032h-2.912q-.096-1.376-1.12-2.208-.992-.832-2.688-.832-1.567 0-2.496.672-.928.672-.928 1.76 0 .864.544 1.44a4.7 4.7 0 0 0 1.408.896q.864.32 2.368.736 1.888.512 3.072 1.024 1.184.48 2.016 1.472.864.992.896 2.592a4.44 4.44 0 0 1-.8 2.592q-.8 1.152-2.272 1.824-1.44.64-3.328.64m26.063-17.824V26h-2.912v-2.592q-.833 1.344-2.336 2.112-1.473.736-3.264.736-2.048 0-3.68-.832-1.632-.864-2.592-2.56-.928-1.696-.928-4.128V8.464h2.88v9.888q0 2.592 1.312 4 1.311 1.376 3.584 1.376 2.336 0 3.68-1.44t1.344-4.192V8.464zm3.828 8.704q0-2.688 1.088-4.704 1.089-2.047 2.976-3.168 1.92-1.12 4.256-1.12 2.305 0 4 .992 1.697.992 2.528 2.496v-3.2h2.944V26h-2.944v-3.264q-.864 1.536-2.592 2.56-1.695.992-3.968.992-2.335 0-4.224-1.152-1.887-1.152-2.976-3.232t-1.088-4.736m14.848.032q0-1.985-.8-3.456-.8-1.472-2.176-2.24-1.344-.8-2.976-.8c-1.632 0-2.08.256-2.976.768q-1.344.768-2.144 2.24-.8 1.471-.8 3.456 0 2.016.8 3.52.8 1.472 2.144 2.272 1.344.768 2.976.768c1.632 0 2.08-.256 2.976-.768q1.377-.8 2.176-2.272.8-1.504.8-3.488m10.777-14.88V26h-2.912V2.32zm20.567 23.904q-2.208 0-3.968-.768-1.728-.8-2.72-2.176-.993-1.408-1.024-3.232h3.104a4.18 4.18 0 0 0 1.28 2.656q1.152 1.056 3.328 1.056 2.079 0 3.264-1.024 1.215-1.056 1.216-2.688 0-1.28-.704-2.08a4.5 4.5 0 0 0-1.76-1.216q-1.056-.416-2.848-.896-2.208-.576-3.552-1.152-1.312-.576-2.272-1.792-.928-1.248-.928-3.328 0-1.824.928-3.232.927-1.408 2.592-2.176 1.695-.768 3.872-.768 3.135 0 5.12 1.568 2.016 1.568 2.272 4.16h-3.2q-.16-1.28-1.344-2.24-1.185-.992-3.136-.992-1.824 0-2.976.96-1.152.928-1.152 2.624 0 1.216.672 1.984a4.8 4.8 0 0 0 1.696 1.184q1.023.384 2.848.896 2.208.607 3.552 1.216 1.344.576 2.304 1.824.96 1.215.96 3.328a5.87 5.87 0 0 1-.864 3.072q-.864 1.44-2.56 2.336t-4 .896m15.261-15.36V21.2q0 1.28.544 1.824.544.512 1.888.512h2.144V26h-2.624q-2.431 0-3.648-1.12-1.216-1.12-1.216-3.68V10.864h-2.272v-2.4h2.272V4.048h2.912v4.416h4.576v2.4zm23.656-2.4V26h-2.912v-2.592q-.831 1.344-2.336 2.112-1.472.736-3.264.736-2.048 0-3.68-.832-1.632-.864-2.592-2.56-.928-1.696-.928-4.128V8.464h2.88v9.888q0 2.592 1.312 4 1.313 1.376 3.584 1.376 2.337 0 3.68-1.44 1.344-1.44 1.344-4.192V8.464zm3.829 8.704q0-2.688 1.088-4.704 1.087-2.047 2.976-3.168 1.92-1.12 4.288-1.12 2.048 0 3.808.96 1.76.928 2.688 2.464V2.32h2.944V26h-2.944v-3.296q-.864 1.568-2.56 2.592-1.696.992-3.968.992-2.336 0-4.256-1.152-1.889-1.152-2.976-3.232-1.088-2.08-1.088-4.736m14.848.032q0-1.985-.8-3.456-.8-1.472-2.176-2.24-1.344-.8-2.976-.8c-1.632 0-2.08.256-2.976.768q-1.344.768-2.144 2.24-.8 1.471-.8 3.456 0 2.016.8 3.52.8 1.472 2.144 2.272 1.344.768 2.976.768c1.632 0 2.08-.256 2.976-.768q1.376-.8 2.176-2.272.8-1.504.8-3.488m9.369-11.584a1.92 1.92 0 0 1-1.408-.576 1.92 1.92 0 0 1-.576-1.408q0-.832.576-1.408a1.92 1.92 0 0 1 1.408-.576q.8 0 1.344.576.576.576.576 1.408t-.576 1.408a1.78 1.78 0 0 1-1.344.576m1.408 2.848V26h-2.912V8.464zm12.611 17.824q-2.464 0-4.48-1.12-1.984-1.12-3.136-3.168-1.12-2.08-1.12-4.8 0-2.687 1.152-4.736 1.184-2.08 3.2-3.168 2.016-1.12 4.512-1.12t4.512 1.12q2.016 1.087 3.168 3.136 1.184 2.048 1.184 4.768t-1.216 4.8a8.24 8.24 0 0 1-3.232 3.168q-2.048 1.12-4.544 1.12m0-2.56a6.15 6.15 0 0 0 2.944-.736q1.375-.736 2.208-2.208.864-1.472.864-3.584c0-2.112-.277-2.603-.832-3.584q-.832-1.472-2.176-2.176a6 6 0 0 0-2.912-.736 6 6 0 0 0-2.944.736q-1.312.705-2.112 2.176t-.8 3.584q0 2.145.768 3.616.8 1.472 2.112 2.208 1.313.705 2.88.704M10.28 52.058q1.297.242 2.2 1.32a3.8 3.8 0 0 1 .902 2.508 3.9 3.9 0 0 1-.594 2.112q-.572.924-1.694 1.474Q9.972 60 8.41 60H3.086V44.622h5.17q2.331 0 3.542 1.078 1.232 1.078 1.232 2.794 0 1.43-.77 2.332-.771.88-1.98 1.232m-5.654-.638h3.586q1.561 0 2.398-.726.858-.748.858-2.046 0-1.276-.858-2.002-.837-.726-2.464-.726h-3.52zM8.3 58.702q1.672 0 2.596-.792.946-.792.946-2.178t-.99-2.2q-.969-.836-2.618-.836H4.626v6.006zm9.453-8.58a3.8 3.8 0 0 1 1.54-1.738q1.056-.615 2.574-.616v1.606h-.418q-1.673 0-2.684.902t-1.012 3.014V60h-1.54V47.988h1.54zM29.44 60.176q-1.693 0-3.058-.748a5.7 5.7 0 0 1-2.134-2.156q-.77-1.408-.77-3.278t.792-3.256a5.44 5.44 0 0 1 2.156-2.156q1.365-.77 3.058-.77 1.695 0 3.058.77a5.26 5.26 0 0 1 2.156 2.156q.792 1.387.792 3.256 0 1.848-.792 3.256a5.55 5.55 0 0 1-2.178 2.178q-1.386.748-3.08.748m0-1.342q1.189 0 2.2-.528 1.013-.55 1.628-1.628.638-1.1.638-2.684t-.616-2.662q-.615-1.1-1.628-1.628a4.5 4.5 0 0 0-2.2-.55 4.5 4.5 0 0 0-2.2.55q-1.011.528-1.628 1.628-.594 1.078-.594 2.662t.594 2.684q.616 1.078 1.606 1.628a4.7 4.7 0 0 0 2.2.528m8.154-4.862q0-1.848.726-3.234.747-1.408 2.046-2.156 1.32-.77 2.97-.77 1.716 0 2.948.792 1.254.792 1.804 2.024v-2.64h1.54V60h-1.54v-2.662q-.573 1.232-1.826 2.046-1.233.792-2.948.792-1.628 0-2.948-.77-1.299-.77-2.046-2.178-.726-1.408-.726-3.256m10.494.022q0-1.452-.594-2.552a4.2 4.2 0 0 0-1.628-1.694 4.35 4.35 0 0 0-2.244-.594q-1.277 0-2.288.572-1.012.572-1.606 1.672-.573 1.079-.572 2.574 0 1.474.572 2.596.593 1.1 1.606 1.694 1.011.572 2.288.572 1.23 0 2.244-.594a4.2 4.2 0 0 0 1.628-1.694q.594-1.1.594-2.552m4.351-.022q0-1.848.748-3.234.748-1.408 2.046-2.156 1.32-.77 2.97-.77 1.584 0 2.86.77t1.87 2.002V43.72h1.54V60h-1.54v-2.684q-.55 1.254-1.804 2.068-1.253.792-2.948.792-1.65 0-2.97-.77-1.297-.77-2.046-2.178-.726-1.408-.726-3.256m10.494.022q0-1.452-.594-2.552a4.2 4.2 0 0 0-1.628-1.694 4.35 4.35 0 0 0-2.244-.594q-1.275 0-2.288.572-1.011.572-1.606 1.672-.572 1.079-.572 2.574 0 1.474.572 2.596.595 1.1 1.606 1.694 1.013.572 2.288.572 1.233 0 2.244-.594a4.2 4.2 0 0 0 1.628-1.694q.594-1.1.594-2.552m15.924-.616q0 .792-.044 1.21h-9.966q.066 1.365.66 2.332a3.96 3.96 0 0 0 1.562 1.474q.968.484 2.112.484 1.496 0 2.508-.726a3.4 3.4 0 0 0 1.364-1.958h1.628a5.12 5.12 0 0 1-1.892 2.882q-1.43 1.1-3.608 1.1-1.694 0-3.036-.748a5.53 5.53 0 0 1-2.112-2.156q-.748-1.408-.748-3.278t.748-3.278 2.09-2.156 3.058-.748c1.716 0 2.141.25 2.992.748a5.05 5.05 0 0 1 1.98 2.024q.704 1.254.704 2.794m-1.562-.044q.022-1.342-.55-2.288a3.57 3.57 0 0 0-1.518-1.43 4.66 4.66 0 0 0-2.112-.484q-1.717 0-2.926 1.1t-1.342 3.102zm10.011-5.566q2.157 0 3.52 1.342 1.365 1.32 1.365 3.85V60h-1.518v-6.864q0-1.958-.99-2.992-.969-1.035-2.662-1.034-1.739 0-2.773 1.1-1.033 1.1-1.033 3.234V60h-1.54V47.988h1.54v2.046a3.87 3.87 0 0 1 1.65-1.672q1.077-.594 2.442-.594zm20.048 0q1.364 0 2.442.572 1.1.572 1.716 1.76.638 1.165.638 2.86V60h-1.518v-6.864q0-1.958-.99-2.992-.969-1.035-2.662-1.034-1.738 0-2.772 1.1t-1.034 3.234V60h-1.54V43.72h1.54v6.314a4 4 0 0 1 1.672-1.672q1.122-.594 2.508-.594m13.459 12.408q-1.693 0-3.058-.748a5.7 5.7 0 0 1-2.134-2.156q-.77-1.408-.77-3.278t.792-3.256a5.45 5.45 0 0 1 2.156-2.156q1.365-.77 3.058-.77 1.695 0 3.058.77a5.26 5.26 0 0 1 2.156 2.156q.792 1.387.792 3.256 0 1.848-.792 3.256a5.55 5.55 0 0 1-2.178 2.178q-1.386.748-3.08.748m0-1.342q1.188 0 2.2-.528 1.013-.55 1.628-1.628.639-1.1.638-2.684 0-1.584-.616-2.662-.615-1.1-1.628-1.628a4.5 4.5 0 0 0-2.2-.55 4.5 4.5 0 0 0-2.2.55q-1.011.528-1.628 1.628-.594 1.078-.594 2.662t.594 2.684q.616 1.078 1.606 1.628a4.7 4.7 0 0 0 2.2.528m10.398-8.712a3.78 3.78 0 0 1 1.54-1.738q1.056-.615 2.574-.616v1.606h-.418q-1.673 0-2.684.902t-1.012 3.014V60h-1.54V47.988h1.54zm7.2-4.4a1.08 1.08 0 0 1-.792-.33q-.33-.33-.33-.814t.33-.792q.33-.33.792-.33t.792.33q.33.308.33.792t-.33.814-.792.33m.77 2.266V60h-1.54V47.988zm4.302 10.736h6.292V60h-8.052v-1.276l6.182-9.46h-6.072v-1.276h7.832v1.276zm14.155 1.452q-1.695 0-3.058-.748a5.7 5.7 0 0 1-2.134-2.156q-.77-1.408-.77-3.278t.792-3.256a5.44 5.44 0 0 1 2.156-2.156q1.363-.77 3.058-.77 1.693 0 3.058.77a5.27 5.27 0 0 1 2.156 2.156q.792 1.387.792 3.256 0 1.848-.792 3.256a5.55 5.55 0 0 1-2.178 2.178q-1.386.748-3.08.748m0-1.342q1.188 0 2.2-.528 1.011-.55 1.628-1.628.638-1.1.638-2.684t-.616-2.662q-.617-1.1-1.628-1.628a4.5 4.5 0 0 0-2.2-.55q-1.189 0-2.2.55-1.013.528-1.628 1.628-.594 1.078-.594 2.662t.594 2.684q.615 1.078 1.606 1.628a4.7 4.7 0 0 0 2.2.528m14.489-11.066q2.156 0 3.52 1.342 1.364 1.32 1.364 3.85V60h-1.518v-6.864q0-1.958-.99-2.992-.968-1.035-2.662-1.034-1.738 0-2.772 1.1t-1.034 3.234V60h-1.54V47.988h1.54v2.046a3.86 3.86 0 0 1 1.65-1.672q1.078-.594 2.442-.594m12.426 12.408q-2.068 0-3.388-.946-1.299-.968-1.452-2.618h1.584q.11 1.013.946 1.65.857.615 2.288.616 1.254 0 1.958-.594.726-.594.726-1.474 0-.615-.396-1.012a2.7 2.7 0 0 0-1.012-.616q-.594-.242-1.628-.506-1.343-.353-2.178-.704a3.85 3.85 0 0 1-1.43-1.034q-.573-.705-.572-1.87 0-.88.528-1.628.528-.749 1.496-1.188.967-.44 2.2-.44 1.935 0 3.124.99 1.188.968 1.276 2.684h-1.54q-.066-1.056-.836-1.694-.748-.66-2.068-.66-1.166 0-1.892.55t-.726 1.364q0 .705.418 1.166.44.44 1.078.704a22 22 0 0 0 1.716.55q1.297.352 2.068.682.77.33 1.32.968t.572 1.694q0 .968-.528 1.738-.529.749-1.474 1.188-.946.44-2.178.44m24.82-.176-2.09-2.134q-1.123 1.232-2.398 1.826-1.277.572-2.882.572-1.54 0-2.728-.572-1.188-.594-1.848-1.65t-.66-2.442q0-1.627.924-2.838.924-1.21 2.706-1.892-.771-.858-1.122-1.584a3.7 3.7 0 0 1-.352-1.606q0-1.475 1.056-2.376 1.055-.924 2.816-.924 1.65 0 2.684.946t.968 2.464h-1.54q.021-.99-.616-1.562-.617-.572-1.562-.572-1.012 0-1.65.572-.616.55-.616 1.43 0 .705.374 1.364.395.66 1.232 1.562l5.06 5.126q.308-.419.836-1.32l1.408-2.354h1.65l-1.672 2.882q-.594 1.034-1.188 1.848L211.376 60h-2.002zm-7.37-1.078q1.298 0 2.31-.506 1.034-.506 1.958-1.584l-4.906-4.972q-3.058 1.122-3.058 3.696 0 .968.462 1.738.483.749 1.32 1.188.835.44 1.914.44m19.055-15.202V60h-1.54V43.72zm14.356 9.658q0 .792-.044 1.21h-9.966q.066 1.365.66 2.332a3.96 3.96 0 0 0 1.562 1.474 4.65 4.65 0 0 0 2.112.484q1.496 0 2.508-.726a3.4 3.4 0 0 0 1.364-1.958h1.628a5.12 5.12 0 0 1-1.892 2.882q-1.43 1.1-3.608 1.1-1.695 0-3.036-.748a5.5 5.5 0 0 1-2.112-2.156q-.748-1.408-.748-3.278t.748-3.278a5.2 5.2 0 0 1 2.09-2.156q1.342-.748 3.058-.748c1.716 0 2.141.25 2.992.748a5.06 5.06 0 0 1 1.98 2.024q.704 1.254.704 2.794m-1.562-.044q.021-1.342-.55-2.288a3.57 3.57 0 0 0-1.518-1.43 4.66 4.66 0 0 0-2.112-.484q-1.716 0-2.926 1.1t-1.342 3.102zm3.675.638q0-1.848.726-3.234.749-1.408 2.046-2.156 1.32-.77 2.97-.77 1.716 0 2.948.792 1.255.792 1.804 2.024v-2.64h1.54V60h-1.54v-2.662q-.572 1.232-1.826 2.046-1.232.792-2.948.792-1.628 0-2.948-.77-1.298-.77-2.046-2.178-.726-1.408-.726-3.256m10.494.022q0-1.452-.594-2.552a4.2 4.2 0 0 0-1.628-1.694 4.35 4.35 0 0 0-2.244-.594q-1.275 0-2.288.572t-1.606 1.672q-.572 1.079-.572 2.574 0 1.474.572 2.596.594 1.1 1.606 1.694 1.013.572 2.288.572 1.233 0 2.244-.594a4.2 4.2 0 0 0 1.628-1.694q.594-1.1.594-2.552m4.352-.022q0-1.848.748-3.234.748-1.408 2.046-2.156 1.32-.77 2.97-.77 1.584 0 2.86.77c1.276.77 1.474 1.18 1.87 2.002V43.72h1.54V60h-1.54v-2.684q-.55 1.254-1.804 2.068-1.254.792-2.948.792-1.65 0-2.97-.77-1.298-.77-2.046-2.178-.726-1.408-.726-3.256m10.494.022q0-1.452-.594-2.552a4.2 4.2 0 0 0-1.628-1.694 4.35 4.35 0 0 0-2.244-.594q-1.276 0-2.288.572t-1.606 1.672q-.572 1.079-.572 2.574 0 1.474.572 2.596.594 1.1 1.606 1.694 1.012.572 2.288.572 1.231 0 2.244-.594a4.2 4.2 0 0 0 1.628-1.694q.594-1.1.594-2.552m13.095-4.708v7.458q0 1.1.418 1.518t1.474.418h1.408V60h-1.65q-1.629 0-2.42-.748-.792-.77-.792-2.508v-7.458h-1.672v-1.298h1.672v-3.014h1.562v3.014h3.3v1.298zm7.379.836a3.8 3.8 0 0 1 1.54-1.738q1.056-.615 2.574-.616v1.606h-.418q-1.671 0-2.684.902-1.012.902-1.012 3.014V60h-1.54V47.988h1.54zm17.299 3.256q0 .792-.044 1.21h-9.966q.066 1.365.66 2.332a3.97 3.97 0 0 0 1.562 1.474 4.66 4.66 0 0 0 2.112.484q1.497 0 2.508-.726a3.4 3.4 0 0 0 1.364-1.958h1.628a5.1 5.1 0 0 1-1.892 2.882q-1.43 1.1-3.608 1.1-1.694 0-3.036-.748a5.54 5.54 0 0 1-2.112-2.156q-.748-1.408-.748-3.278t.748-3.278a5.2 5.2 0 0 1 2.09-2.156q1.342-.748 3.058-.748c1.716 0 2.142.25 2.992.748a5.04 5.04 0 0 1 1.98 2.024q.705 1.254.704 2.794m-1.562-.044q.023-1.342-.55-2.288a3.56 3.56 0 0 0-1.518-1.43 4.65 4.65 0 0 0-2.112-.484q-1.716 0-2.926 1.1t-1.342 3.102zm10.012-5.566q2.155 0 3.52 1.342 1.364 1.32 1.364 3.85V60h-1.518v-6.864q0-1.958-.99-2.992-.969-1.035-2.662-1.034-1.739 0-2.772 1.1-1.035 1.1-1.034 3.234V60h-1.54V47.988h1.54v2.046a3.86 3.86 0 0 1 1.65-1.672q1.077-.594 2.442-.594m7.586 6.204q0-1.848.748-3.234.747-1.408 2.046-2.156 1.32-.77 2.97-.77 1.584 0 2.86.77t1.87 2.002V43.72h1.54V60h-1.54v-2.684q-.55 1.254-1.804 2.068-1.254.792-2.948.792-1.65 0-2.97-.77-1.299-.77-2.046-2.178-.726-1.408-.726-3.256m10.494.022q0-1.452-.594-2.552a4.2 4.2 0 0 0-1.628-1.694 4.35 4.35 0 0 0-2.244-.594q-1.277 0-2.288.572-1.012.572-1.606 1.672-.572 1.079-.572 2.574 0 1.474.572 2.596.594 1.1 1.606 1.694 1.011.572 2.288.572 1.232 0 2.244-.594a4.2 4.2 0 0 0 1.628-1.694q.594-1.1.594-2.552m9.191 6.182q-2.067 0-3.388-.946-1.298-.968-1.452-2.618h1.584q.11 1.013.946 1.65.858.615 2.288.616 1.254 0 1.958-.594.726-.594.726-1.474 0-.615-.396-1.012a2.7 2.7 0 0 0-1.012-.616q-.594-.242-1.628-.506-1.341-.353-2.178-.704a3.86 3.86 0 0 1-1.43-1.034q-.572-.705-.572-1.87 0-.88.528-1.628.528-.749 1.496-1.188.969-.44 2.2-.44 1.936 0 3.124.99 1.188.968 1.276 2.684h-1.54q-.065-1.056-.836-1.694-.748-.66-2.068-.66-1.166 0-1.892.55t-.726 1.364q0 .705.418 1.166.44.44 1.078.704.639.242 1.716.55 1.299.352 2.068.682.771.33 1.32.968.55.638.572 1.694 0 .968-.528 1.738-.528.749-1.474 1.188-.945.44-2.178.44"/></svg>