<svg xmlns="http://www.w3.org/2000/svg" width="272" height="63" fill="none"><rect width="6" height="58" y="2.5" fill="#7896FF" rx="2.626"/><path fill="#fff" d="M44.12 13.852q0 1.968-1.356 3.279-1.335 1.29-4.093 1.289h-3.03V25h-2.058V9.24h5.088q2.668 0 4.047 1.288 1.402 1.29 1.402 3.324m-5.449 2.872q1.719 0 2.532-.746.815-.746.815-2.126 0-2.916-3.347-2.917h-3.03v5.789zm7.238 2.035q0-1.899.769-3.324.769-1.447 2.103-2.238 1.357-.792 3.007-.792 1.629 0 2.827.701 1.198.7 1.786 1.764v-2.261h2.08V25h-2.08v-2.306q-.61 1.084-1.832 1.809-1.198.7-2.803.7-1.65 0-2.985-.813-1.334-.815-2.103-2.284-.77-1.47-.769-3.347m10.492.023q0-1.402-.565-2.442a3.9 3.9 0 0 0-1.538-1.583 4.03 4.03 0 0 0-2.103-.566 4.16 4.16 0 0 0-2.103.543q-.95.543-1.515 1.583t-.565 2.442q0 1.425.565 2.487.566 1.04 1.515 1.606a4.16 4.16 0 0 0 2.103.543 4.16 4.16 0 0 0 2.103-.543 4.05 4.05 0 0 0 1.538-1.606q.565-1.062.565-2.464m7.615-4.16a3.97 3.97 0 0 1 1.538-1.652q1.017-.588 2.465-.588v2.126h-.543q-3.46 0-3.46 3.754V25H61.96V12.609h2.057zm8.888-.317v7.303q0 .905.384 1.29.385.36 1.334.36h1.515V25h-1.854q-1.718 0-2.578-.791-.858-.792-.859-2.6v-7.304h-1.605v-1.696h1.605v-3.12h2.058v3.12h3.233v1.696zm6.79-3.709q-.589 0-.996-.407a1.35 1.35 0 0 1-.407-.995q0-.588.407-.995t.995-.407q.566 0 .95.407.407.407.407.995c0 .588-.136.724-.407.995a1.25 1.25 0 0 1-.95.407zm.994 2.013V25H78.63V12.609zm2.738 6.15q0-1.899.77-3.324.768-1.447 2.102-2.238 1.357-.792 3.007-.792 1.629 0 2.827.701 1.198.7 1.786 1.764v-2.261h2.08V25h-2.08v-2.306q-.61 1.084-1.831 1.809-1.2.7-2.804.7-1.65 0-2.985-.813-1.334-.815-2.103-2.284-.768-1.47-.769-3.347m10.492.023q0-1.402-.565-2.442a3.9 3.9 0 0 0-1.538-1.583 4.03 4.03 0 0 0-2.102-.566q-1.154 0-2.103.543-.951.543-1.515 1.583-.566 1.041-.566 2.442 0 1.425.566 2.487.564 1.04 1.515 1.606a4.16 4.16 0 0 0 2.103.543q1.153 0 2.102-.543a4.05 4.05 0 0 0 1.538-1.606q.565-1.062.565-2.464m7.616-10.515V25h-2.058V8.267zm15.685 4.116q1.402 0 2.533.61 1.131.588 1.764 1.786.655 1.2.655 2.917V25h-2.035v-7.01q0-1.854-.927-2.826-.927-.995-2.532-.995-1.628 0-2.601 1.017-.95 1.018-.949 2.963V25h-2.058V8.267h2.058v6.105a4.07 4.07 0 0 1 1.673-1.47q1.085-.52 2.419-.52zm9.376-1.787q-.588 0-.995-.407a1.36 1.36 0 0 1-.407-.995q0-.588.407-.995t.995-.407q.566 0 .95.407.407.407.407.995c0 .588-.136.724-.407.995a1.25 1.25 0 0 1-.95.407m.995 2.013V25h-2.057V12.609zm7.894 12.594q-1.424 0-2.555-.474-1.13-.498-1.787-1.357a3.67 3.67 0 0 1-.723-2.012h2.125q.091.926.86 1.515.79.587 2.057.587 1.176 0 1.855-.52.678-.52.678-1.311 0-.814-.724-1.199-.723-.407-2.238-.791-1.38-.361-2.261-.724a4.3 4.3 0 0 1-1.493-1.108q-.61-.745-.61-1.944 0-.95.565-1.741.566-.792 1.605-1.244 1.04-.475 2.375-.475 2.057 0 3.324 1.04t1.356 2.85h-2.057q-.068-.974-.792-1.56-.7-.59-1.899-.589-1.108 0-1.764.475t-.656 1.244q0 .61.385 1.017.407.386.995.633.61.227 1.673.52 1.334.363 2.171.724a3.6 3.6 0 0 1 1.424 1.04q.61.702.633 1.832 0 1.018-.565 1.831-.566.814-1.605 1.29-1.018.45-2.352.451m9.937-10.898v7.303q0 .905.384 1.29.385.36 1.335.36h1.515V25H146.8q-1.718 0-2.577-.791-.86-.792-.86-2.6v-7.304h-1.605v-1.696h1.605v-3.12h2.058v3.12h3.234v1.696zm11.131 10.898q-1.741 0-3.166-.79a5.76 5.76 0 0 1-2.216-2.24q-.79-1.47-.791-3.391 0-1.9.814-3.347.837-1.47 2.261-2.238 1.425-.792 3.188-.792t3.189.792a5.55 5.55 0 0 1 2.238 2.216q.837 1.446.837 3.369 0 1.922-.859 3.392a5.8 5.8 0 0 1-2.284 2.238q-1.447.791-3.211.791m0-1.808a4.35 4.35 0 0 0 2.08-.52q.973-.52 1.56-1.56.61-1.04.611-2.533 0-1.493-.588-2.533-.587-1.04-1.538-1.537a4.2 4.2 0 0 0-2.057-.52q-1.13 0-2.081.52-.927.497-1.492 1.537t-.565 2.533q0 1.515.542 2.555.566 1.04 1.493 1.56a4.24 4.24 0 0 0 2.035.498m11.117-8.774a3.97 3.97 0 0 1 1.538-1.65q1.018-.589 2.464-.588v2.125h-.542q-3.46 0-3.46 3.754V25h-2.058V12.609h2.058zm17.051-2.012-7.462 18.225h-2.126l2.442-5.97-4.997-12.255h2.284l3.889 10.04 3.844-10.04zm10.154 2.284q.61-1.064 1.809-1.764 1.221-.724 2.826-.724 1.651 0 2.985.792 1.357.79 2.126 2.238.768 1.425.769 3.324 0 1.877-.769 3.347t-2.126 2.284q-1.334.813-2.985.813-1.582 0-2.803-.7-1.199-.724-1.832-1.787v8.163h-2.058V12.61h2.058zm8.412 3.866q0-1.401-.566-2.442a3.9 3.9 0 0 0-1.537-1.583 4.16 4.16 0 0 0-2.103-.543 4.1 4.1 0 0 0-2.103.566q-.95.543-1.538 1.605-.565 1.04-.565 2.42 0 1.401.565 2.464.588 1.04 1.538 1.606a4.24 4.24 0 0 0 2.103.543 4.16 4.16 0 0 0 2.103-.543 4.04 4.04 0 0 0 1.537-1.606q.566-1.062.566-2.487m6.869-4.138a3.97 3.97 0 0 1 1.537-1.65q1.018-.589 2.465-.588v2.125h-.543q-3.459 0-3.459 3.754V25h-2.058V12.609h2.058zm11.782 10.582q-1.741 0-3.166-.79a5.75 5.75 0 0 1-2.216-2.24q-.791-1.47-.791-3.391 0-1.9.814-3.347.836-1.47 2.261-2.238 1.424-.792 3.188-.792t3.188.792a5.56 5.56 0 0 1 2.239 2.216q.837 1.446.837 3.369 0 1.922-.86 3.392a5.8 5.8 0 0 1-2.283 2.238q-1.448.791-3.211.791m0-1.808q1.107 0 2.08-.52.972-.52 1.56-1.56.61-1.04.611-2.533 0-1.493-.588-2.533t-1.538-1.537a4.2 4.2 0 0 0-2.058-.52 4.26 4.26 0 0 0-2.08.52q-.927.497-1.492 1.537-.566 1.04-.566 2.533 0 1.515.543 2.555.565 1.04 1.493 1.56a4.24 4.24 0 0 0 2.035.498m10.167-12.799q-.588 0-.995-.407a1.4 1.4 0 0 1-.384-.995q0-.588.384-.995.407-.407.995-.407c.588 0 .716.136.972.407q.407.408.407.995c0 .587-.135.724-.407.995a1.28 1.28 0 0 1-.972.407m1.018 17.095q0 1.65-.837 2.42-.837.768-2.442.768h-1.199v-1.741h.86q.86 0 1.198-.34.362-.338.362-1.152V12.609h2.058zm14.789-9.361q0 .587-.068 1.243h-9.904q.113 1.831 1.244 2.872 1.153 1.017 2.781 1.017 1.334 0 2.216-.61a3.33 3.33 0 0 0 1.266-1.673h2.216a5.4 5.4 0 0 1-1.99 2.917q-1.493 1.107-3.708 1.107-1.764 0-3.166-.79a5.64 5.64 0 0 1-2.17-2.24q-.792-1.47-.792-3.391 0-1.923.769-3.37.768-1.447 2.148-2.215 1.402-.792 3.211-.792 1.764 0 3.12.769a5.23 5.23 0 0 1 2.081 2.126q.746 1.334.746 3.03m-2.126-.43q0-1.176-.52-2.013a3.27 3.27 0 0 0-1.424-1.289 4.26 4.26 0 0 0-1.968-.452q-1.56 0-2.668.995-1.085.995-1.243 2.759zm4.073.882q0-1.922.769-3.347.769-1.447 2.125-2.238 1.38-.792 3.144-.792 2.283 0 3.753 1.108 1.493 1.108 1.967 3.075H259.4a3.16 3.16 0 0 0-1.243-1.786q-.905-.656-2.261-.656-1.764 0-2.85 1.221-1.085 1.199-1.085 3.415 0 2.238 1.085 3.46 1.086 1.22 2.85 1.22 1.356 0 2.261-.633.904-.633 1.243-1.809h2.216q-.497 1.9-1.99 3.053-1.491 1.13-3.73 1.13-1.764 0-3.144-.79-1.356-.793-2.125-2.24-.77-1.447-.769-3.391m17.014-4.477v7.303q0 .904.384 1.29.385.36 1.334.36h1.515V25h-1.854q-1.719 0-2.578-.791-.858-.792-.859-2.6v-7.304h-1.605v-1.696h1.605v-3.12h2.058v3.12h3.233v1.696zM40.331 51.969h-4.768v3.004h4.768zm-6.473 5.465v-7.093h8.257v6.958H40.33v-.756h-4.768v.891zm8.664-15.486v1.609h-9.149v-1.609h3.838c-.194-.6-.465-1.298-.717-1.86l1.628-.465c.368.736.756 1.647.969 2.325zm-2.559 1.609 1.783.407a74 74 0 0 1-1.337 3.16h2.558v1.627H32.85v-1.628h2.733c-.175-.853-.64-2.132-1.105-3.1l1.57-.408c.504.97.988 2.248 1.182 3.101l-1.415.407h2.869a22.4 22.4 0 0 0 1.28-3.566zm9.07-2.927 1.26.795c-.678 1.803-1.53 4.012-2.306 5.756 1.648 1.764 2.016 3.276 2.016 4.555 0 1.24-.272 2.17-.93 2.636-.33.233-.756.368-1.202.426-.465.058-1.047.058-1.609.04-.02-.466-.174-1.222-.446-1.706.504.058.97.058 1.299.058.29-.02.562-.078.756-.194.368-.233.484-.775.484-1.434 0-1.144-.465-2.52-2.073-4.167a67 67 0 0 0 1.821-5.06H45.43v15.119h-1.59V40.708h4.923l.272-.078zm13.645.078 1.667-.678c1.183 2.558 3.508 5.426 5.505 6.977-.465.349-1.124 1.047-1.435 1.531-.484-.407-.95-.91-1.434-1.454 0 .214 0 .485-.02.64-.251 5.815-.522 8.043-1.162 8.8-.465.523-.911.697-1.609.755-.659.078-1.822.078-3.004.02-.039-.524-.252-1.299-.581-1.803a34 34 0 0 0 2.732.097c.388 0 .62-.039.814-.233.446-.445.679-2.248.892-6.667h-4.749c-.503 3.74-1.763 7.133-6.667 8.896-.194-.465-.717-1.182-1.124-1.57 4.42-1.453 5.485-4.264 5.892-7.326h-3.411v-1.28a17 17 0 0 1-1.376 1.3c-.33-.388-1.086-1.086-1.531-1.396 2.267-1.647 4.225-4.342 5.33-7.249l1.918.562c-.95 2.326-2.325 4.536-3.876 6.28h11.377c-1.55-1.783-3.101-4.07-4.148-6.202m19.15 5.543h6.24s-.019.582-.038.814c-.31 6.163-.601 8.509-1.318 9.303-.427.543-.911.717-1.609.776-.64.077-1.783.058-2.927 0-.038-.524-.271-1.28-.62-1.784a35 35 0 0 0 2.791.097c.368.02.582-.038.814-.252.504-.484.775-2.461 1.027-7.248h-4.516c-.465 4.012-1.744 7.403-5.698 9.477-.213-.445-.756-1.008-1.182-1.337 3.566-1.764 4.67-4.671 5.059-8.14h-4.226V46.25h4.361c.058-.97.097-1.957.117-2.985h1.86c-.039 1.028-.058 2.016-.135 2.985zm7.074-5.64v1.686H74.598v4.73c0 3.081-.213 7.539-1.706 10.465-.348-.31-1.162-.794-1.608-.988 1.376-2.733 1.492-6.61 1.492-9.478v-6.415zm5.213 3.78v3.217h4.652V44.39h-4.651zm11.164 0h-4.651v3.217h4.651zm1.861 4.942h-6.551c-.116 1.666-.523 3.256-1.628 4.613 2.384 1.162 5.562 1.511 9.729 1.628-.329.445-.697 1.24-.833 1.86-4.322-.232-7.714-.736-10.311-2.19-1.28.93-3.101 1.725-5.66 2.326-.193-.426-.678-1.202-1.065-1.609 2.325-.465 3.973-1.066 5.155-1.822-1.124-.95-2.035-2.17-2.79-3.74l1.647-.601a9.8 9.8 0 0 0 2.539 3.178c.93-1.066 1.26-2.306 1.356-3.643h-6.376v-6.668h6.415v-2.849h1.861v2.85h6.512zm10.292-5.388h2.946c.213-.543.407-1.183.581-1.764h-4.148v-1.628h11.067v1.628h-4.787c-.291.62-.562 1.24-.853 1.764h4.497v8.973h-1.822v-7.365h-5.737v7.424h-1.744zm-.834 6.396.233 1.511a250 250 0 0 1-6.435 2.23l-.426-1.9c.717-.194 1.628-.446 2.655-.698v-7.85h-2.345V41.93h6.221v1.706h-2.093v7.326l2.19-.62zm6.396-3.877v4.012c0 2.578-1.008 5.369-6.415 7.036-.233-.388-.756-1.047-1.144-1.376 5.175-1.376 5.757-3.702 5.757-5.68v-3.992zm-.349 7.87 1.124-1.106c1.435.853 3.334 2.152 4.264 3.005l-1.201 1.24c-.892-.892-2.733-2.229-4.187-3.14zm10.912.019h9.575V51.58h-9.575v2.772zm9.575-7.269h-9.575v2.791h9.575zm0-4.457h-9.575v2.752h9.575zm-11.397-1.764h13.296v16.532h-1.899v-1.279h-9.575v1.28h-1.822z"/></svg>