<svg xmlns="http://www.w3.org/2000/svg" width="101" height="46" fill="none"><g fill="#fff" filter="url(#a)"><path d="M18.705 6.323V7.46h-7.504V6.323zM10.61 15.3l.144 1.04c-2 .56-4.08 1.152-5.616 1.568l-.272-1.136c.64-.16 1.424-.368 2.304-.592v-3.984H5.297v-1.12H7.17v-3.52H5.09V6.451h5.312v1.104h-2.08v3.52h1.824v1.12H8.321v3.696c.752-.192 1.52-.4 2.288-.592zm6.56 3.296h1.104c.336 0 .4-.304.448-2.176.24.224.736.416 1.056.496-.096 2.208-.4 2.8-1.392 2.8H17.01c-1.12 0-1.408-.368-1.408-1.616v-6.032h-1.808c-.192 3.952-.8 6.448-4.304 7.792-.112-.272-.432-.704-.688-.896 3.232-1.168 3.68-3.344 3.84-6.896h-2.144v-1.152h9.056v1.152H16.77v6.016c0 .448.064.512.4.512m7.44-7.312-.656.992c-.656-.544-1.92-1.264-2.96-1.728l.64-.864c1.008.4 2.32 1.088 2.976 1.6m-2.08 8.32-.992-.8c.848-1.216 2.112-3.312 3.024-5.12l.864.784a58 58 0 0 1-2.896 5.136m-.672-13.36.64-.864c1.056.432 2.368 1.152 3.04 1.664l-.688.992c-.64-.544-1.936-1.312-2.992-1.792m13.408 13.024-1.04.528c-.16-.448-.432-.992-.736-1.584-5.936.736-6.608.848-7.04 1.056a9 9 0 0 0-.4-1.184c.304-.08.624-.464 1.024-1.04.352-.48 1.408-2.176 2.208-3.968h-3.568V11.94h4.112V9.091h-3.408V7.955h3.408V5.203h1.184v2.752h3.536v1.136H31.01v2.848h4.192v1.136H30.69c-.832 1.696-1.824 3.392-2.816 4.736l5.056-.56c-.448-.72-.928-1.44-1.424-2.064l.96-.448c1.12 1.392 2.32 3.296 2.8 4.528zM13.681 29.291v8.304H12.59v-6.192l-2.76 6.192h-.768L6.29 31.391v6.204H5.197v-8.304h1.176l3.072 6.864 3.072-6.864zm7.852 4.764q0 .312-.036.66h-5.256q.06.972.66 1.524.612.54 1.476.54.708 0 1.176-.324.48-.336.672-.888h1.176a2.86 2.86 0 0 1-1.056 1.548q-.792.588-1.968.588-.936 0-1.68-.42a3 3 0 0 1-1.152-1.188q-.42-.78-.42-1.8t.408-1.788a2.84 2.84 0 0 1 1.14-1.176q.744-.42 1.704-.42.936 0 1.656.408t1.104 1.128q.396.708.396 1.608m-1.128-.228q0-.624-.276-1.068a1.74 1.74 0 0 0-.756-.684q-.468-.24-1.044-.24-.828 0-1.416.528-.576.528-.66 1.464zm2.162.468q0-1.02.408-1.776a2.94 2.94 0 0 1 1.128-1.188q.732-.42 1.668-.42 1.212 0 1.992.588.792.588 1.044 1.632H27.63a1.68 1.68 0 0 0-.66-.948q-.48-.348-1.2-.348-.936 0-1.512.648-.576.636-.576 1.812 0 1.188.576 1.836t1.512.648q.72 0 1.2-.336t.66-.96h1.176a2.92 2.92 0 0 1-1.056 1.62q-.792.6-1.98.6-.936 0-1.668-.42a2.94 2.94 0 0 1-1.128-1.188q-.408-.768-.408-1.8zm10.96-3.396q.745 0 1.345.324.6.312.936.948.348.636.348 1.548v3.876h-1.08v-3.72q0-.984-.492-1.5-.492-.528-1.344-.528-.864 0-1.38.54-.504.54-.504 1.572v3.636h-1.092v-8.88h1.092v3.24a2.16 2.16 0 0 1 .888-.78 2.9 2.9 0 0 1 1.284-.276zm4.005 3.384q0-1.008.408-1.764a2.96 2.96 0 0 1 1.116-1.188 3.1 3.1 0 0 1 1.596-.42q.864 0 1.5.372t.948.936v-1.2h1.104v6.576H43.1v-1.224q-.324.576-.972.96-.636.372-1.488.372a3 3 0 0 1-1.584-.432 3.03 3.03 0 0 1-1.116-1.212q-.408-.78-.408-1.776m5.568.012q0-.744-.3-1.296a2.07 2.07 0 0 0-.816-.84 2.14 2.14 0 0 0-1.116-.3q-.612 0-1.116.288a2.1 2.1 0 0 0-.804.84q-.3.552-.3 1.296 0 .756.3 1.32.3.552.804.852a2.2 2.2 0 0 0 1.116.288q.612 0 1.116-.288.516-.3.816-.852.3-.564.3-1.308m6.153-3.396q1.2 0 1.944.732.744.72.744 2.088v3.876h-1.08v-3.72q0-.984-.492-1.5-.492-.528-1.344-.528-.864 0-1.38.54-.504.54-.504 1.572v3.636h-1.092V31.02h1.092v.936q.324-.504.876-.78a2.8 2.8 0 0 1 1.236-.276zm5.036-.948a.72.72 0 0 1-.528-.216.72.72 0 0 1-.216-.528q0-.312.216-.528a.72.72 0 0 1 .528-.216q.3 0 .504.216.216.216.216.528a.72.72 0 0 1-.216.528.67.67 0 0 1-.504.216m.528 1.068v6.576h-1.092V31.02h1.092zm1.453 3.276q0-1.02.408-1.776a2.94 2.94 0 0 1 1.128-1.188q.732-.42 1.668-.42 1.212 0 1.992.588.792.588 1.044 1.632h-1.176a1.68 1.68 0 0 0-.66-.948q-.48-.348-1.2-.348-.936 0-1.512.648-.576.636-.576 1.812 0 1.188.576 1.836t1.512.648q.72 0 1.2-.336t.66-.96h1.176a2.92 2.92 0 0 1-1.056 1.62q-.792.6-1.98.6-.936 0-1.668-.42a2.94 2.94 0 0 1-1.128-1.188q-.408-.768-.408-1.8m10.025 3.408q-.756 0-1.356-.252a2.36 2.36 0 0 1-.948-.72 1.95 1.95 0 0 1-.384-1.068h1.128q.048.492.456.804.42.312 1.092.312.624 0 .984-.276t.36-.696q0-.432-.384-.636-.384-.216-1.188-.42a10 10 0 0 1-1.2-.384 2.3 2.3 0 0 1-.792-.588q-.324-.396-.324-1.032 0-.504.3-.924t.852-.66a3 3 0 0 1 1.26-.252q1.092 0 1.764.552t.72 1.512h-1.092a1.12 1.12 0 0 0-.42-.828q-.372-.312-1.008-.312-.588 0-.936.252a.78.78 0 0 0-.348.66q0 .324.204.54.216.204.528.336.324.12.888.276.708.192 1.152.384.444.18.756.552.324.372.336.972 0 .54-.3.972t-.852.684q-.54.24-1.248.24"/></g><defs><filter id="a" width="103.805" height="50" x=".273" y=".595" color-interpolation-filters="sRGB" filterUnits="userSpaceOnUse"><feFlood flood-opacity="0" result="BackgroundImageFix"/><feColorMatrix in="SourceAlpha" result="hardAlpha" values="0 0 0 0 0 0 0 0 0 0 0 0 0 0 0 0 0 0 127 0"/><feOffset dy="4"/><feGaussianBlur stdDeviation="2"/><feComposite in2="hardAlpha" operator="out"/><feColorMatrix values="0 0 0 0 0 0 0 0 0 0 0 0 0 0 0 0 0 0 0.25 0"/><feBlend in2="BackgroundImageFix" result="effect1_dropShadow_43_8319"/><feBlend in="SourceGraphic" in2="effect1_dropShadow_43_8319" result="shape"/></filter></defs></svg>