<svg xmlns="http://www.w3.org/2000/svg" width="179" height="244" fill="none" viewBox="0 0 179 244"><path fill="url(#a)" d="M147.481 146.892c-.407.753-.761 1.426-1.129 2.093-2.552 4.612-5.137 9.204-7.623 13.856-.4.746-.547 1.792-.414 2.632.809 5.039 2.946 9.624 5.091 14.196.274.58.481 1.193.808 2.013-1.309-1.26-2.345-2.413-3.534-3.386-2.832-2.312-5.732-4.538-8.605-6.798-.714-.56-1.289-.54-2.017.134-4.042 3.732-8.171 7.378-12.186 11.143-.655.613-1.182 1.633-1.283 2.519-.801 6.999-1.436 14.017-2.258 21.015-.193 1.653-.688 3.365-1.463 4.838-1.723 3.286-3.714 6.438-5.725 9.864-.127-.46-.254-.686-.247-.92.427-15.149.855-30.304 1.342-45.454.041-1.186-.233-1.946-1.209-2.652-1.429-1.033-2.739-2.246-3.814-3.139.888-1.527 1.61-2.96 2.525-4.266.407-.58 1.136-1 1.797-1.319 12.359-6.025 20.73-15.303 23.61-28.979 3.627-17.235-3.16-33.577-18.045-43.248-3.2-2.08-6.734-3.632-10.128-5.419-.514-.273-1.062-.486-1.503-.86 15.486 3.146 26.335 11.957 31.573 26.893 5.171 14.749 2.766 28.586-6.547 41.229 3.26-3.206 5.725-6.872 7.529-11.017 4.015-9.258 5.559-18.942 4.723-28.939-.614-7.358-3.934-13.596-9.145-18.768-4.964-4.925-10.777-8.744-16.843-12.17-1.075-.606-1.523-1.113-1.242-2.426.501-2.293-.094-3.232-2.172-4.165-.1-.047-.207-.08-.307-.127-2.438-1.113-4.89-2.34-6.741 1.22l-1.115-20.621c1.008 2.299 1.944 4.392 2.846 6.511.42.987.975 1.6 2.164 1.733 1.256.14 2.499.54 3.708.953 3.888 1.326 7.242.227 10.188-2.313 2.606-2.246 5.064-4.665 7.576-7.031.314-.3.528-.713.788-1.073.134.087.268.18.395.267-.354.96-.695 1.919-1.063 2.872-1.476 3.826-2.939 7.658-4.456 11.47-.434 1.093-.541 1.966.608 2.726 5.846 3.866 10.776 8.764 15.426 13.943 1.523 1.7 3.26 1.88 5.124 1.213 1.804-.653 3.387-1.46 3.788-3.886 2.94-17.861-.26-34.537-9.373-50.126-1.904-3.259-3.881-6.471-5.819-9.71-.1-.167-.18-.34.014-.7 2.365 3.179 4.77 6.331 7.081 9.55 7.964 11.077 15.306 22.548 19.728 35.53 1.464 4.293 3.548 7.752 7.055 10.484.775.607 1.457 1.333 2.552 2.34-2.318-.3-4.175-.54-5.745-.747 0 3.286-.08 6.418.073 9.544.027.58.936 1.2 1.55 1.64.521.373 1.21.506 2.105.853-.368 10.017-2.018 19.828-6.855 28.939.248-1.787.548-3.566.729-5.359.374-3.699-.147-7.211-2.559-10.217-.321-.4-.802-.853-1.263-.92-3.547-.5-7.636 1.573-9.259 4.679-1.143 2.186-1.296 4.372.447 6.352 1.343 1.526 1.898 3.145 1.804 5.265-.207 4.645 2.031 8.417 4.977 11.823 4.242 4.899 9.614 8.384 14.965 11.883.18.12.361.247.755.52-1.517.447-2.839.88-4.189 1.22-.902.227-1.229.713-.902 1.553 1.103 2.826 1.898 5.845 3.434 8.418 2.499 4.178 5.498 8.064 8.284 12.07.207.299.435.579.508 1.033-8.932-9.258-18.713-17.296-30.898-22.308z"/><path fill="url(#b)" d="M77.841 55.917c-.367 6.878-.721 13.536-1.089 20.368-2.559-4.126-5.532-1.573-8.124-.22-1.897.986-1.135 3.199-.848 5.158-.668.353-1.403.713-2.111 1.127-12.293 7.164-21.045 17.288-25.54 30.851-2.693 8.131-1.524 16.256 1.342 23.993 3.882 10.484 10.536 18.975 20.456 24.607.562.32 1.15.606 1.991 1.046-18.171-13.843-25.113-31.244-17.13-52.832 5.239-14.17 16.355-22.227 31.187-25.133-1.103.493-2.212.987-3.307 1.493-7.95 3.653-15.025 8.431-20.15 15.689-14.11 19.995-7.656 47.44 14.003 59.577.775.433 1.537.94 2.365 1.226 1.69.573 2.813 1.5 3.32 3.333.241.859 1.21 1.519 2.012 2.459-1.33 1.106-2.733 2.319-4.19 3.459-.814.633-1.162 1.306-1.128 2.386.407 13.763.761 27.532 1.135 41.302.047 1.626.167 3.252-.14 4.992-1.109-1.886-2.064-3.886-3.36-5.638-2.926-3.959-3.888-8.432-4.222-13.224-.401-5.811-1.083-11.596-1.697-17.395-.06-.54-.421-1.153-.835-1.526-4.196-3.819-8.445-7.571-12.634-11.397-.748-.686-1.276-.533-2.03-.086-3.962 2.352-7.403 5.305-10.45 8.737-.44.493-.888.98-1.636 1.273.701-1.566 1.516-3.099 2.077-4.719 1.383-3.965 2.666-7.971 3.942-11.97.134-.419.094-1.019-.113-1.399-3.047-5.479-6.133-10.93-9.287-16.529-5.899 2.446-11.444 5.625-16.428 9.604-4.957 3.959-9.56 8.351-14.437 12.657 1.363-1.813 2.713-3.473 3.915-5.232 3.1-4.532 6.454-8.931 7.917-14.363.935-3.479 1.169-2.933-2.238-3.986-.675-.206-1.35-.406-2.185-.653 2.886-2.032 5.705-3.825 8.284-5.905 2.632-2.119 5.231-4.345 7.49-6.845 3.34-3.705 5.164-8.071 4.716-13.256-.08-.92.748-2.006 1.363-2.872 1.062-1.487 1.924-2.933 1.623-4.886-.5-3.279-3.173-5.791-7.108-6.505-3.58-.646-3.908-.493-5.525 2.773-1.83 3.706-1.283 7.571-.721 11.43.073.487.187.967-.06 1.613-.462-.86-.99-1.693-1.37-2.586-2.191-5.132-3.521-10.51-4.316-16.009-.374-2.58-.42-5.198-.755-7.778-.28-2.139.628-3.872 1.523-5.671.622-1.253 1.156-2.573 1.524-3.92.387-1.432.527-2.925.828-4.685-2.024.247-3.862.474-6.153.753 1.81-1.7 3.28-3.192 4.87-4.538 1.83-1.553 2.98-3.393 3.715-5.725 4.082-12.957 11.05-24.42 18.806-35.45 2.492-3.546 5.098-7.005 7.663-10.498.347-.473.748-.9 1.396-1.173-.434.673-.882 1.333-1.296 2.013-5.097 8.351-9.94 16.816-12.546 26.353-2.933 10.737-3.16 21.58-1.21 32.49.361 2.007 2.118 2.593 3.742 3.16 1.663.58 3.313.526 4.65-.833 1.362-1.386 2.685-2.82 4.021-4.232 8.358-8.831 18.185-15.23 30.11-18.195.528-.134 1.083-.747 1.337-1.273 1.049-2.173 1.99-4.399 3.06-6.785z"/><path fill="url(#c)" d="M80.086 74.658c3.474-1.366 3.534-4.292 4.048-7.044 1.77-9.478 2.065-18.948.28-28.46-.313-1.665-.567-3.225-2.631-3.325-.02-.266-.08-.426-.034-.466 3.561-2.926 3.22-7.258 3.882-11.144 1.31-7.704 2.331-15.462 3.48-23.193.047-.32.16-.627.501-.947.582 3.939 1.143 7.878 1.758 11.81 1.035 6.625 2.19 13.237 3.1 19.881.273 2.006 1.944 2.54 3.186 3.986-3.594.586-3.1 3.492-3.494 5.825-1.71 10.244-.508 20.348 1.63 30.391.1.46.568.907.969 1.234.514.413 1.136.686 1.71 1.026.087.053.14.166.401.486-.975 1.347-2.071 2.726-2.993 4.206-.708 1.133-1.59 2.366-1.724 3.626-1.069 10.29-1.356 20.601-.414 30.924.034.387.14.767.154 1.153.073 2.3.895 3.633 3.287 4.772 9.921 4.719 11.624 19.495 3.253 27.006-1.443 1.293-2.19 2.659-2.338 4.839.929-.98 1.677-1.773 2.425-2.559-.761 3.199-1.49 6.364-2.271 9.524-.501 2.039-.214 3.785 1.403 5.311.407.387.581 1.407.387 1.973-1.73 5.032-3.58 10.024-5.358 15.036-.614 1.726-.728 3.386.368 5.079.52.806.768 1.959.715 2.932-.648 11.644-5.646 47.067-6.4 55.445-.181-2.693-5.646-49.18-5.953-55.725-.04-.826.167-1.826.641-2.472 1.323-1.82 1.049-3.593.347-5.512a789 789 0 0 1-5.284-14.889c-.167-.5-.033-1.393.314-1.72 1.837-1.713 1.938-3.772 1.423-5.978-.695-3.006-1.456-5.999-2.205-9.038.702.74 1.423 1.513 2.379 2.526-.174-1.926-.434-3.259-1.878-4.432-9.32-7.571-6.82-23.54 4.31-28.172.514-.213 1.102-.833 1.209-1.353.427-2.059.808-4.139.962-6.232.695-9.717.354-19.42-.668-29.098-.1-.94-.862-1.86-1.443-2.7-1.07-1.526-2.238-2.985-3.414-4.532zm9.84 45.521c-.253 0-.5-.007-.754-.013-.348 1.206-.648 2.432-1.056 3.619-.174.5-.528 1.273-.882 1.326-2.512.36-3.801 2.319-5.184 3.992-3.294 3.993-2.7 9.978 1.136 13.363 3.968 3.499 9.82 3.253 13.542-.573 4.87-5.005 2.852-13.743-3.862-16.335-1.336-.514-1.897-1.16-2.038-2.533-.1-.966-.588-1.899-.901-2.846m-.374 35.71c1.55-2.059 2.913-3.805 4.182-5.612.221-.313.067-.886.08-1.339-.407.02-.908-.107-1.215.08-2.018 1.226-3.975 1.14-5.98-.027-.34-.2-.881-.053-1.329-.066.067.499-.033 1.106.22 1.472 1.23 1.773 2.553 3.486 4.042 5.492"/><defs><linearGradient id="a" x1="108.548" x2="64.3826" y1="98.0698" y2="148.086" gradientUnits="userSpaceOnUse"><stop stop-color="#F2F2FF"/><stop offset="1" stop-color="#B7BECA" stop-opacity="0.54"/></linearGradient><linearGradient id="b" x1="108.548" x2="64.3826" y1="98.0698" y2="148.086" gradientUnits="userSpaceOnUse"><stop stop-color="#F2F2FF"/><stop offset="1" stop-color="#B7BECA" stop-opacity="0.54"/></linearGradient><linearGradient id="c" x1="108.548" x2="64.3826" y1="98.0698" y2="148.086" gradientUnits="userSpaceOnUse"><stop stop-color="#F2F2FF"/><stop offset="1" stop-color="#B7BECA" stop-opacity="0.54"/></linearGradient></defs></svg>